SplineFontDB: 3.2
FontName: AcariSans-SemiBold
FullName: Acari Sans SemiBold
FamilyName: Acari Sans SemiBold
Weight: Demi
Copyright: Copyright (c)2015, HK Grotesk Latin by Alfredo Marco Pradil (ammpradil@gmail.com) and HK Grotesk Cyrillic by Stefan Peev (http://www.contextbg.net/). HK Grotesk is a trademark of Alfredo Marco Pradil. Copyright (c) 2018-2023 The Acari Sans Project Authors (https://github.com/cssobral2013/acari-sans)
Version: 1.063; ttfautohint (v1.8.3)
ItalicAngle: 0
UnderlinePosition: -250
UnderlineWidth: 100
Ascent: 1600
Descent: 400
InvalidEm: 0
sfntRevision: 0x00011020
LayerCount: 2
Layer: 0 1 "Back" 1
Layer: 1 1 "Fore" 0
XUID: [1021 467 -1401554168 1015071]
StyleMap: 0x0040
FSType: 0
OS2Version: 4
OS2_WeightWidthSlopeOnly: 0
OS2_UseTypoMetrics: 0
CreationTime: 1480856841
ModificationTime: 1687306621
PfmFamily: 81
TTFWeight: 600
TTFWidth: 5
LineGap: 26
VLineGap: 0
Panose: 0 0 0 0 0 0 0 0 0 0
OS2TypoAscent: 1900
OS2TypoAOffset: 0
OS2TypoDescent: -487
OS2TypoDOffset: 0
OS2TypoLinegap: 26
OS2WinAscent: 1913
OS2WinAOffset: 0
OS2WinDescent: 500
OS2WinDOffset: 0
HheadAscent: 1900
HheadAOffset: 0
HheadDescent: -487
HheadDOffset: 0
OS2SubXSize: 1331
OS2SubYSize: 1228
OS2SubXOff: 0
OS2SubYOff: 153
OS2SupXSize: 1331
OS2SupYSize: 1228
OS2SupXOff: 0
OS2SupYOff: 716
OS2StrikeYSize: 82
OS2StrikeYPos: 599
OS2CapHeight: 1413
OS2XHeight: 1039
OS2Vendor: 'AMSP'
OS2CodePages: 20000197.00000000
OS2UnicodeRanges: 2000020f.00000001.00000000.00000000
Lookup: 1 0 0 "'locl' Localized Forms in Latin lookup 23" { } ['locl' ('latn' <'AZE ' 'CRT ' 'KAZ ' 'TAT ' 'TRK ' 'dflt' > ) ]
Lookup: 1 0 0 "'aalt' Access All Alternates lookup 0" { "'aalt' Access All Alternates lookup 0 subtable"  } ['aalt' ('DFLT' <'dflt' > 'cyrl' <'BGR ' 'MKD ' 'RUS ' 'SRB ' 'dflt' > 'latn' <'AZE ' 'CRT ' 'KAZ ' 'MOL ' 'ROM ' 'TAT ' 'TRK ' 'dflt' > ) ]

StartChar: .notdef
Encoding: 65536 -1 0
Width: 728
GlyphClass: 1
Flags: W
LayerCount: 2
Fore
SplineSet
596 0 m 1,0,-1
 66 0 l 1,1,-1
 66 1333 l 1,2,-1
 596 1333 l 1,3,-1
 596 0 l 1,0,-1
530 66 m 1,4,-1
 530 1267 l 1,5,-1
 132 1267 l 1,6,-1
 132 66 l 1,7,-1
 530 66 l 1,4,-1
EndSplineSet
EndChar

StartChar: exclam
Encoding: 33 33 4
Width: 633
GlyphClass: 1
Flags: W
LayerCount: 2
Fore
SplineSet
398 413 m 1,0,-1
 236 413 l 1,1,-1
 207 1434 l 1,2,-1
 426 1434 l 1,3,-1
 398 413 l 1,0,-1
439 0 m 1,4,-1
 195 0 l 1,5,-1
 195 242 l 1,6,-1
 439 242 l 1,7,-1
 439 0 l 1,4,-1
EndSplineSet
EndChar

StartChar: quotedbl
Encoding: 34 34 5
Width: 943
GlyphClass: 1
Flags: W
LayerCount: 2
Fore
SplineSet
396 903 m 1,0,-1
 213 903 l 1,1,-1
 213 1413 l 1,2,-1
 396 1413 l 1,3,-1
 396 903 l 1,0,-1
730 903 m 1,4,-1
 546 903 l 1,5,-1
 546 1413 l 1,6,-1
 730 1413 l 1,7,-1
 730 903 l 1,4,-1
EndSplineSet
EndChar

StartChar: numbersign
Encoding: 35 35 6
Width: 1378
GlyphClass: 1
Flags: W
LayerCount: 2
Fore
SplineSet
839 0 m 1,0,-1
 671 0 l 1,1,-1
 763 436 l 1,2,-1
 491 436 l 1,3,-1
 401 0 l 1,4,-1
 232 0 l 1,5,-1
 323 421 l 1,6,-1
 87 421 l 1,7,-1
 87 575 l 1,8,-1
 355 575 l 1,9,-1
 413 859 l 1,10,-1
 169 859 l 1,11,-1
 169 1017 l 1,12,-1
 445 1017 l 1,13,-1
 540 1434 l 1,14,-1
 710 1434 l 1,15,-1
 614 997 l 1,16,-1
 886 997 l 1,17,-1
 978 1434 l 1,18,-1
 1148 1434 l 1,19,-1
 1054 1012 l 1,20,-1
 1290 1012 l 1,21,-1
 1290 859 l 1,22,-1
 1022 859 l 1,23,-1
 964 575 l 1,24,-1
 1208 575 l 1,25,-1
 1208 417 l 1,26,-1
 931 417 l 1,27,-1
 839 0 l 1,0,-1
796 575 m 1,28,-1
 853 859 l 1,29,-1
 582 859 l 1,30,-1
 524 575 l 1,31,-1
 796 575 l 1,28,-1
EndSplineSet
EndChar

StartChar: dollar
Encoding: 36 36 7
Width: 1125
GlyphClass: 1
Flags: W
LayerCount: 2
Fore
SplineSet
648 -246 m 1,0,-1
 477 -246 l 1,1,-1
 477 -12 l 1,2,3
 322 11 322 11 205 109 c 128,-1,4
 88 207 88 207 57 379 c 1,5,-1
 273 429 l 1,6,7
 290 305 290 305 376 245.5 c 128,-1,8
 462 186 462 186 581 186 c 0,9,10
 694 186 694 186 762.5 236 c 128,-1,11
 831 286 831 286 831 397 c 0,12,13
 831 459 831 459 793 504 c 0,14,15
 759 544 759 544 701.5 576.5 c 128,-1,16
 644 609 644 609 543 651 c 0,17,18
 417 704 417 704 339 748.5 c 128,-1,19
 261 793 261 793 206 869.5 c 128,-1,20
 151 946 151 946 151 1060 c 0,21,22
 151 1160 151 1160 194.5 1236.5 c 128,-1,23
 238 1313 238 1313 311.5 1362 c 128,-1,24
 385 1411 385 1411 477 1428 c 1,25,-1
 477 1659 l 1,26,-1
 648 1659 l 1,27,-1
 648 1432 l 1,28,29
 880 1400 880 1400 988 1203 c 1,30,-1
 809 1095 l 1,31,32
 768 1169 768 1169 704 1204 c 128,-1,33
 640 1239 640 1239 568 1239 c 0,34,35
 489 1239 489 1239 431.5 1193.5 c 128,-1,36
 374 1148 374 1148 374 1072 c 0,37,38
 374 1014 374 1014 410 973 c 128,-1,39
 446 932 446 932 500 904 c 128,-1,40
 554 876 554 876 648 837 c 0,41,42
 778 783 778 783 858.5 736.5 c 128,-1,43
 939 690 939 690 996.5 608.5 c 128,-1,44
 1054 527 1054 527 1054 404 c 0,45,46
 1054 284 1054 284 999.5 193.5 c 128,-1,47
 945 103 945 103 853.5 49 c 128,-1,48
 762 -5 762 -5 648 -16 c 1,49,-1
 648 -246 l 1,0,-1
EndSplineSet
EndChar

StartChar: percent
Encoding: 37 37 8
Width: 1551
GlyphClass: 1
Flags: W
LayerCount: 2
Fore
SplineSet
473 -13 m 1,0,-1
 286 -13 l 1,1,-1
 1065 1439 l 1,2,-1
 1251 1439 l 1,3,-1
 473 -13 l 1,0,-1
366 779 m 0,4,5
 268 779 268 779 207 831 c 0,6,7
 144 887 144 887 118.5 961.5 c 128,-1,8
 93 1036 93 1036 93 1107 c 0,9,10
 93 1162 93 1162 107 1220 c 128,-1,11
 121 1278 121 1278 152 1326.5 c 128,-1,12
 183 1375 183 1375 234.5 1405.5 c 128,-1,13
 286 1436 286 1436 360 1436 c 0,14,15
 452 1436 452 1436 512.5 1387 c 128,-1,16
 573 1338 573 1338 602.5 1262 c 128,-1,17
 632 1186 632 1186 632 1105 c 0,18,19
 632 1048 632 1048 616.5 990.5 c 128,-1,20
 601 933 601 933 568.5 885 c 128,-1,21
 536 837 536 837 485.5 808 c 128,-1,22
 435 779 435 779 366 779 c 0,4,5
362 929 m 0,23,24
 416 929 416 929 444.5 983 c 128,-1,25
 473 1037 473 1037 473 1107 c 0,26,27
 473 1178 473 1178 444 1231 c 128,-1,28
 415 1284 415 1284 360 1284 c 0,29,30
 304 1284 304 1284 275.5 1231.5 c 128,-1,31
 247 1179 247 1179 247 1107 c 256,32,33
 247 1035 247 1035 276 982 c 128,-1,34
 305 929 305 929 362 929 c 0,23,24
1193 -6 m 0,35,36
 1095 -6 1095 -6 1033 48.5 c 128,-1,37
 971 103 971 103 945.5 178 c 128,-1,38
 920 253 920 253 920 324 c 0,39,40
 920 399 920 399 945.5 475 c 128,-1,41
 971 551 971 551 1031 603.5 c 128,-1,42
 1091 656 1091 656 1187 656 c 0,43,44
 1281 656 1281 656 1341 606.5 c 128,-1,45
 1401 557 1401 557 1430 480.5 c 128,-1,46
 1459 404 1459 404 1459 324 c 0,47,48
 1459 246 1459 246 1431 170 c 128,-1,49
 1403 94 1403 94 1344.5 44 c 128,-1,50
 1286 -6 1286 -6 1193 -6 c 0,35,36
1191 143 m 0,51,52
 1244 143 1244 143 1272.5 198.5 c 128,-1,53
 1301 254 1301 254 1301 326 c 256,54,55
 1301 398 1301 398 1272 451.5 c 128,-1,56
 1243 505 1243 505 1187 505 c 0,57,58
 1132 505 1132 505 1103 451.5 c 128,-1,59
 1074 398 1074 398 1074 324 c 0,60,61
 1074 251 1074 251 1103.5 197 c 128,-1,62
 1133 143 1133 143 1191 143 c 0,51,52
EndSplineSet
EndChar

StartChar: ampersand
Encoding: 38 38 9
Width: 1380
GlyphClass: 1
Flags: W
LayerCount: 2
Fore
SplineSet
1160 -69 m 1,0,-1
 972 148 l 1,1,2
 887 69 887 69 778 23.5 c 128,-1,3
 669 -22 669 -22 539 -22 c 0,4,5
 416 -22 416 -22 315.5 16.5 c 128,-1,6
 215 55 215 55 155 131.5 c 128,-1,7
 95 208 95 208 95 321 c 0,8,9
 95 422 95 422 141 503 c 0,10,11
 184 579 184 579 253.5 640.5 c 128,-1,12
 323 702 323 702 428 764 c 1,13,14
 354 845 354 845 304 928 c 128,-1,15
 254 1011 254 1011 254 1105 c 0,16,17
 254 1206 254 1206 308.5 1279 c 128,-1,18
 363 1352 363 1352 449.5 1391 c 128,-1,19
 536 1430 536 1430 630 1430 c 0,20,21
 734 1430 734 1430 815 1385.5 c 128,-1,22
 896 1341 896 1341 941.5 1267.5 c 128,-1,23
 987 1194 987 1194 987 1107 c 0,24,25
 987 989 987 989 917.5 901 c 128,-1,26
 848 813 848 813 724 729 c 1,27,-1
 954 467 l 1,28,29
 995 570 995 570 1000 695 c 1,30,-1
 1205 673 l 1,31,32
 1193 470 1193 470 1096 305 c 1,33,-1
 1309 63 l 1,34,-1
 1160 -69 l 1,0,-1
589 860 m 1,35,36
 693 923 693 923 743.5 980 c 128,-1,37
 794 1037 794 1037 794 1104 c 0,38,39
 794 1167 794 1167 750.5 1213.5 c 128,-1,40
 707 1260 707 1260 632 1260 c 0,41,42
 587 1260 587 1260 547 1242 c 128,-1,43
 507 1224 507 1224 482 1189 c 128,-1,44
 457 1154 457 1154 457 1102 c 0,45,46
 457 1004 457 1004 589 860 c 1,35,36
536 162 m 0,47,48
 723 162 723 162 847 293 c 1,49,-1
 559 625 l 1,50,51
 432 547 432 547 364.5 478 c 128,-1,52
 297 409 297 409 297 319 c 0,53,54
 297 265 297 265 328.5 230 c 128,-1,55
 360 195 360 195 414 178.5 c 128,-1,56
 468 162 468 162 536 162 c 0,47,48
EndSplineSet
EndChar

StartChar: quotesingle
Encoding: 39 39 10
Width: 609
GlyphClass: 1
Flags: W
LayerCount: 2
Fore
SplineSet
396 932 m 1,0,-1
 213 932 l 1,1,-1
 213 1442 l 1,2,-1
 396 1442 l 1,3,-1
 396 932 l 1,0,-1
EndSplineSet
EndChar

StartChar: parenleft
Encoding: 40 40 11
Width: 569
GlyphClass: 1
Flags: W
LayerCount: 2
Fore
SplineSet
538 -96 m 1,0,-1
 353 -96 l 1,1,2
 236 35 236 35 172.5 265.5 c 128,-1,3
 109 496 109 496 109 706 c 0,4,5
 109 972 109 972 173.5 1175.5 c 128,-1,6
 238 1379 238 1379 349 1505 c 1,7,-1
 540 1505 l 1,8,9
 280 1179 280 1179 280 702 c 0,10,11
 280 465 280 465 340 274.5 c 128,-1,12
 400 84 400 84 538 -96 c 1,0,-1
EndSplineSet
EndChar

StartChar: parenright
Encoding: 41 41 12
Width: 569
GlyphClass: 1
Flags: W
LayerCount: 2
Fore
SplineSet
217 -96 m 1,0,-1
 31 -96 l 1,1,2
 169 84 169 84 229.5 275.5 c 128,-1,3
 290 467 290 467 290 703 c 0,4,5
 290 1176 290 1176 29 1505 c 1,6,-1
 220 1505 l 1,7,8
 331 1381 331 1381 395.5 1178.5 c 128,-1,9
 460 976 460 976 460 707 c 0,10,11
 460 492 460 492 396 263 c 128,-1,12
 332 34 332 34 217 -96 c 1,0,-1
EndSplineSet
EndChar

StartChar: asterisk
Encoding: 42 42 13
Width: 891
GlyphClass: 1
Flags: W
LayerCount: 2
Fore
SplineSet
560 839 m 1,0,-1
 445 1055 l 1,1,-1
 331 839 l 1,2,-1
 194 930 l 1,3,-1
 356 1102 l 1,4,-1
 122 1136 l 1,5,-1
 175 1286 l 1,6,-1
 391 1199 l 1,7,-1
 361 1413 l 1,8,-1
 530 1413 l 1,9,-1
 501 1199 l 1,10,-1
 717 1286 l 1,11,-1
 769 1136 l 1,12,-1
 535 1102 l 1,13,-1
 697 930 l 1,14,-1
 560 839 l 1,0,-1
EndSplineSet
EndChar

StartChar: plus
Encoding: 43 43 14
Width: 1257
GlyphClass: 1
Flags: W
LayerCount: 2
Fore
SplineSet
710 106 m 1,0,-1
 547 106 l 1,1,-1
 547 544 l 1,2,-1
 91 544 l 1,3,-1
 91 706 l 1,4,-1
 547 706 l 1,5,-1
 547 1143 l 1,6,-1
 710 1143 l 1,7,-1
 710 706 l 1,8,-1
 1166 706 l 1,9,-1
 1166 544 l 1,10,-1
 710 544 l 1,11,-1
 710 106 l 1,0,-1
EndSplineSet
EndChar

StartChar: comma
Encoding: 44 44 15
Width: 600
GlyphClass: 1
Flags: W
LayerCount: 2
Fore
SplineSet
252 -310 m 1,0,-1
 111 -310 l 1,1,-1
 249 264 l 1,2,-1
 503 264 l 1,3,-1
 252 -310 l 1,0,-1
EndSplineSet
EndChar

StartChar: hyphen
Encoding: 45 45 16
Width: 857
GlyphClass: 1
Flags: W
LayerCount: 2
Fore
SplineSet
709 530 m 1,0,-1
 147 530 l 1,1,-1
 147 692 l 1,2,-1
 709 692 l 1,3,-1
 709 530 l 1,0,-1
EndSplineSet
EndChar

StartChar: period
Encoding: 46 46 17
Width: 600
GlyphClass: 1
Flags: W
LayerCount: 2
Fore
SplineSet
415 0 m 1,0,-1
 184 0 l 1,1,-1
 184 242 l 1,2,-1
 415 242 l 1,3,-1
 415 0 l 1,0,-1
EndSplineSet
EndChar

StartChar: slash
Encoding: 47 47 18
Width: 932
GlyphClass: 1
Flags: W
LayerCount: 2
Fore
SplineSet
182 -430 m 1,0,-1
 -22 -430 l 1,1,-1
 750 1516 l 1,2,-1
 954 1516 l 1,3,-1
 182 -430 l 1,0,-1
EndSplineSet
EndChar

StartChar: zero
Encoding: 48 48 19
Width: 1200
GlyphClass: 1
Flags: W
LayerCount: 2
Fore
SplineSet
607 -20 m 0,0,1
 513 -20 513 -20 437.5 10 c 128,-1,2
 362 40 362 40 303.5 92.5 c 128,-1,3
 245 145 245 145 203 216 c 128,-1,4
 161 287 161 287 134 367.5 c 128,-1,5
 107 448 107 448 94 535 c 128,-1,6
 81 622 81 622 81 707 c 0,7,8
 81 785 81 785 92 869 c 128,-1,9
 103 953 103 953 128 1034 c 128,-1,10
 153 1115 153 1115 192.5 1188 c 128,-1,11
 232 1261 232 1261 289 1316 c 128,-1,12
 346 1371 346 1371 422 1403.5 c 128,-1,13
 498 1436 498 1436 594 1436 c 0,14,15
 682 1436 682 1436 755.5 1406 c 128,-1,16
 829 1376 829 1376 887 1324 c 128,-1,17
 945 1272 945 1272 988.5 1201 c 128,-1,18
 1032 1130 1032 1130 1061 1049 c 128,-1,19
 1090 968 1090 968 1104 880 c 128,-1,20
 1118 792 1118 792 1118 705 c 0,21,22
 1118 624 1118 624 1105 539 c 128,-1,23
 1092 454 1092 454 1065.5 373.5 c 128,-1,24
 1039 293 1039 293 998 221.5 c 128,-1,25
 957 150 957 150 900 96.5 c 128,-1,26
 843 43 843 43 770 11.5 c 128,-1,27
 697 -20 697 -20 607 -20 c 0,0,1
601 192 m 0,28,29
 670 192 670 192 721 228.5 c 128,-1,30
 772 265 772 265 808 330 c 0,31,32
 832 372 832 372 848 421 c 128,-1,33
 864 470 864 470 873.5 522 c 128,-1,34
 883 574 883 574 887.5 625.5 c 128,-1,35
 892 677 892 677 892 722 c 0,36,37
 892 770 892 770 885.5 825.5 c 128,-1,38
 879 881 879 881 864.5 936 c 128,-1,39
 850 991 850 991 827 1042.5 c 128,-1,40
 804 1094 804 1094 770.5 1133 c 128,-1,41
 737 1172 737 1172 692.5 1195.5 c 128,-1,42
 648 1219 648 1219 591 1219 c 0,43,44
 536 1219 536 1219 493 1196 c 128,-1,45
 450 1173 450 1173 417 1133.5 c 128,-1,46
 384 1094 384 1094 360.5 1042 c 128,-1,47
 337 990 337 990 322.5 932 c 128,-1,48
 308 874 308 874 301 814 c 128,-1,49
 294 754 294 754 294 698 c 0,50,51
 294 617 294 617 309.5 531 c 128,-1,52
 325 445 325 445 360 370 c 0,53,54
 398 289 398 289 456.5 240.5 c 128,-1,55
 515 192 515 192 601 192 c 0,28,29
EndSplineSet
Substitution2: "'subs' Subscript lookup 22 subtable" uni2080
Substitution2: "'sinf' Scientific Inferiors lookup 21 subtable" uni2080
Substitution2: "'sups' Superscript lookup 19 subtable" uni2070
Substitution2: "'aalt' Access All Alternates lookup 0 subtable" uni2070
EndChar

StartChar: one
Encoding: 49 49 20
Width: 1200
GlyphClass: 1
Flags: W
LayerCount: 2
Fore
SplineSet
795 0 m 1,0,-1
 574 0 l 1,1,-1
 574 1048 l 1,2,-1
 200 1048 l 1,3,-1
 200 1219 l 1,4,-1
 427 1219 l 2,5,6
 504 1219 504 1219 544.5 1261.5 c 128,-1,7
 585 1304 585 1304 585 1378 c 2,8,-1
 585 1413 l 1,9,-1
 795 1413 l 1,10,-1
 795 0 l 1,0,-1
EndSplineSet
Substitution2: "'subs' Subscript lookup 22 subtable" uni2081
Substitution2: "'sinf' Scientific Inferiors lookup 21 subtable" uni2081
Substitution2: "'sups' Superscript lookup 19 subtable" onesuperior
Substitution2: "'aalt' Access All Alternates lookup 0 subtable" onesuperior
EndChar

StartChar: two
Encoding: 50 50 21
Width: 1200
GlyphClass: 1
Flags: W
LayerCount: 2
Fore
SplineSet
1110 0 m 1,0,-1
 68 0 l 1,1,-1
 68 182 l 1,2,3
 339 357 339 357 505.5 507.5 c 128,-1,4
 672 658 672 658 752 794 c 0,5,6
 814 898 814 898 814 1007 c 0,7,8
 814 1104 814 1104 761.5 1167.5 c 128,-1,9
 709 1231 709 1231 601 1231 c 0,10,11
 474 1231 474 1231 411.5 1141.5 c 128,-1,12
 349 1052 349 1052 343 915 c 1,13,-1
 124 931 l 1,14,15
 124 1062 124 1062 179 1177 c 128,-1,16
 234 1292 234 1292 347 1365 c 0,17,18
 454 1432 454 1432 598 1432 c 0,19,20
 732 1432 732 1432 831.5 1377.5 c 128,-1,21
 931 1323 931 1323 985.5 1229 c 128,-1,22
 1040 1135 1040 1135 1040 1018 c 0,23,24
 1040 867 1040 867 951 722.5 c 128,-1,25
 862 578 862 578 719.5 437 c 128,-1,26
 577 296 577 296 424 200 c 1,27,-1
 1110 200 l 1,28,-1
 1110 0 l 1,0,-1
EndSplineSet
Substitution2: "'subs' Subscript lookup 22 subtable" uni2082
Substitution2: "'sinf' Scientific Inferiors lookup 21 subtable" uni2082
Substitution2: "'sups' Superscript lookup 19 subtable" twosuperior
Substitution2: "'aalt' Access All Alternates lookup 0 subtable" twosuperior
EndChar

StartChar: three
Encoding: 51 51 22
Width: 1200
GlyphClass: 1
Flags: W
LayerCount: 2
Fore
SplineSet
582 -20 m 0,0,1
 447 -20 447 -20 330 29 c 128,-1,2
 213 78 213 78 140 184 c 0,3,4
 71 286 71 286 71 432 c 1,5,-1
 282 446 l 1,6,7
 282 361 282 361 323 302.5 c 128,-1,8
 364 244 364 244 432 213.5 c 128,-1,9
 500 183 500 183 583 183 c 0,10,11
 658 183 658 183 725.5 209.5 c 128,-1,12
 793 236 793 236 835.5 290 c 128,-1,13
 878 344 878 344 878 427 c 0,14,15
 878 502 878 502 843.5 552.5 c 128,-1,16
 809 603 809 603 749.5 629 c 128,-1,17
 690 655 690 655 614 655 c 2,18,-1
 470 655 l 1,19,-1
 470 844 l 1,20,-1
 614 844 l 2,21,22
 708 844 708 844 754 896 c 128,-1,23
 800 948 800 948 800 1028 c 0,24,25
 800 1094 800 1094 770 1138.5 c 128,-1,26
 740 1183 740 1183 690 1205.5 c 128,-1,27
 640 1228 640 1228 579 1228 c 0,28,29
 480 1228 480 1228 415.5 1171.5 c 128,-1,30
 351 1115 351 1115 348 1013 c 1,31,-1
 138 1029 l 1,32,33
 138 1157 138 1157 197.5 1247.5 c 128,-1,34
 257 1338 257 1338 357 1386 c 128,-1,35
 457 1434 457 1434 576 1434 c 0,36,37
 689 1434 689 1434 789 1389.5 c 128,-1,38
 889 1345 889 1345 951 1260.5 c 128,-1,39
 1013 1176 1013 1176 1013 1055 c 0,40,41
 1013 968 1013 968 978 892.5 c 128,-1,42
 943 817 943 817 877 766 c 1,43,44
 986 712 986 712 1036.5 620.5 c 128,-1,45
 1087 529 1087 529 1089 416 c 0,46,47
 1089 271 1089 271 1019.5 174 c 128,-1,48
 950 77 950 77 834.5 28.5 c 128,-1,49
 719 -20 719 -20 582 -20 c 0,0,1
EndSplineSet
Substitution2: "'subs' Subscript lookup 22 subtable" uni2083
Substitution2: "'sinf' Scientific Inferiors lookup 21 subtable" uni2083
Substitution2: "'sups' Superscript lookup 19 subtable" threesuperior
Substitution2: "'aalt' Access All Alternates lookup 0 subtable" threesuperior
EndChar

StartChar: four
Encoding: 52 52 23
Width: 1200
GlyphClass: 1
Flags: W
LayerCount: 2
Fore
SplineSet
904 0 m 1,0,-1
 682 0 l 1,1,-1
 682 346 l 1,2,-1
 49 346 l 1,3,-1
 49 475 l 1,4,-1
 710 1413 l 1,5,-1
 904 1413 l 1,6,-1
 904 550 l 1,7,-1
 1122 550 l 1,8,-1
 1122 346 l 1,9,-1
 904 346 l 1,10,-1
 904 0 l 1,0,-1
682 550 m 1,11,-1
 682 1054 l 1,12,-1
 331 550 l 1,13,-1
 682 550 l 1,11,-1
EndSplineSet
Substitution2: "'subs' Subscript lookup 22 subtable" uni2084
Substitution2: "'sinf' Scientific Inferiors lookup 21 subtable" uni2084
Substitution2: "'sups' Superscript lookup 19 subtable" uni2074
Substitution2: "'aalt' Access All Alternates lookup 0 subtable" uni2074
EndChar

StartChar: five
Encoding: 53 53 24
Width: 1200
GlyphClass: 1
Flags: W
LayerCount: 2
Fore
SplineSet
593 -20 m 0,0,1
 467 -20 467 -20 364 36.5 c 128,-1,2
 261 93 261 93 192.5 187 c 128,-1,3
 124 281 124 281 99 398 c 1,4,-1
 304 458 l 1,5,6
 329 340 329 340 397.5 259.5 c 128,-1,7
 466 179 466 179 592 179 c 0,8,9
 679 179 679 179 741 223 c 128,-1,10
 803 267 803 267 836 335.5 c 128,-1,11
 869 404 869 404 869 477 c 0,12,13
 869 552 869 552 837.5 616 c 128,-1,14
 806 680 806 680 745.5 719.5 c 128,-1,15
 685 759 685 759 596 759 c 0,16,17
 523 759 523 759 454 723.5 c 128,-1,18
 385 688 385 688 342 620 c 1,19,-1
 142 679 l 1,20,-1
 275 1413 l 1,21,-1
 1033 1413 l 1,22,-1
 1033 1209 l 1,23,-1
 450 1209 l 1,24,-1
 391 885 l 1,25,26
 494 956 494 956 628 956 c 0,27,28
 767 956 767 956 872.5 888 c 128,-1,29
 978 820 978 820 1037.5 710.5 c 128,-1,30
 1097 601 1097 601 1097 475 c 0,31,32
 1097 340 1097 340 1028.5 228 c 128,-1,33
 960 116 960 116 845 48 c 128,-1,34
 730 -20 730 -20 593 -20 c 0,0,1
EndSplineSet
Substitution2: "'subs' Subscript lookup 22 subtable" uni2085
Substitution2: "'sinf' Scientific Inferiors lookup 21 subtable" uni2085
Substitution2: "'sups' Superscript lookup 19 subtable" uni2075
Substitution2: "'aalt' Access All Alternates lookup 0 subtable" uni2075
EndChar

StartChar: six
Encoding: 54 54 25
Width: 1200
GlyphClass: 1
Flags: W
LayerCount: 2
Fore
SplineSet
603 -20 m 0,0,1
 460 -20 460 -20 348 46 c 128,-1,2
 236 112 236 112 170 221 c 128,-1,3
 104 330 104 330 104 461 c 0,4,5
 104 598 104 598 177 710 c 1,6,-1
 597 1413 l 1,7,-1
 851 1413 l 1,8,-1
 544 929 l 1,9,10
 572 933 572 933 604 933 c 0,11,12
 741 933 741 933 855 873 c 128,-1,13
 969 813 969 813 1036.5 708 c 128,-1,14
 1104 603 1104 603 1104 468 c 0,15,16
 1104 342 1104 342 1041 230 c 128,-1,17
 978 118 978 118 860 47 c 0,18,19
 745 -20 745 -20 603 -20 c 0,0,1
604 187 m 0,20,21
 687 187 687 187 750.5 227 c 128,-1,22
 814 267 814 267 850 330.5 c 128,-1,23
 886 394 886 394 886 466 c 0,24,25
 886 547 886 547 846 610 c 128,-1,26
 806 673 806 673 742 708.5 c 128,-1,27
 678 744 678 744 604 744 c 0,28,29
 522 744 522 744 458 705 c 128,-1,30
 394 666 394 666 357.5 603 c 128,-1,31
 321 540 321 540 321 466 c 0,32,33
 321 384 321 384 361 321.5 c 128,-1,34
 401 259 401 259 465.5 223 c 128,-1,35
 530 187 530 187 604 187 c 0,20,21
EndSplineSet
Substitution2: "'subs' Subscript lookup 22 subtable" uni2086
Substitution2: "'sinf' Scientific Inferiors lookup 21 subtable" uni2086
Substitution2: "'sups' Superscript lookup 19 subtable" uni2076
Substitution2: "'aalt' Access All Alternates lookup 0 subtable" uni2076
EndChar

StartChar: seven
Encoding: 55 55 26
Width: 1200
GlyphClass: 1
Flags: W
LayerCount: 2
Fore
SplineSet
481 0 m 1,0,-1
 234 0 l 1,1,-1
 834 1211 l 1,2,-1
 107 1211 l 1,3,-1
 107 1413 l 1,4,-1
 1102 1413 l 1,5,-1
 1102 1300 l 1,6,-1
 481 0 l 1,0,-1
EndSplineSet
Substitution2: "'subs' Subscript lookup 22 subtable" uni2087
Substitution2: "'sinf' Scientific Inferiors lookup 21 subtable" uni2087
Substitution2: "'sups' Superscript lookup 19 subtable" uni2077
Substitution2: "'aalt' Access All Alternates lookup 0 subtable" uni2077
EndChar

StartChar: eight
Encoding: 56 56 27
Width: 1200
GlyphClass: 1
Flags: W
LayerCount: 2
Fore
SplineSet
600 -20 m 0,0,1
 469 -20 469 -20 352.5 25.5 c 128,-1,2
 236 71 236 71 162 170 c 0,3,4
 92 265 92 265 92 400 c 0,5,6
 92 526 92 526 151 618 c 128,-1,7
 210 710 210 710 311 763 c 1,8,9
 236 819 236 819 200 894.5 c 128,-1,10
 164 970 164 970 164 1055 c 0,11,12
 164 1175 164 1175 225 1260 c 128,-1,13
 286 1345 286 1345 385.5 1389.5 c 128,-1,14
 485 1434 485 1434 600 1434 c 0,15,16
 711 1434 711 1434 811 1390.5 c 128,-1,17
 911 1347 911 1347 976 1258 c 0,18,19
 1036 1172 1036 1172 1036 1057 c 0,20,21
 1036 963 1036 963 996.5 888.5 c 128,-1,22
 957 814 957 814 890 763 c 1,23,24
 1107 641 1107 641 1107 402 c 0,25,26
 1107 296 1107 296 1066 217 c 128,-1,27
 1025 138 1025 138 954.5 85.5 c 128,-1,28
 884 33 884 33 792.5 6.5 c 128,-1,29
 701 -20 701 -20 600 -20 c 0,0,1
604 843 m 0,30,31
 665 843 665 843 715 866 c 128,-1,32
 765 889 765 889 794.5 934 c 128,-1,33
 824 979 824 979 824 1044 c 0,34,35
 824 1142 824 1142 760 1194.5 c 128,-1,36
 696 1247 696 1247 604 1247 c 0,37,38
 547 1247 547 1247 497 1225.5 c 128,-1,39
 447 1204 447 1204 415.5 1160.5 c 128,-1,40
 384 1117 384 1117 384 1051 c 0,41,42
 384 956 384 956 445 899.5 c 128,-1,43
 506 843 506 843 604 843 c 0,30,31
598 169 m 0,44,45
 674 169 674 169 739.5 195.5 c 128,-1,46
 805 222 805 222 845 276 c 128,-1,47
 885 330 885 330 885 413 c 0,48,49
 885 492 885 492 847 547 c 128,-1,50
 809 602 809 602 744 630 c 128,-1,51
 679 658 679 658 598 658 c 0,52,53
 516 658 516 658 451 629.5 c 128,-1,54
 386 601 386 601 348.5 547 c 128,-1,55
 311 493 311 493 311 414 c 0,56,57
 311 332 311 332 351 277.5 c 128,-1,58
 391 223 391 223 456 196 c 128,-1,59
 521 169 521 169 598 169 c 0,44,45
EndSplineSet
Substitution2: "'subs' Subscript lookup 22 subtable" uni2088
Substitution2: "'sinf' Scientific Inferiors lookup 21 subtable" uni2088
Substitution2: "'sups' Superscript lookup 19 subtable" uni2078
Substitution2: "'aalt' Access All Alternates lookup 0 subtable" uni2078
EndChar

StartChar: nine
Encoding: 57 57 28
Width: 1200
GlyphClass: 1
Flags: W
LayerCount: 2
Fore
SplineSet
611 -20 m 1,0,-1
 357 -20 l 1,1,-1
 664 464 l 1,2,3
 636 460 636 460 604 460 c 0,4,5
 467 460 467 460 353 520 c 128,-1,6
 239 580 239 580 171.5 685 c 128,-1,7
 104 790 104 790 104 925 c 0,8,9
 104 1051 104 1051 167 1163 c 128,-1,10
 230 1275 230 1275 349 1346 c 0,11,12
 463 1413 463 1413 605 1413 c 0,13,14
 748 1413 748 1413 860 1347 c 128,-1,15
 972 1281 972 1281 1038 1172 c 128,-1,16
 1104 1063 1104 1063 1104 932 c 0,17,18
 1104 795 1104 795 1031 683 c 1,19,-1
 611 -20 l 1,0,-1
604 649 m 0,20,21
 686 649 686 649 750 688 c 128,-1,22
 814 727 814 727 850.5 790 c 128,-1,23
 887 853 887 853 887 927 c 0,24,25
 887 1009 887 1009 847 1071.5 c 128,-1,26
 807 1134 807 1134 742.5 1170 c 128,-1,27
 678 1206 678 1206 604 1206 c 0,28,29
 521 1206 521 1206 457.5 1166 c 128,-1,30
 394 1126 394 1126 358 1062.5 c 128,-1,31
 322 999 322 999 322 927 c 0,32,33
 322 846 322 846 362 783 c 128,-1,34
 402 720 402 720 466 684.5 c 128,-1,35
 530 649 530 649 604 649 c 0,20,21
EndSplineSet
Substitution2: "'subs' Subscript lookup 22 subtable" uni2089
Substitution2: "'sinf' Scientific Inferiors lookup 21 subtable" uni2089
Substitution2: "'sups' Superscript lookup 19 subtable" uni2079
Substitution2: "'aalt' Access All Alternates lookup 0 subtable" uni2079
EndChar

StartChar: colon
Encoding: 58 58 29
Width: 600
GlyphClass: 1
Flags: W
LayerCount: 2
Fore
SplineSet
422 712 m 1,0,-1
 178 712 l 1,1,-1
 178 954 l 1,2,-1
 422 954 l 1,3,-1
 422 712 l 1,0,-1
422 0 m 1,4,-1
 178 0 l 1,5,-1
 178 242 l 1,6,-1
 422 242 l 1,7,-1
 422 0 l 1,4,-1
EndSplineSet
EndChar

StartChar: semicolon
Encoding: 59 59 30
Width: 600
GlyphClass: 1
Flags: W
LayerCount: 2
Fore
SplineSet
434 712 m 1,0,-1
 190 712 l 1,1,-1
 190 954 l 1,2,-1
 434 954 l 1,3,-1
 434 712 l 1,0,-1
226 -310 m 1,4,-1
 85 -310 l 1,5,-1
 223 264 l 1,6,-1
 477 264 l 1,7,-1
 226 -310 l 1,4,-1
EndSplineSet
EndChar

StartChar: less
Encoding: 60 60 31
Width: 1229
GlyphClass: 1
Flags: W
LayerCount: 2
Fore
SplineSet
1021 157 m 1,0,-1
 63 674 l 1,1,-1
 1021 1190 l 1,2,-1
 1113 1031 l 1,3,-1
 413 674 l 1,4,-1
 1113 316 l 1,5,-1
 1021 157 l 1,0,-1
EndSplineSet
EndChar

StartChar: equal
Encoding: 61 61 32
Width: 1266
GlyphClass: 1
Flags: W
LayerCount: 2
Fore
SplineSet
1037 759 m 1,0,-1
 229 759 l 1,1,-1
 229 944 l 1,2,-1
 1037 944 l 1,3,-1
 1037 759 l 1,0,-1
1037 400 m 1,4,-1
 229 400 l 1,5,-1
 229 585 l 1,6,-1
 1037 585 l 1,7,-1
 1037 400 l 1,4,-1
EndSplineSet
EndChar

StartChar: greater
Encoding: 62 62 33
Width: 1229
GlyphClass: 1
Flags: W
LayerCount: 2
Fore
SplineSet
208 157 m 1,0,-1
 116 316 l 1,1,-1
 816 674 l 1,2,-1
 116 1031 l 1,3,-1
 208 1190 l 1,4,-1
 1166 674 l 1,5,-1
 208 157 l 1,0,-1
EndSplineSet
EndChar

StartChar: question
Encoding: 63 63 34
Width: 1005
GlyphClass: 1
Flags: W
LayerCount: 2
Fore
SplineSet
587 409 m 1,0,-1
 402 409 l 1,1,-1
 402 581 l 2,2,3
 402 659 402 659 426.5 709.5 c 128,-1,4
 451 760 451 760 488 788 c 128,-1,5
 525 816 525 816 584 848 c 0,6,7
 657 884 657 884 696.5 927 c 128,-1,8
 736 970 736 970 736 1049 c 0,9,10
 736 1120 736 1120 704.5 1165 c 128,-1,11
 673 1210 673 1210 618.5 1231.5 c 128,-1,12
 564 1253 564 1253 494 1253 c 0,13,14
 373 1253 373 1253 313 1189 c 128,-1,15
 253 1125 253 1125 253 1013 c 1,16,-1
 60 1013 l 1,17,18
 60 1147 60 1147 115.5 1241.5 c 128,-1,19
 171 1336 171 1336 267 1385 c 128,-1,20
 363 1434 363 1434 485 1434 c 0,21,22
 600 1434 600 1434 700.5 1391.5 c 128,-1,23
 801 1349 801 1349 864 1262.5 c 128,-1,24
 927 1176 927 1176 927 1046 c 0,25,26
 927 873 927 873 819 781 c 0,27,28
 774 743 774 743 705 706 c 0,29,30
 661 682 661 682 638 666 c 0,31,32
 587 629 587 629 587 579 c 2,33,-1
 587 409 l 1,0,-1
620 0 m 1,34,-1
 375 0 l 1,35,-1
 375 242 l 1,36,-1
 620 242 l 1,37,-1
 620 0 l 1,34,-1
EndSplineSet
EndChar

StartChar: at
Encoding: 64 64 35
Width: 2031
GlyphClass: 1
Flags: W
LayerCount: 2
Fore
SplineSet
1008 -348 m 0,0,1
 774 -348 774 -348 569 -246.5 c 128,-1,2
 364 -145 364 -145 236 61 c 0,3,4
 116 258 116 258 116 519 c 0,5,6
 116 770 116 770 228.5 977.5 c 128,-1,7
 341 1185 341 1185 552 1311 c 0,8,9
 759 1432 759 1432 1025 1432 c 256,10,11
 1291 1432 1291 1432 1495 1313 c 0,12,13
 1708 1184 1708 1184 1813.5 981 c 128,-1,14
 1919 778 1919 778 1919 549 c 0,15,16
 1919 395 1919 395 1870 254 c 128,-1,17
 1821 113 1821 113 1714 19 c 0,18,19
 1610 -69 1610 -69 1460 -69 c 0,20,21
 1325 -69 1325 -69 1256 -1 c 128,-1,22
 1187 67 1187 67 1184 179 c 1,23,24
 1121 115 1121 115 1042.5 82.5 c 128,-1,25
 964 50 964 50 884 50 c 0,26,27
 774 50 774 50 701 104.5 c 128,-1,28
 628 159 628 159 591.5 248.5 c 128,-1,29
 555 338 555 338 555 443 c 0,30,31
 555 576 555 576 611 717.5 c 128,-1,32
 667 859 667 859 781 961 c 0,33,34
 890 1054 890 1054 1033 1054 c 0,35,36
 1131 1054 1131 1054 1198 1011.5 c 128,-1,37
 1265 969 1265 969 1296 902 c 1,38,-1
 1317 1005 l 1,39,-1
 1499 1005 l 1,40,41
 1486 936 1486 936 1442 751 c 0,42,43
 1396 567 1396 567 1372.5 445 c 128,-1,44
 1349 323 1349 323 1349 238 c 0,45,46
 1349 169 1349 169 1372 142.5 c 128,-1,47
 1395 116 1395 116 1454 116 c 0,48,49
 1556 116 1556 116 1621 181 c 0,50,51
 1688 250 1688 250 1716 349.5 c 128,-1,52
 1744 449 1744 449 1744 553 c 0,53,54
 1744 736 1744 736 1660.5 899 c 128,-1,55
 1577 1062 1577 1062 1406 1165 c 0,56,57
 1243 1260 1243 1260 1027 1260 c 0,58,59
 855 1260 855 1260 719 1202 c 128,-1,60
 583 1144 583 1144 487.5 1042 c 128,-1,61
 392 940 392 940 341.5 806.5 c 128,-1,62
 291 673 291 673 291 523 c 0,63,64
 291 357 291 357 348 229 c 128,-1,65
 405 101 405 101 504.5 13 c 128,-1,66
 604 -75 604 -75 734 -120.5 c 128,-1,67
 864 -166 864 -166 1010 -166 c 0,68,69
 1134 -166 1134 -166 1253 -127 c 1,70,-1
 1316 -295 l 1,71,72
 1172 -348 1172 -348 1008 -348 c 0,0,1
901 230 m 0,73,74
 1004 230 1004 230 1080 298 c 0,75,76
 1159 371 1159 371 1197 472.5 c 128,-1,77
 1235 574 1235 574 1235 671 c 0,78,79
 1235 873 1235 873 1061 873 c 0,80,81
 957 873 957 873 881 806 c 0,82,83
 801 734 801 734 762.5 633.5 c 128,-1,84
 724 533 724 533 724 437 c 0,85,86
 724 342 724 342 765.5 286 c 128,-1,87
 807 230 807 230 901 230 c 0,73,74
EndSplineSet
EndChar

StartChar: A
Encoding: 65 65 36
Width: 1332
GlyphClass: 1
Flags: W
LayerCount: 2
Fore
SplineSet
1304 0 m 1,0,-1
 1062 0 l 1,1,-1
 953 307 l 1,2,-1
 382 307 l 1,3,-1
 272 0 l 1,4,-1
 28 0 l 1,5,-1
 583 1413 l 1,6,-1
 752 1413 l 1,7,-1
 1304 0 l 1,0,-1
878 502 m 1,8,-1
 668 1084 l 1,9,-1
 458 502 l 1,10,-1
 878 502 l 1,8,-1
EndSplineSet
Substitution2: "Single Substitution lookup 3 subtable" ordfeminine
Substitution2: "Single Substitution lookup 2 subtable" ordfeminine
Position2: "'cpsp' Capital Spacing lookup 0 subtable" dx=5 dy=0 dh=10 dv=0
EndChar

StartChar: B
Encoding: 66 66 37
Width: 1264
GlyphClass: 1
Flags: W
LayerCount: 2
Fore
SplineSet
715 0 m 2,0,-1
 191 0 l 1,1,-1
 191 1413 l 1,2,-1
 650 1413 l 2,3,4
 737 1413 737 1413 818 1392.5 c 128,-1,5
 899 1372 899 1372 963 1328 c 128,-1,6
 1027 1284 1027 1284 1065 1213 c 128,-1,7
 1103 1142 1103 1142 1103 1042 c 0,8,9
 1103 940 1103 940 1055 866 c 128,-1,10
 1007 792 1007 792 937 753 c 1,11,12
 1037 712 1037 712 1104.5 616.5 c 128,-1,13
 1172 521 1172 521 1172 399 c 0,14,15
 1172 267 1172 267 1108 178 c 128,-1,16
 1044 89 1044 89 939.5 44.5 c 128,-1,17
 835 0 835 0 715 0 c 2,0,-1
667 827 m 2,18,19
 766 827 766 827 828.5 873.5 c 128,-1,20
 891 920 891 920 891 1026 c 0,21,22
 891 1092 891 1092 860 1132.5 c 128,-1,23
 829 1173 829 1173 775 1192 c 128,-1,24
 721 1211 721 1211 654 1211 c 2,25,-1
 415 1211 l 1,26,-1
 415 827 l 1,27,-1
 667 827 l 2,18,19
719 212 m 2,28,29
 825 212 825 212 888.5 261 c 128,-1,30
 952 310 952 310 952 422 c 0,31,32
 952 490 952 490 920.5 537 c 128,-1,33
 889 584 889 584 834.5 608 c 128,-1,34
 780 632 780 632 713 632 c 2,35,-1
 415 632 l 1,36,-1
 415 212 l 1,37,-1
 719 212 l 2,28,29
EndSplineSet
Position2: "'cpsp' Capital Spacing lookup 0 subtable" dx=5 dy=0 dh=10 dv=0
EndChar

StartChar: C
Encoding: 67 67 38
Width: 1428
GlyphClass: 1
Flags: W
LayerCount: 2
Fore
SplineSet
764 -20 m 0,0,1
 545 -20 545 -20 394 78 c 0,2,3
 289 147 289 147 222.5 245 c 128,-1,4
 156 343 156 343 125.5 461 c 128,-1,5
 95 579 95 579 95 707 c 256,6,7
 95 835 95 835 125.5 953 c 128,-1,8
 156 1071 156 1071 222 1169.5 c 128,-1,9
 288 1268 288 1268 393 1338 c 0,10,11
 543 1436 543 1436 762 1436 c 0,12,13
 959 1436 959 1436 1118 1338.5 c 128,-1,14
 1277 1241 1277 1241 1367 1039 c 1,15,-1
 1158 955 l 1,16,17
 1119 1094 1119 1094 1014.5 1159 c 128,-1,18
 910 1224 910 1224 760 1224 c 0,19,20
 608 1224 608 1224 510 1156.5 c 128,-1,21
 412 1089 412 1089 364.5 974 c 128,-1,22
 317 859 317 859 317 717 c 0,23,24
 317 485 317 485 422 345 c 0,25,26
 538 191 538 191 764 191 c 0,27,28
 916 191 916 191 1012.5 259 c 128,-1,29
 1109 327 1109 327 1161 464 c 1,30,-1
 1369 378 l 1,31,32
 1281 179 1281 179 1122 79.5 c 128,-1,33
 963 -20 963 -20 764 -20 c 0,0,1
EndSplineSet
Position2: "'cpsp' Capital Spacing lookup 0 subtable" dx=5 dy=0 dh=10 dv=0
EndChar

StartChar: D
Encoding: 68 68 39
Width: 1408
GlyphClass: 1
Flags: W
LayerCount: 2
Fore
SplineSet
584 0 m 2,0,-1
 191 0 l 1,1,-1
 191 1413 l 1,2,-1
 586 1413 l 2,3,4
 944 1413 944 1413 1129 1226 c 128,-1,5
 1314 1039 1314 1039 1314 696 c 0,6,7
 1314 358 1314 358 1122 179 c 128,-1,8
 930 0 930 0 584 0 c 2,0,-1
559 206 m 2,9,10
 810 206 810 206 950 326 c 128,-1,11
 1090 446 1090 446 1090 707 c 0,12,13
 1090 963 1090 963 970.5 1085.5 c 128,-1,14
 851 1208 851 1208 582 1208 c 2,15,-1
 416 1208 l 1,16,-1
 416 206 l 1,17,-1
 559 206 l 2,9,10
EndSplineSet
Position2: "'cpsp' Capital Spacing lookup 0 subtable" dx=5 dy=0 dh=10 dv=0
EndChar

StartChar: E
Encoding: 69 69 40
Width: 1243
GlyphClass: 1
Flags: W
LayerCount: 2
Fore
SplineSet
1124 0 m 1,0,-1
 191 0 l 1,1,-1
 191 1413 l 1,2,-1
 1124 1413 l 1,3,-1
 1124 1210 l 1,4,-1
 416 1210 l 1,5,-1
 416 808 l 1,6,-1
 1060 808 l 1,7,-1
 1060 606 l 1,8,-1
 416 606 l 1,9,-1
 416 210 l 1,10,-1
 1124 210 l 1,11,-1
 1124 0 l 1,0,-1
EndSplineSet
Position2: "'cpsp' Capital Spacing lookup 0 subtable" dx=5 dy=0 dh=10 dv=0
EndChar

StartChar: F
Encoding: 70 70 41
Width: 1223
GlyphClass: 1
Flags: W
LayerCount: 2
Fore
SplineSet
416 0 m 1,0,-1
 191 0 l 1,1,-1
 191 1413 l 1,2,-1
 1163 1413 l 1,3,-1
 1163 1210 l 1,4,-1
 416 1210 l 1,5,-1
 416 808 l 1,6,-1
 1075 808 l 1,7,-1
 1075 606 l 1,8,-1
 416 606 l 1,9,-1
 416 0 l 1,0,-1
EndSplineSet
Position2: "'cpsp' Capital Spacing lookup 0 subtable" dx=5 dy=0 dh=10 dv=0
EndChar

StartChar: G
Encoding: 71 71 42
Width: 1526
GlyphClass: 1
Flags: W
LayerCount: 2
Fore
SplineSet
764 -20 m 0,0,1
 545 -20 545 -20 394 78 c 0,2,3
 289 147 289 147 222.5 245 c 128,-1,4
 156 343 156 343 125.5 461 c 128,-1,5
 95 579 95 579 95 707 c 256,6,7
 95 835 95 835 126 953 c 128,-1,8
 157 1071 157 1071 222.5 1169.5 c 128,-1,9
 288 1268 288 1268 393 1338 c 0,10,11
 543 1436 543 1436 762 1436 c 0,12,13
 958 1436 958 1436 1116.5 1338.5 c 128,-1,14
 1275 1241 1275 1241 1365 1039 c 1,15,-1
 1165 955 l 1,16,17
 1108 1101 1108 1101 1002 1169 c 128,-1,18
 896 1237 896 1237 760 1237 c 0,19,20
 646 1237 646 1237 562.5 1195.5 c 128,-1,21
 479 1154 479 1154 424.5 1082.5 c 128,-1,22
 370 1011 370 1011 343.5 917 c 128,-1,23
 317 823 317 823 317 717 c 0,24,25
 317 483 317 483 423 339 c 0,26,27
 539 182 539 182 764 182 c 0,28,29
 918 182 918 182 1036.5 282 c 128,-1,30
 1155 382 1155 382 1175 569 c 1,31,-1
 853 569 l 1,32,-1
 853 749 l 1,33,-1
 1391 749 l 1,34,-1
 1391 0 l 1,35,-1
 1211 0 l 1,36,-1
 1196 217 l 1,37,38
 1161 149 1161 149 1099.5 95.5 c 128,-1,39
 1038 42 1038 42 953 11 c 128,-1,40
 868 -20 868 -20 764 -20 c 0,0,1
EndSplineSet
Position2: "'cpsp' Capital Spacing lookup 0 subtable" dx=5 dy=0 dh=10 dv=0
EndChar

StartChar: H
Encoding: 72 72 43
Width: 1480
GlyphClass: 1
Flags: W
LayerCount: 2
Fore
SplineSet
1288 0 m 1,0,-1
 1064 0 l 1,1,-1
 1064 606 l 1,2,-1
 416 606 l 1,3,-1
 416 0 l 1,4,-1
 191 0 l 1,5,-1
 191 1413 l 1,6,-1
 416 1413 l 1,7,-1
 416 808 l 1,8,-1
 1064 808 l 1,9,-1
 1064 1413 l 1,10,-1
 1288 1413 l 1,11,-1
 1288 0 l 1,0,-1
EndSplineSet
Position2: "'cpsp' Capital Spacing lookup 0 subtable" dx=5 dy=0 dh=10 dv=0
EndChar

StartChar: I
Encoding: 73 73 44
Width: 607
GlyphClass: 1
Flags: W
LayerCount: 2
Fore
SplineSet
416 0 m 1,0,-1
 191 0 l 1,1,-1
 191 1413 l 1,2,-1
 416 1413 l 1,3,-1
 416 0 l 1,0,-1
EndSplineSet
Position2: "'cpsp' Capital Spacing lookup 0 subtable" dx=5 dy=0 dh=10 dv=0
EndChar

StartChar: J
Encoding: 74 74 45
Width: 1133
GlyphClass: 1
Flags: W
LayerCount: 2
Fore
SplineSet
505 -20 m 0,0,1
 365 -20 365 -20 265 40.5 c 128,-1,2
 165 101 165 101 109 202 c 128,-1,3
 53 303 53 303 44 426 c 1,4,-1
 264 453 l 1,5,6
 272 336 272 336 331.5 260.5 c 128,-1,7
 391 185 391 185 505 185 c 0,8,9
 597 185 597 185 649 220 c 128,-1,10
 701 255 701 255 722.5 324.5 c 128,-1,11
 744 394 744 394 744 499 c 2,12,-1
 745 1413 l 1,13,-1
 968 1413 l 1,14,-1
 968 507 l 2,15,16
 968 263 968 263 856.5 121.5 c 128,-1,17
 745 -20 745 -20 505 -20 c 0,0,1
EndSplineSet
Position2: "'cpsp' Capital Spacing lookup 0 subtable" dx=5 dy=0 dh=10 dv=0
EndChar

StartChar: K
Encoding: 75 75 46
Width: 1479
GlyphClass: 1
Flags: W
LayerCount: 2
Fore
SplineSet
1448 0 m 1,0,-1
 1171 0 l 1,1,-1
 721 690 l 1,2,-1
 416 374 l 1,3,-1
 416 0 l 1,4,-1
 191 0 l 1,5,-1
 191 1413 l 1,6,-1
 416 1413 l 1,7,-1
 416 647 l 1,8,-1
 1133 1413 l 1,9,-1
 1431 1413 l 1,10,-1
 875 841 l 1,11,-1
 1448 0 l 1,0,-1
EndSplineSet
Position2: "'cpsp' Capital Spacing lookup 0 subtable" dx=5 dy=0 dh=10 dv=0
EndChar

StartChar: L
Encoding: 76 76 47
Width: 1055
GlyphClass: 1
Flags: W
LayerCount: 2
Fore
SplineSet
1020 0 m 1,0,-1
 191 0 l 1,1,-1
 191 1413 l 1,2,-1
 416 1413 l 1,3,-1
 416 210 l 1,4,-1
 1020 210 l 1,5,-1
 1020 0 l 1,0,-1
EndSplineSet
Position2: "'cpsp' Capital Spacing lookup 0 subtable" dx=5 dy=0 dh=10 dv=0
EndChar

StartChar: M
Encoding: 77 77 48
Width: 1787
GlyphClass: 1
Flags: W
LayerCount: 2
Fore
SplineSet
1595 0 m 1,0,-1
 1379 0 l 1,1,-1
 1379 1125 l 1,2,-1
 1005 123 l 1,3,-1
 782 123 l 1,4,-1
 409 1125 l 1,5,-1
 409 0 l 1,6,-1
 191 0 l 1,7,-1
 191 1413 l 1,8,-1
 507 1413 l 1,9,-1
 892 367 l 1,10,-1
 1279 1413 l 1,11,-1
 1595 1413 l 1,12,-1
 1595 0 l 1,0,-1
EndSplineSet
Position2: "'cpsp' Capital Spacing lookup 0 subtable" dx=5 dy=0 dh=10 dv=0
EndChar

StartChar: N
Encoding: 78 78 49
Width: 1443
GlyphClass: 1
Flags: W
LayerCount: 2
Fore
SplineSet
1251 0 m 1,0,-1
 1004 0 l 1,1,-1
 409 1071 l 1,2,-1
 409 0 l 1,3,-1
 191 0 l 1,4,-1
 191 1413 l 1,5,-1
 436 1413 l 1,6,-1
 1035 344 l 1,7,-1
 1035 1413 l 1,8,-1
 1251 1413 l 1,9,-1
 1251 0 l 1,0,-1
EndSplineSet
Position2: "'cpsp' Capital Spacing lookup 0 subtable" dx=5 dy=0 dh=10 dv=0
EndChar

StartChar: O
Encoding: 79 79 50
Width: 1524
GlyphClass: 1
Flags: W
LayerCount: 2
Fore
SplineSet
761 -20 m 0,0,1
 542 -20 542 -20 392 78 c 0,2,3
 287 147 287 147 221.5 245 c 128,-1,4
 156 343 156 343 125.5 461 c 128,-1,5
 95 579 95 579 95 707 c 0,6,7
 95 834 95 834 125.5 952 c 128,-1,8
 156 1070 156 1070 221.5 1168 c 128,-1,9
 287 1266 287 1266 392 1336 c 0,10,11
 542 1434 542 1434 761 1434 c 0,12,13
 981 1434 981 1434 1131 1336 c 0,14,15
 1236 1266 1236 1266 1301.5 1168 c 128,-1,16
 1367 1070 1367 1070 1398 952 c 128,-1,17
 1429 834 1429 834 1429 707 c 0,18,19
 1429 516 1429 516 1358 349.5 c 128,-1,20
 1287 183 1287 183 1131 78 c 0,21,22
 981 -20 981 -20 761 -20 c 0,0,1
761 180 m 0,23,24
 912 180 912 180 1011 253.5 c 128,-1,25
 1110 327 1110 327 1153.5 446 c 128,-1,26
 1197 565 1197 565 1197 707 c 0,27,28
 1197 937 1197 937 1095 1077 c 0,29,30
 983 1233 983 1233 761 1233 c 0,31,32
 611 1233 611 1233 514 1162 c 0,33,34
 414 1086 414 1086 371 967 c 128,-1,35
 328 848 328 848 328 707 c 0,36,37
 328 476 328 476 429 335 c 0,38,39
 541 180 541 180 761 180 c 0,23,24
EndSplineSet
Substitution2: "Single Substitution lookup 3 subtable" ordmasculine
Substitution2: "Single Substitution lookup 2 subtable" ordmasculine
Position2: "'cpsp' Capital Spacing lookup 0 subtable" dx=5 dy=0 dh=10 dv=0
EndChar

StartChar: P
Encoding: 80 80 51
Width: 1161
GlyphClass: 1
Flags: W
LayerCount: 2
Fore
SplineSet
414 0 m 1,0,-1
 191 0 l 1,1,-1
 191 1413 l 1,2,-1
 620 1413 l 2,3,4
 757 1413 757 1413 867.5 1366 c 128,-1,5
 978 1319 978 1319 1043 1224 c 0,6,7
 1104 1131 1104 1131 1104 1004 c 0,8,9
 1104 873 1104 873 1041.5 783.5 c 128,-1,10
 979 694 979 694 870 648 c 128,-1,11
 761 602 761 602 620 602 c 2,12,-1
 414 602 l 1,13,-1
 414 0 l 1,0,-1
620 809 m 2,14,15
 882 809 882 809 882 1004 c 0,16,17
 882 1098 882 1098 819.5 1152 c 128,-1,18
 757 1206 757 1206 620 1206 c 2,19,-1
 414 1206 l 1,20,-1
 414 809 l 1,21,-1
 620 809 l 2,14,15
EndSplineSet
Position2: "'cpsp' Capital Spacing lookup 0 subtable" dx=5 dy=0 dh=10 dv=0
EndChar

StartChar: Q
Encoding: 81 81 52
Width: 1564
GlyphClass: 1
Flags: W
LayerCount: 2
Fore
SplineSet
1342 -112 m 1,0,-1
 1143 90 l 1,1,2
 989 -20 989 -20 761 -20 c 0,3,4
 542 -20 542 -20 392 78 c 0,5,6
 287 147 287 147 221.5 245 c 128,-1,7
 156 343 156 343 125.5 461 c 128,-1,8
 95 579 95 579 95 707 c 0,9,10
 95 834 95 834 125.5 952 c 128,-1,11
 156 1070 156 1070 221.5 1168 c 128,-1,12
 287 1266 287 1266 392 1336 c 0,13,14
 542 1434 542 1434 761 1434 c 0,15,16
 981 1434 981 1434 1131 1336 c 0,17,18
 1236 1266 1236 1266 1301.5 1167.5 c 128,-1,19
 1367 1069 1367 1069 1398 951 c 128,-1,20
 1429 833 1429 833 1429 705 c 0,21,22
 1429 569 1429 569 1393 442.5 c 128,-1,23
 1357 316 1357 316 1285 218 c 1,24,-1
 1485 24 l 1,25,-1
 1342 -112 l 1,0,-1
761 189 m 0,26,27
 891 189 891 189 985 243 c 1,28,-1
 790 428 l 1,29,-1
 931 561 l 1,30,-1
 1124 378 l 1,31,32
 1205 513 1205 513 1205 707 c 0,33,34
 1205 812 1205 812 1179.5 905.5 c 128,-1,35
 1154 999 1154 999 1100.5 1070.5 c 128,-1,36
 1047 1142 1047 1142 963 1183 c 128,-1,37
 879 1224 879 1224 761 1224 c 0,38,39
 610 1224 610 1224 511 1155 c 0,40,41
 409 1081 409 1081 364 963.5 c 128,-1,42
 319 846 319 846 319 707 c 0,43,44
 319 483 319 483 422 344 c 0,45,46
 536 189 536 189 761 189 c 0,26,27
EndSplineSet
Position2: "'cpsp' Capital Spacing lookup 0 subtable" dx=5 dy=0 dh=10 dv=0
EndChar

StartChar: R
Encoding: 82 82 53
Width: 1253
GlyphClass: 1
Flags: W
LayerCount: 2
Fore
SplineSet
1213 -2 m 1,0,-1
 955 -2 l 1,1,-1
 605 613 l 1,2,-1
 416 613 l 1,3,-1
 416 -2 l 1,4,-1
 191 -2 l 1,5,-1
 191 1413 l 1,6,-1
 632 1413 l 2,7,8
 757 1413 757 1413 866 1366 c 128,-1,9
 975 1319 975 1319 1044 1222 c 0,10,11
 1107 1129 1107 1129 1107 1004 c 0,12,13
 1107 868 1107 868 1028.5 771.5 c 128,-1,14
 950 675 950 675 823 636 c 1,15,-1
 1213 -2 l 1,0,-1
655 801 m 1,16,17
 758 806 758 806 821.5 857 c 128,-1,18
 885 908 885 908 885 1001 c 0,19,20
 885 1103 885 1103 815 1157.5 c 128,-1,21
 745 1212 745 1212 634 1212 c 2,22,-1
 418 1212 l 1,23,-1
 418 801 l 1,24,-1
 655 801 l 1,16,17
EndSplineSet
Position2: "'cpsp' Capital Spacing lookup 0 subtable" dx=5 dy=0 dh=10 dv=0
EndChar

StartChar: S
Encoding: 83 83 54
Width: 1135
GlyphClass: 1
Flags: W
LayerCount: 2
Fore
SplineSet
584 -16 m 0,0,1
 485 -16 485 -16 397 11 c 128,-1,2
 309 38 309 38 239.5 90 c 128,-1,3
 170 142 170 142 123.5 217.5 c 128,-1,4
 77 293 77 293 61 390 c 1,5,-1
 284 450 l 1,6,7
 292 389 292 389 315.5 340 c 128,-1,8
 339 291 339 291 377.5 256.5 c 128,-1,9
 416 222 416 222 468.5 203 c 128,-1,10
 521 184 521 184 587 184 c 0,11,12
 638 184 638 184 682.5 196.5 c 128,-1,13
 727 209 727 209 760 234 c 128,-1,14
 793 259 793 259 812 297 c 128,-1,15
 831 335 831 335 831 387 c 0,16,17
 831 451 831 451 795 494.5 c 128,-1,18
 759 538 759 538 703 571 c 128,-1,19
 647 604 647 604 579 631 c 0,20,21
 510 658 510 658 444 688 c 0,22,23
 387 713 387 713 335 745.5 c 128,-1,24
 283 778 283 778 243 822 c 128,-1,25
 203 866 203 866 179 923 c 128,-1,26
 155 980 155 980 155 1054 c 0,27,28
 155 1138 155 1138 186.5 1208 c 128,-1,29
 218 1278 218 1278 274 1328 c 128,-1,30
 330 1378 330 1378 407 1405.5 c 128,-1,31
 484 1433 484 1433 576 1433 c 0,32,33
 715 1433 715 1433 820.5 1372.5 c 128,-1,34
 926 1312 926 1312 997 1191 c 1,35,-1
 812 1075 l 1,36,37
 777 1142 777 1142 719.5 1184.5 c 128,-1,38
 662 1227 662 1227 590 1233 c 2,39,-1
 570 1234 l 1,40,-1
 550 1233 l 2,41,42
 516 1230 516 1230 485.5 1217.5 c 128,-1,43
 455 1205 455 1205 432 1184 c 128,-1,44
 409 1163 409 1163 395.5 1134 c 128,-1,45
 382 1105 382 1105 382 1068 c 0,46,47
 382 1018 382 1018 406 982.5 c 128,-1,48
 430 947 430 947 470 920.5 c 128,-1,49
 510 894 510 894 560.5 872.5 c 128,-1,50
 611 851 611 851 665 829 c 0,51,52
 710 810 710 810 756.5 789 c 128,-1,53
 803 768 803 768 847 742.5 c 128,-1,54
 891 717 891 717 929 685.5 c 128,-1,55
 967 654 967 654 996 613 c 128,-1,56
 1025 572 1025 572 1041.5 521 c 128,-1,57
 1058 470 1058 470 1058 405 c 0,58,59
 1058 309 1058 309 1021.5 231 c 128,-1,60
 985 153 985 153 921 98 c 128,-1,61
 857 43 857 43 770.5 13.5 c 128,-1,62
 684 -16 684 -16 584 -16 c 0,0,1
EndSplineSet
Position2: "'cpsp' Capital Spacing lookup 0 subtable" dx=5 dy=0 dh=10 dv=0
EndChar

StartChar: T
Encoding: 84 84 55
Width: 1197
GlyphClass: 1
Flags: W
LayerCount: 2
Fore
SplineSet
711 0 m 1,0,-1
 486 0 l 1,1,-1
 486 1216 l 1,2,-1
 33 1216 l 1,3,-1
 33 1413 l 1,4,-1
 1164 1413 l 1,5,-1
 1164 1216 l 1,6,-1
 711 1216 l 1,7,-1
 711 0 l 1,0,-1
EndSplineSet
Position2: "'cpsp' Capital Spacing lookup 0 subtable" dx=5 dy=0 dh=10 dv=0
EndChar

StartChar: U
Encoding: 85 85 56
Width: 1372
GlyphClass: 1
Flags: W
LayerCount: 2
Fore
SplineSet
686 -20 m 0,0,1
 505 -20 505 -20 388.5 50 c 128,-1,2
 272 120 272 120 216 246 c 128,-1,3
 160 372 160 372 160 541 c 2,4,-1
 160 1413 l 1,5,-1
 385 1413 l 1,6,-1
 385 574 l 2,7,8
 385 319 385 319 505 241 c 0,9,10
 571 196 571 196 686 196 c 0,11,12
 797 196 797 196 863.5 238.5 c 128,-1,13
 930 281 930 281 959 365 c 128,-1,14
 988 449 988 449 988 574 c 2,15,-1
 988 1413 l 1,16,-1
 1212 1413 l 1,17,-1
 1212 551 l 2,18,19
 1212 286 1212 286 1082.5 133 c 128,-1,20
 953 -20 953 -20 686 -20 c 0,0,1
EndSplineSet
Position2: "'cpsp' Capital Spacing lookup 0 subtable" dx=5 dy=0 dh=10 dv=0
EndChar

StartChar: V
Encoding: 86 86 57
Width: 1337
GlyphClass: 1
Flags: W
LayerCount: 2
Fore
SplineSet
757 0 m 1,0,-1
 583 0 l 1,1,-1
 28 1413 l 1,2,-1
 273 1413 l 1,3,-1
 671 349 l 1,4,-1
 1067 1413 l 1,5,-1
 1309 1413 l 1,6,-1
 757 0 l 1,0,-1
EndSplineSet
Position2: "'cpsp' Capital Spacing lookup 0 subtable" dx=5 dy=0 dh=10 dv=0
EndChar

StartChar: W
Encoding: 87 87 58
Width: 1994
GlyphClass: 1
Flags: W
LayerCount: 2
Fore
SplineSet
1538 0 m 1,0,-1
 1315 0 l 1,1,-1
 998 1057 l 1,2,-1
 679 0 l 1,3,-1
 456 0 l 1,4,-1
 40 1413 l 1,5,-1
 272 1413 l 1,6,-1
 584 317 l 1,7,-1
 909 1413 l 1,8,-1
 1084 1413 l 1,9,-1
 1410 317 l 1,10,-1
 1721 1413 l 1,11,-1
 1954 1413 l 1,12,-1
 1538 0 l 1,0,-1
EndSplineSet
Position2: "'cpsp' Capital Spacing lookup 0 subtable" dx=5 dy=0 dh=10 dv=0
EndChar

StartChar: X
Encoding: 88 88 59
Width: 1317
GlyphClass: 1
Flags: W
LayerCount: 2
Fore
SplineSet
1278 0 m 1,0,-1
 1012 0 l 1,1,-1
 657 549 l 1,2,-1
 307 0 l 1,3,-1
 39 0 l 1,4,-1
 511 707 l 1,5,-1
 41 1413 l 1,6,-1
 309 1413 l 1,7,-1
 659 856 l 1,8,-1
 1010 1413 l 1,9,-1
 1276 1413 l 1,10,-1
 807 707 l 1,11,-1
 1278 0 l 1,0,-1
EndSplineSet
Position2: "'cpsp' Capital Spacing lookup 0 subtable" dx=5 dy=0 dh=10 dv=0
EndChar

StartChar: Y
Encoding: 89 89 60
Width: 1318
GlyphClass: 1
Flags: W
LayerCount: 2
Fore
SplineSet
775 0 m 1,0,-1
 545 0 l 1,1,-1
 545 551 l 1,2,-1
 15 1413 l 1,3,-1
 284 1413 l 1,4,-1
 657 770 l 1,5,-1
 1033 1413 l 1,6,-1
 1303 1413 l 1,7,-1
 775 551 l 1,8,-1
 775 0 l 1,0,-1
EndSplineSet
Position2: "'cpsp' Capital Spacing lookup 0 subtable" dx=5 dy=0 dh=10 dv=0
EndChar

StartChar: Z
Encoding: 90 90 61
Width: 1272
GlyphClass: 1
Flags: W
LayerCount: 2
Fore
SplineSet
1191 0 m 1,0,-1
 68 0 l 1,1,-1
 68 160 l 1,2,-1
 890 1210 l 1,3,-1
 113 1210 l 1,4,-1
 113 1413 l 1,5,-1
 1191 1413 l 1,6,-1
 1191 1246 l 1,7,-1
 373 203 l 1,8,-1
 1191 203 l 1,9,-1
 1191 0 l 1,0,-1
EndSplineSet
Position2: "'cpsp' Capital Spacing lookup 0 subtable" dx=5 dy=0 dh=10 dv=0
EndChar

StartChar: bracketleft
Encoding: 91 91 62
Width: 638
GlyphClass: 1
Flags: W
LayerCount: 2
Fore
SplineSet
595 -142 m 1,0,-1
 185 -142 l 1,1,-1
 185 1551 l 1,2,-1
 595 1551 l 1,3,-1
 595 1412 l 1,4,-1
 359 1412 l 1,5,-1
 359 0 l 1,6,-1
 595 0 l 1,7,-1
 595 -142 l 1,0,-1
EndSplineSet
EndChar

StartChar: backslash
Encoding: 92 92 63
Width: 932
GlyphClass: 1
Flags: W
LayerCount: 2
Fore
SplineSet
954 -430 m 1,0,-1
 750 -430 l 1,1,-1
 -22 1516 l 1,2,-1
 182 1516 l 1,3,-1
 954 -430 l 1,0,-1
EndSplineSet
EndChar

StartChar: bracketright
Encoding: 93 93 64
Width: 638
GlyphClass: 1
Flags: W
LayerCount: 2
Fore
SplineSet
454 -142 m 1,0,-1
 44 -142 l 1,1,-1
 44 0 l 1,2,-1
 279 0 l 1,3,-1
 279 1412 l 1,4,-1
 44 1412 l 1,5,-1
 44 1551 l 1,6,-1
 454 1551 l 1,7,-1
 454 -142 l 1,0,-1
EndSplineSet
EndChar

StartChar: asciicircum
Encoding: 94 94 65
Width: 979
GlyphClass: 1
Flags: W
LayerCount: 2
Fore
SplineSet
897 816 m 1,0,-1
 681 816 l 1,1,-1
 488 1127 l 1,2,-1
 298 816 l 1,3,-1
 82 816 l 1,4,-1
 488 1476 l 1,5,-1
 897 816 l 1,0,-1
EndSplineSet
EndChar

StartChar: underscore
Encoding: 95 95 66
Width: 1244
GlyphClass: 1
Flags: W
LayerCount: 2
Fore
SplineSet
1036 -162 m 1,0,-1
 208 -162 l 1,1,-1
 208 0 l 1,2,-1
 1036 0 l 1,3,-1
 1036 -162 l 1,0,-1
EndSplineSet
EndChar

StartChar: grave
Encoding: 96 96 67
Width: 534
GlyphClass: 1
Flags: W
LayerCount: 2
Fore
SplineSet
489 1110 m 1,0,-1
 319 1110 l 1,1,-1
 27 1413 l 1,2,-1
 266 1413 l 1,3,-1
 489 1110 l 1,0,-1
EndSplineSet
EndChar

StartChar: a
Encoding: 97 97 68
Width: 1068
GlyphClass: 1
Flags: W
LayerCount: 2
Fore
SplineSet
425 -20 m 0,0,1
 324 -20 324 -20 240.5 18 c 128,-1,2
 157 56 157 56 106 129 c 128,-1,3
 55 202 55 202 55 309 c 0,4,5
 55 465 55 465 170.5 537 c 128,-1,6
 286 609 286 609 486 609 c 2,7,-1
 743 609 l 1,8,9
 743 725 743 725 690.5 797 c 128,-1,10
 638 869 638 869 523 869 c 0,11,12
 431 869 431 869 367 826 c 128,-1,13
 303 783 303 783 265 718 c 1,14,-1
 102 846 l 1,15,16
 181 952 181 952 282.5 1004 c 128,-1,17
 384 1056 384 1056 516 1056 c 0,18,19
 656 1056 656 1056 752 1002 c 128,-1,20
 848 948 848 948 897 852.5 c 128,-1,21
 946 757 946 757 946 632 c 2,22,-1
 946 0 l 1,23,-1
 769 0 l 1,24,-1
 756 159 l 1,25,26
 644 -20 644 -20 425 -20 c 0,0,1
451 161 m 0,27,28
 536 161 536 161 601.5 204 c 128,-1,29
 667 247 667 247 704 313.5 c 128,-1,30
 741 380 741 380 743 453 c 1,31,-1
 498 453 l 2,32,33
 387 453 387 453 331 410.5 c 128,-1,34
 275 368 275 368 275 301 c 0,35,36
 275 233 275 233 325.5 197 c 128,-1,37
 376 161 376 161 451 161 c 0,27,28
EndSplineSet
Substitution2: "Single Substitution lookup 3 subtable" ordfeminine
Substitution2: "Single Substitution lookup 2 subtable" ordfeminine
EndChar

StartChar: b
Encoding: 98 98 69
Width: 1180
GlyphClass: 1
Flags: W
LayerCount: 2
Fore
SplineSet
681 -20 m 0,0,1
 592 -20 592 -20 513.5 12.5 c 128,-1,2
 435 45 435 45 380 112 c 1,3,-1
 380 0 l 1,4,-1
 161 0 l 1,5,-1
 161 1412 l 1,6,-1
 380 1412 l 1,7,-1
 380 928 l 1,8,9
 434 996 434 996 512 1028 c 128,-1,10
 590 1060 590 1060 678 1060 c 0,11,12
 819 1060 819 1060 916 985.5 c 128,-1,13
 1013 911 1013 911 1063 788 c 128,-1,14
 1113 665 1113 665 1113 520 c 0,15,16
 1113 380 1113 380 1064 256 c 128,-1,17
 1015 132 1015 132 914 54 c 0,18,19
 816 -20 816 -20 681 -20 c 0,0,1
629 176 m 0,20,21
 720 176 720 176 779.5 221.5 c 128,-1,22
 839 267 839 267 868 345 c 128,-1,23
 897 423 897 423 897 520 c 0,24,25
 897 612 897 612 869.5 691 c 128,-1,26
 842 770 842 770 783 818.5 c 128,-1,27
 724 867 724 867 629 867 c 0,28,29
 538 867 538 867 478.5 820.5 c 128,-1,30
 419 774 419 774 390 695 c 128,-1,31
 361 616 361 616 361 520 c 0,32,33
 361 427 361 427 388.5 348.5 c 128,-1,34
 416 270 416 270 475 223 c 128,-1,35
 534 176 534 176 629 176 c 0,20,21
EndSplineSet
EndChar

StartChar: c
Encoding: 99 99 70
Width: 1020
GlyphClass: 1
Flags: W
LayerCount: 2
Fore
SplineSet
553 -20 m 0,0,1
 434 -20 434 -20 343 24 c 128,-1,2
 252 68 252 68 191.5 143.5 c 128,-1,3
 131 219 131 219 101 315.5 c 128,-1,4
 71 412 71 412 71 518 c 0,5,6
 71 654 71 654 123 777 c 128,-1,7
 175 900 175 900 288 981 c 0,8,9
 396 1056 396 1056 551 1056 c 256,10,11
 706 1056 706 1056 816.5 977 c 128,-1,12
 927 898 927 898 982 769 c 1,13,-1
 771 683 l 1,14,15
 747 769 747 769 687 813.5 c 128,-1,16
 627 858 627 858 547 858 c 0,17,18
 457 858 457 858 399.5 810 c 128,-1,19
 342 762 342 762 315.5 684.5 c 128,-1,20
 289 607 289 607 289 518 c 0,21,22
 289 428 289 428 315 350 c 128,-1,23
 341 272 341 272 397.5 224.5 c 128,-1,24
 454 177 454 177 542 177 c 256,25,26
 630 177 630 177 689 224.5 c 128,-1,27
 748 272 748 272 771 352 c 1,28,-1
 971 273 l 1,29,30
 923 136 923 136 814 58 c 128,-1,31
 705 -20 705 -20 553 -20 c 0,0,1
EndSplineSet
AlternateSubs2: "'salt' Stylistic Alternatives lookup 15 subtable" c.001
Substitution2: "'aalt' Access All Alternates lookup 0 subtable" c.001
EndChar

StartChar: d
Encoding: 100 100 71
Width: 1177
GlyphClass: 1
Flags: W
LayerCount: 2
Fore
SplineSet
511 -20 m 0,0,1
 370 -20 370 -20 273.5 54 c 128,-1,2
 177 128 177 128 127 251 c 128,-1,3
 77 374 77 374 77 520 c 0,4,5
 77 660 77 660 126 784 c 128,-1,6
 175 908 175 908 276 987 c 0,7,8
 374 1060 374 1060 508 1060 c 0,9,10
 597 1060 597 1060 675.5 1027.5 c 128,-1,11
 754 995 754 995 809 928 c 1,12,-1
 809 1413 l 1,13,-1
 1027 1413 l 1,14,-1
 1027 0 l 1,15,-1
 825 0 l 1,16,-1
 816 119 l 1,17,18
 761 48 761 48 682 14 c 128,-1,19
 603 -20 603 -20 511 -20 c 0,0,1
562 177 m 0,20,21
 695 177 695 177 761 271.5 c 128,-1,22
 827 366 827 366 827 520 c 0,23,24
 827 672 827 672 760.5 768.5 c 128,-1,25
 694 865 694 865 562 865 c 0,26,27
 472 865 472 865 412.5 819.5 c 128,-1,28
 353 774 353 774 324 695.5 c 128,-1,29
 295 617 295 617 295 520 c 0,30,31
 295 368 295 368 362.5 272.5 c 128,-1,32
 430 177 430 177 562 177 c 0,20,21
EndSplineSet
EndChar

StartChar: e
Encoding: 101 101 72
Width: 1094
GlyphClass: 1
Flags: W
LayerCount: 2
Fore
SplineSet
572 -12 m 0,0,1
 406 -12 406 -12 294 60.5 c 128,-1,2
 182 133 182 133 126 252.5 c 128,-1,3
 70 372 70 372 70 514 c 0,4,5
 70 616 70 616 99 712 c 128,-1,6
 128 808 128 808 188 885 c 128,-1,7
 248 962 248 962 339 1007 c 128,-1,8
 430 1052 430 1052 553 1052 c 0,9,10
 727 1052 727 1052 833 977.5 c 128,-1,11
 939 903 939 903 984 783 c 128,-1,12
 1029 663 1029 663 1029 515 c 0,13,14
 1029 482 1029 482 1021 449 c 1,15,-1
 305 449 l 1,16,17
 311 372 311 372 341.5 313 c 128,-1,18
 372 254 372 254 429 219.5 c 128,-1,19
 486 185 486 185 570 185 c 0,20,21
 666 185 666 185 727.5 209 c 128,-1,22
 789 233 789 233 840 289 c 1,23,-1
 994 154 l 1,24,25
 911 70 911 70 809.5 29 c 128,-1,26
 708 -12 708 -12 572 -12 c 0,0,1
811 608 m 1,27,28
 804 729 804 729 742 799 c 128,-1,29
 680 869 680 869 553 869 c 0,30,31
 475 869 475 869 423 835 c 128,-1,32
 371 801 371 801 342 742.5 c 128,-1,33
 313 684 313 684 305 608 c 1,34,-1
 811 608 l 1,27,28
EndSplineSet
EndChar

StartChar: f
Encoding: 102 102 73
Width: 702
GlyphClass: 1
Flags: W
LayerCount: 2
Fore
SplineSet
434 0 m 1,0,-1
 214 0 l 1,1,-1
 214 860 l 1,2,-1
 25 860 l 1,3,-1
 25 1037 l 1,4,-1
 216 1037 l 1,5,-1
 216 1170 l 2,6,7
 216 1256 216 1256 259.5 1314.5 c 128,-1,8
 303 1373 303 1373 373.5 1403.5 c 128,-1,9
 444 1434 444 1434 527 1434 c 0,10,11
 619 1434 619 1434 706 1394 c 1,12,-1
 637 1223 l 1,13,14
 586 1245 586 1245 543 1245 c 0,15,16
 496 1245 496 1245 465 1221 c 128,-1,17
 434 1197 434 1197 434 1144 c 2,18,-1
 434 1039 l 1,19,-1
 694 1039 l 1,20,-1
 694 860 l 1,21,-1
 434 860 l 1,22,-1
 434 0 l 1,0,-1
EndSplineSet
EndChar

StartChar: g
Encoding: 103 103 74
Width: 1057
GlyphClass: 1
Flags: W
LayerCount: 2
Fore
SplineSet
557 -468 m 0,0,1
 411 -468 411 -468 307 -420 c 128,-1,2
 203 -372 203 -372 148.5 -290.5 c 128,-1,3
 94 -209 94 -209 94 -109 c 0,4,5
 94 -90 94 -90 98 -67 c 1,6,-1
 215 47 l 1,7,8
 107 117 107 117 107 252 c 0,9,10
 107 374 107 374 194 451 c 1,11,12
 111 551 111 551 111 686 c 0,13,14
 111 799 111 799 167.5 881.5 c 128,-1,15
 224 964 224 964 316.5 1008 c 128,-1,16
 409 1052 409 1052 518 1052 c 0,17,18
 659 1052 659 1052 766 984 c 1,19,-1
 928 1113 l 1,20,-1
 1034 977 l 1,21,-1
 883 856 l 1,22,23
 924 777 924 777 924 681 c 0,24,25
 924 566 924 566 868.5 483.5 c 128,-1,26
 813 401 813 401 720.5 357 c 128,-1,27
 628 313 628 313 520 313 c 0,28,29
 415 313 415 313 326 352 c 1,30,31
 292 328 292 328 292 290 c 0,32,33
 292 249 292 249 325 226 c 128,-1,34
 358 203 358 203 411 192.5 c 128,-1,35
 464 182 464 182 576 168 c 0,36,37
 714 149 714 149 797.5 124 c 128,-1,38
 881 99 881 99 937.5 37 c 128,-1,39
 994 -25 994 -25 994 -134 c 0,40,41
 994 -246 994 -246 935.5 -320.5 c 128,-1,42
 877 -395 877 -395 777.5 -431.5 c 128,-1,43
 678 -468 678 -468 557 -468 c 0,0,1
521 490 m 0,44,45
 615 490 615 490 663 546.5 c 128,-1,46
 711 603 711 603 711 685 c 0,47,48
 711 768 711 768 661.5 826.5 c 128,-1,49
 612 885 612 885 521 885 c 0,50,51
 433 885 433 885 382.5 826 c 128,-1,52
 332 767 332 767 332 685 c 0,53,54
 332 602 332 602 380 546 c 128,-1,55
 428 490 428 490 521 490 c 0,44,45
563 -295 m 0,56,57
 661 -295 661 -295 727 -261.5 c 128,-1,58
 793 -228 793 -228 793 -162 c 0,59,60
 793 -120 793 -120 764.5 -96.5 c 128,-1,61
 736 -73 736 -73 688 -63 c 0,62,63
 633 -52 633 -52 516 -36 c 1,64,-1
 515 -36 l 1,65,66
 434 -29 434 -29 350 -8 c 1,67,-1
 278 -115 l 1,68,69
 287 -200 287 -200 365.5 -247.5 c 128,-1,70
 444 -295 444 -295 563 -295 c 0,56,57
EndSplineSet
Substitution2: "'ss01' Style Set 1 lookup 16 subtable" g.ss01
AlternateSubs2: "'salt' Stylistic Alternatives lookup 15 subtable" g.ss01
Substitution2: "'aalt' Access All Alternates lookup 0 subtable" g.ss01
EndChar

StartChar: h
Encoding: 104 104 75
Width: 1172
GlyphClass: 1
Flags: W
LayerCount: 2
Fore
SplineSet
1054 0 m 1,0,-1
 836 0 l 1,1,-1
 836 605 l 2,2,3
 836 718 836 718 795.5 787 c 128,-1,4
 755 856 755 856 654 856 c 0,5,6
 574 856 574 856 511.5 815 c 128,-1,7
 449 774 449 774 413 709 c 128,-1,8
 377 644 377 644 377 574 c 2,9,-1
 377 0 l 1,10,-1
 161 0 l 1,11,-1
 161 1413 l 1,12,-1
 377 1413 l 1,13,-1
 377 908 l 1,14,15
 438 984 438 984 520 1020 c 128,-1,16
 602 1056 602 1056 685 1056 c 0,17,18
 812 1056 812 1056 894 996.5 c 128,-1,19
 976 937 976 937 1015 840 c 128,-1,20
 1054 743 1054 743 1054 629 c 2,21,-1
 1054 0 l 1,0,-1
EndSplineSet
EndChar

StartChar: i
Encoding: 105 105 76
Width: 511
GlyphClass: 1
Flags: W
LayerCount: 2
Fore
SplineSet
359 0 m 1,0,-1
 153 0 l 1,1,-1
 153 1039 l 1,2,-1
 359 1039 l 1,3,-1
 359 0 l 1,0,-1
359 1198 m 1,4,-1
 153 1198 l 1,5,-1
 153 1413 l 1,6,-1
 359 1413 l 1,7,-1
 359 1198 l 1,4,-1
EndSplineSet
Substitution2: "Single Substitution lookup 2 subtable" dotlessi
Substitution2: "'aalt' Access All Alternates lookup 0 subtable" i.loclTRK
EndChar

StartChar: j
Encoding: 106 106 77
Width: 531
GlyphClass: 1
Flags: W
LayerCount: 2
Fore
SplineSet
373 1198 m 1,0,-1
 162 1198 l 1,1,-1
 162 1413 l 1,2,-1
 373 1413 l 1,3,-1
 373 1198 l 1,0,-1
83 -438 m 0,4,5
 7 -438 7 -438 -81 -406 c 1,6,-1
 -31 -227 l 1,7,8
 31 -242 31 -242 80 -242 c 0,9,10
 126 -242 126 -242 144 -215 c 128,-1,11
 162 -188 162 -188 162 -131 c 2,12,-1
 162 1039 l 1,13,-1
 373 1039 l 1,14,-1
 373 -117 l 2,15,16
 373 -261 373 -261 300 -349.5 c 128,-1,17
 227 -438 227 -438 83 -438 c 0,4,5
EndSplineSet
Substitution2: "Single Substitution lookup 2 subtable" uni0237
EndChar

StartChar: k
Encoding: 107 107 78
Width: 1124
GlyphClass: 1
Flags: W
LayerCount: 2
Fore
SplineSet
158 1413 m 1,0,-1
 373 1413 l 1,1,-1
 373 572 l 1,2,-1
 787 1039 l 1,3,-1
 1074 1039 l 1,4,-1
 701 643 l 1,5,-1
 1125 0 l 1,6,-1
 861 0 l 1,7,-1
 552 502 l 1,8,-1
 373 304 l 1,9,-1
 373 0 l 1,10,-1
 159 0 l 1,11,-1
 158 1413 l 1,0,-1
EndSplineSet
EndChar

StartChar: l
Encoding: 108 108 79
Width: 561
GlyphClass: 1
Flags: W
LayerCount: 2
Fore
SplineSet
355 -20 m 0,0,1
 248 -20 248 -20 200.5 34 c 128,-1,2
 153 88 153 88 153 200 c 2,3,-1
 153 1413 l 1,4,-1
 368 1413 l 1,5,-1
 368 235 l 2,6,7
 368 211 368 211 386 191 c 128,-1,8
 404 171 404 171 446 171 c 0,9,10
 475 171 475 171 521 178 c 1,11,-1
 521 0 l 1,12,13
 427 -20 427 -20 355 -20 c 0,0,1
EndSplineSet
EndChar

StartChar: m
Encoding: 109 109 80
Width: 1760
GlyphClass: 1
Flags: W
LayerCount: 2
Fore
SplineSet
1642 0 m 1,0,-1
 1424 0 l 1,1,-1
 1424 605 l 2,2,3
 1424 862 1424 862 1239 862 c 0,4,5
 1164 862 1164 862 1112 823 c 128,-1,6
 1060 784 1060 784 1033.5 720 c 128,-1,7
 1007 656 1007 656 1007 583 c 2,8,-1
 1007 0 l 1,9,-1
 789 0 l 1,10,-1
 789 609 l 2,11,12
 789 723 789 723 748.5 792.5 c 128,-1,13
 708 862 708 862 607 862 c 0,14,15
 532 862 532 862 480 823 c 128,-1,16
 428 784 428 784 401.5 720 c 128,-1,17
 375 656 375 656 375 583 c 2,18,-1
 375 0 l 1,19,-1
 159 0 l 1,20,-1
 159 1039 l 1,21,-1
 375 1039 l 1,22,-1
 375 914 l 1,23,24
 420 987 420 987 490.5 1022.5 c 128,-1,25
 561 1058 561 1058 638 1058 c 0,26,27
 845 1058 845 1058 938 889 c 1,28,29
 997 975 997 975 1085 1015.5 c 128,-1,30
 1173 1056 1173 1056 1270 1056 c 0,31,32
 1398 1056 1398 1056 1480 996.5 c 128,-1,33
 1562 937 1562 937 1602 839 c 128,-1,34
 1642 741 1642 741 1642 626 c 2,35,-1
 1642 0 l 1,0,-1
EndSplineSet
EndChar

StartChar: n
Encoding: 110 110 81
Width: 1170
GlyphClass: 1
Flags: W
LayerCount: 2
Fore
SplineSet
1051 0 m 1,0,-1
 834 0 l 1,1,-1
 834 605 l 2,2,3
 834 718 834 718 793.5 786.5 c 128,-1,4
 753 855 753 855 651 855 c 0,5,6
 572 855 572 855 510 814.5 c 128,-1,7
 448 774 448 774 412 711 c 128,-1,8
 376 648 376 648 376 580 c 2,9,-1
 376 0 l 1,10,-1
 159 0 l 1,11,-1
 159 1039 l 1,12,-1
 376 1039 l 1,13,-1
 376 910 l 1,14,15
 435 985 435 985 516.5 1020.5 c 128,-1,16
 598 1056 598 1056 680 1056 c 0,17,18
 808 1056 808 1056 890.5 996 c 128,-1,19
 973 936 973 936 1012 838.5 c 128,-1,20
 1051 741 1051 741 1051 626 c 2,21,-1
 1051 0 l 1,0,-1
EndSplineSet
EndChar

StartChar: o
Encoding: 111 111 82
Width: 1146
GlyphClass: 1
Flags: W
LayerCount: 2
Fore
SplineSet
575 -20 m 0,0,1
 417 -20 417 -20 302.5 54.5 c 128,-1,2
 188 129 188 129 126 251 c 128,-1,3
 64 373 64 373 64 516 c 0,4,5
 64 656 64 656 125.5 779.5 c 128,-1,6
 187 903 187 903 309 980 c 0,7,8
 425 1052 425 1052 575 1052 c 0,9,10
 733 1052 733 1052 848 977 c 128,-1,11
 963 902 963 902 1024.5 780 c 128,-1,12
 1086 658 1086 658 1086 516 c 0,13,14
 1086 373 1086 373 1024 250 c 128,-1,15
 962 127 962 127 841 52 c 0,16,17
 724 -20 724 -20 575 -20 c 0,0,1
575 166 m 0,18,19
 674 166 674 166 737 213 c 128,-1,20
 800 260 800 260 829.5 339 c 128,-1,21
 859 418 859 418 859 516 c 0,22,23
 859 611 859 611 830 691 c 128,-1,24
 801 771 801 771 738 818 c 128,-1,25
 675 865 675 865 575 865 c 0,26,27
 476 865 476 865 414 818.5 c 128,-1,28
 352 772 352 772 321.5 693 c 128,-1,29
 291 614 291 614 291 516 c 0,30,31
 291 422 291 422 320 341.5 c 128,-1,32
 349 261 349 261 411.5 213.5 c 128,-1,33
 474 166 474 166 575 166 c 0,18,19
EndSplineSet
Substitution2: "Single Substitution lookup 3 subtable" ordmasculine
Substitution2: "Single Substitution lookup 2 subtable" ordmasculine
EndChar

StartChar: p
Encoding: 112 112 83
Width: 1177
GlyphClass: 1
Flags: W
LayerCount: 2
Fore
SplineSet
378 -438 m 1,0,-1
 161 -438 l 1,1,-1
 161 1039 l 1,2,-1
 378 1039 l 1,3,-1
 378 928 l 1,4,5
 431 995 431 995 508 1027.5 c 128,-1,6
 585 1060 585 1060 676 1060 c 0,7,8
 817 1060 817 1060 913.5 985.5 c 128,-1,9
 1010 911 1010 911 1060 788.5 c 128,-1,10
 1110 666 1110 666 1110 520 c 0,11,12
 1110 380 1110 380 1061.5 256 c 128,-1,13
 1013 132 1013 132 912 54 c 0,14,15
 814 -20 814 -20 679 -20 c 0,16,17
 590 -20 590 -20 511.5 12.5 c 128,-1,18
 433 45 433 45 378 112 c 1,19,-1
 378 -438 l 1,0,-1
624 176 m 0,20,21
 758 176 758 176 825.5 272 c 128,-1,22
 893 368 893 368 893 520 c 0,23,24
 893 611 893 611 866 690.5 c 128,-1,25
 839 770 839 770 780 819 c 128,-1,26
 721 868 721 868 624 868 c 0,27,28
 534 868 534 868 474.5 821.5 c 128,-1,29
 415 775 415 775 386.5 695.5 c 128,-1,30
 358 616 358 616 358 520 c 0,31,32
 358 428 358 428 385.5 349 c 128,-1,33
 413 270 413 270 472 223 c 128,-1,34
 531 176 531 176 624 176 c 0,20,21
EndSplineSet
EndChar

StartChar: q
Encoding: 113 113 84
Width: 1176
GlyphClass: 1
Flags: W
LayerCount: 2
Fore
SplineSet
1025 -438 m 1,0,-1
 809 -438 l 1,1,-1
 809 112 l 1,2,3
 756 45 756 45 679 12.5 c 128,-1,4
 602 -20 602 -20 511 -20 c 0,5,6
 370 -20 370 -20 273.5 54 c 128,-1,7
 177 128 177 128 127 251 c 128,-1,8
 77 374 77 374 77 520 c 0,9,10
 77 660 77 660 126 784 c 128,-1,11
 175 908 175 908 276 987 c 0,12,13
 374 1060 374 1060 509 1060 c 0,14,15
 596 1060 596 1060 675 1028 c 128,-1,16
 754 996 754 996 809 928 c 1,17,-1
 809 1039 l 1,18,-1
 1025 1039 l 1,19,-1
 1025 -438 l 1,0,-1
562 176 m 0,20,21
 695 176 695 176 761 271 c 128,-1,22
 827 366 827 366 827 520 c 0,23,24
 827 672 827 672 760.5 769 c 128,-1,25
 694 866 694 866 562 866 c 0,26,27
 472 866 472 866 412.5 820 c 128,-1,28
 353 774 353 774 324 695.5 c 128,-1,29
 295 617 295 617 295 520 c 0,30,31
 295 426 295 426 323 347.5 c 128,-1,32
 351 269 351 269 410 222.5 c 128,-1,33
 469 176 469 176 562 176 c 0,20,21
EndSplineSet
EndChar

StartChar: r
Encoding: 114 114 85
Width: 827
GlyphClass: 1
Flags: W
LayerCount: 2
Fore
SplineSet
367 0 m 1,0,-1
 159 0 l 1,1,-1
 159 1039 l 1,2,-1
 370 1039 l 1,3,-1
 370 863 l 1,4,5
 404 961 404 961 480 1007.5 c 128,-1,6
 556 1054 556 1054 633 1054 c 0,7,8
 683 1054 683 1054 739.5 1039.5 c 128,-1,9
 796 1025 796 1025 839 994 c 1,10,-1
 743 815 l 1,11,12
 698 855 698 855 623 855 c 0,13,14
 543 855 543 855 485 802.5 c 128,-1,15
 427 750 427 750 397 663.5 c 128,-1,16
 367 577 367 577 367 473 c 2,17,-1
 367 0 l 1,0,-1
EndSplineSet
EndChar

StartChar: s
Encoding: 115 115 86
Width: 916
GlyphClass: 1
Flags: W
LayerCount: 2
Fore
SplineSet
437 -20 m 0,0,1
 313 -20 313 -20 201.5 59.5 c 128,-1,2
 90 139 90 139 54 258 c 1,3,4
 99 279 99 279 143 301 c 0,5,6
 186 323 186 323 229 344 c 1,7,8
 289 160 289 160 458 160 c 0,9,10
 526 160 526 160 562 187 c 128,-1,11
 598 214 598 214 612.5 241 c 128,-1,12
 627 268 627 268 627 300 c 256,13,14
 627 332 627 332 603.5 359 c 128,-1,15
 580 386 580 386 532.5 405.5 c 128,-1,16
 485 425 485 425 429 441 c 256,17,18
 373 457 373 457 316.5 475.5 c 128,-1,19
 260 494 260 494 214 526 c 0,20,21
 98 607 98 607 98 735 c 0,22,23
 98 892 98 892 208 977 c 0,24,25
 310 1055 310 1055 446 1055 c 256,26,27
 582 1055 582 1055 671.5 1001.5 c 128,-1,28
 761 948 761 948 819 844 c 1,29,-1
 665 745 l 1,30,31
 636 801 636 801 568 848 c 0,32,33
 520 881 520 881 443 881 c 0,34,35
 354 881 354 881 316 824 c 0,36,37
 303 805 303 805 303 782 c 0,38,39
 303 749 303 749 341 718 c 0,40,41
 376 690 376 690 445 671 c 0,42,43
 513 651 513 651 542 642 c 0,44,45
 599 623 599 623 684 581 c 0,46,47
 840 503 840 503 840 321 c 0,48,49
 840 151 840 151 704 54 c 0,50,51
 602 -20 602 -20 437 -20 c 0,0,1
EndSplineSet
Substitution2: "'hist' Historical Forms lookup 20 subtable" longs
Substitution2: "'aalt' Access All Alternates lookup 0 subtable" longs
EndChar

StartChar: t
Encoding: 116 116 87
Width: 745
GlyphClass: 1
Flags: W
LayerCount: 2
Fore
SplineSet
497 -20 m 0,0,1
 396 -20 396 -20 330 19 c 128,-1,2
 264 58 264 58 231.5 127 c 128,-1,3
 199 196 199 196 199 287 c 2,4,-1
 199 860 l 1,5,-1
 32 860 l 1,6,-1
 32 1039 l 1,7,-1
 202 1039 l 1,8,-1
 202 1256 l 1,9,-1
 406 1403 l 1,10,-1
 406 1039 l 1,11,-1
 675 1039 l 1,12,-1
 675 860 l 1,13,-1
 406 860 l 1,14,-1
 406 310 l 2,15,16
 406 233 406 233 442.5 199.5 c 128,-1,17
 479 166 479 166 535 166 c 0,18,19
 597 166 597 166 667 201 c 1,20,-1
 667 7 l 1,21,22
 639 -4 639 -4 593 -12 c 128,-1,23
 547 -20 547 -20 497 -20 c 0,0,1
EndSplineSet
EndChar

StartChar: u
Encoding: 117 117 88
Width: 1168
GlyphClass: 1
Flags: W
LayerCount: 2
Fore
SplineSet
501 -23 m 0,0,1
 373 -23 373 -23 290 39.5 c 128,-1,2
 207 102 207 102 167.5 204 c 128,-1,3
 128 306 128 306 128 427 c 2,4,-1
 128 1039 l 1,5,-1
 345 1039 l 1,6,-1
 345 429 l 2,7,8
 345 314 345 314 388 245.5 c 128,-1,9
 431 177 431 177 543 177 c 0,10,11
 616 177 616 177 675 210 c 128,-1,12
 734 243 734 243 769.5 314.5 c 128,-1,13
 805 386 805 386 805 501 c 2,14,-1
 805 1039 l 1,15,-1
 1022 1039 l 1,16,-1
 1022 0 l 1,17,-1
 805 0 l 1,18,-1
 805 133 l 1,19,20
 757 64 757 64 677.5 20.5 c 128,-1,21
 598 -23 598 -23 501 -23 c 0,0,1
EndSplineSet
EndChar

StartChar: v
Encoding: 118 118 89
Width: 1022
GlyphClass: 1
Flags: W
LayerCount: 2
Fore
SplineSet
605 0 m 1,0,-1
 418 0 l 1,1,-1
 6 1039 l 1,2,-1
 250 1039 l 1,3,-1
 512 289 l 1,4,-1
 776 1039 l 1,5,-1
 1017 1039 l 1,6,-1
 605 0 l 1,0,-1
EndSplineSet
EndChar

StartChar: w
Encoding: 119 119 90
Width: 1508
GlyphClass: 1
Flags: W
LayerCount: 2
Fore
SplineSet
538 -3 m 1,0,-1
 334 -3 l 1,1,-1
 24 1039 l 1,2,-1
 261 1039 l 1,3,-1
 449 331 l 1,4,-1
 658 1039 l 1,5,-1
 852 1039 l 1,6,-1
 1061 333 l 1,7,-1
 1250 1039 l 1,8,-1
 1488 1039 l 1,9,-1
 1175 0 l 1,10,-1
 971 0 l 1,11,-1
 756 732 l 1,12,-1
 538 -3 l 1,0,-1
EndSplineSet
EndChar

StartChar: x
Encoding: 120 120 91
Width: 1034
GlyphClass: 1
Flags: W
LayerCount: 2
Fore
SplineSet
1013 0 m 1,0,-1
 742 0 l 1,1,-1
 518 363 l 1,2,-1
 294 0 l 1,3,-1
 23 0 l 1,4,-1
 376 524 l 1,5,-1
 23 1039 l 1,6,-1
 294 1039 l 1,7,-1
 518 683 l 1,8,-1
 742 1039 l 1,9,-1
 1013 1039 l 1,10,-1
 659 524 l 1,11,-1
 1013 0 l 1,0,-1
EndSplineSet
EndChar

StartChar: y
Encoding: 121 121 92
Width: 1054
GlyphClass: 1
Flags: W
LayerCount: 2
Fore
SplineSet
465 -430 m 1,0,-1
 225 -430 l 1,1,-1
 412 33 l 1,2,-1
 7 1039 l 1,3,-1
 253 1039 l 1,4,-1
 527 286 l 1,5,-1
 803 1039 l 1,6,-1
 1048 1039 l 1,7,-1
 465 -430 l 1,0,-1
EndSplineSet
EndChar

StartChar: z
Encoding: 122 122 93
Width: 1014
GlyphClass: 1
Flags: W
LayerCount: 2
Fore
SplineSet
944 0 m 1,0,-1
 59 0 l 1,1,-1
 59 146 l 1,2,-1
 662 860 l 1,3,-1
 89 860 l 1,4,-1
 89 1039 l 1,5,-1
 944 1039 l 1,6,-1
 944 881 l 1,7,-1
 362 181 l 1,8,-1
 944 181 l 1,9,-1
 944 0 l 1,0,-1
EndSplineSet
EndChar

StartChar: braceleft
Encoding: 123 123 94
Width: 612
GlyphClass: 1
Flags: W
LayerCount: 2
Fore
SplineSet
478 -144 m 2,0,-1
 407 -144 l 2,1,2
 295 -144 295 -144 230 -47 c 0,3,4
 194 3 194 3 194 120 c 2,5,-1
 194 483 l 2,6,7
 194 523 194 523 160.5 547 c 128,-1,8
 127 571 127 571 63 594 c 1,9,-1
 63 740 l 1,10,11
 134 762 134 762 164 795.5 c 128,-1,12
 194 829 194 829 194 885 c 2,13,-1
 194 1311 l 2,14,15
 194 1437 194 1437 253 1496 c 128,-1,16
 312 1555 312 1555 429 1555 c 0,17,18
 517 1555 517 1555 553 1552 c 1,19,-1
 553 1412 l 1,20,21
 500 1423 500 1423 462 1423 c 0,22,23
 379 1423 379 1423 379 1384 c 2,24,-1
 379 871 l 2,25,26
 379 800 379 800 341.5 749.5 c 128,-1,27
 304 699 304 699 226 660 c 1,28,29
 379 597 379 597 379 487 c 2,30,-1
 379 125 l 2,31,32
 379 -10 379 -10 489 -10 c 0,33,34
 512 -10 512 -10 553 -1 c 1,35,-1
 553 -141 l 1,36,37
 499 -144 499 -144 478 -144 c 2,0,-1
EndSplineSet
EndChar

StartChar: bar
Encoding: 124 124 95
Width: 622
GlyphClass: 1
Flags: W
LayerCount: 2
Fore
SplineSet
390 -512 m 1,0,-1
 232 -512 l 1,1,-1
 232 1534 l 1,2,-1
 390 1534 l 1,3,-1
 390 -512 l 1,0,-1
EndSplineSet
EndChar

StartChar: braceright
Encoding: 125 125 96
Width: 612
GlyphClass: 1
Flags: W
LayerCount: 2
Fore
SplineSet
206 -144 m 2,0,-1
 135 -144 l 2,1,2
 113 -144 113 -144 59 -141 c 1,3,-1
 59 -1 l 1,4,5
 100 -10 100 -10 123 -10 c 0,6,7
 233 -10 233 -10 233 125 c 2,8,-1
 233 487 l 2,9,10
 233 594 233 594 387 660 c 1,11,12
 308 697 308 697 270.5 747.5 c 128,-1,13
 233 798 233 798 233 871 c 2,14,-1
 233 1380 l 2,15,16
 233 1423 233 1423 165 1423 c 0,17,18
 116 1423 116 1423 59 1412 c 1,19,-1
 59 1552 l 1,20,21
 95 1555 95 1555 184 1555 c 0,22,23
 300 1555 300 1555 359 1496 c 128,-1,24
 418 1437 418 1437 418 1311 c 2,25,-1
 418 885 l 2,26,27
 418 829 418 829 448 795.5 c 128,-1,28
 478 762 478 762 549 740 c 1,29,-1
 549 594 l 1,30,31
 485 571 485 571 451.5 547 c 128,-1,32
 418 523 418 523 418 483 c 2,33,-1
 418 120 l 2,34,35
 418 4 418 4 383 -48 c 0,36,37
 318 -144 318 -144 206 -144 c 2,0,-1
EndSplineSet
EndChar

StartChar: asciitilde
Encoding: 126 126 97
Width: 1158
GlyphClass: 1
Flags: W
LayerCount: 2
Fore
SplineSet
736 379 m 0,0,1
 667 379 667 379 618 399 c 128,-1,2
 569 419 569 419 512 456 c 0,3,4
 473 482 473 482 450.5 492.5 c 128,-1,5
 428 503 428 503 402 503 c 0,6,7
 359 503 359 503 345.5 480.5 c 128,-1,8
 332 458 332 458 332 414 c 2,9,-1
 332 406 l 1,10,-1
 184 406 l 1,11,12
 184 525 184 525 240.5 588 c 128,-1,13
 297 651 297 651 400 651 c 0,14,15
 484 651 484 651 537 630 c 128,-1,16
 590 609 590 609 645 572 c 0,17,18
 680 550 680 550 700 540.5 c 128,-1,19
 720 531 720 531 742 531 c 0,20,21
 789 531 789 531 804 557.5 c 128,-1,22
 819 584 819 584 819 645 c 1,23,-1
 975 645 l 1,24,25
 975 515 975 515 915 447 c 128,-1,26
 855 379 855 379 736 379 c 0,0,1
EndSplineSet
EndChar

StartChar: exclamdown
Encoding: 161 161 99
Width: 633
GlyphClass: 1
Flags: W
LayerCount: 2
Fore
SplineSet
438 757 m 1,0,-1
 194 757 l 1,1,-1
 194 999 l 1,2,-1
 438 999 l 1,3,-1
 438 757 l 1,0,-1
426 -435 m 1,4,-1
 206 -435 l 1,5,-1
 235 586 l 1,6,-1
 397 586 l 1,7,-1
 426 -435 l 1,4,-1
EndSplineSet
EndChar

StartChar: cent
Encoding: 162 162 100
Width: 1122
GlyphClass: 1
Flags: W
LayerCount: 2
Fore
SplineSet
668 -205 m 1,0,-1
 509 -205 l 1,1,-1
 509 -19 l 1,2,3
 382 3 382 3 298 77.5 c 128,-1,4
 214 152 214 152 172.5 262 c 128,-1,5
 131 372 131 372 131 498 c 0,6,7
 131 617 131 617 170.5 727.5 c 128,-1,8
 210 838 210 838 293.5 915 c 128,-1,9
 377 992 377 992 509 1015 c 1,10,-1
 509 1200 l 1,11,-1
 668 1200 l 1,12,-1
 668 1015 l 1,13,14
 901 981 901 981 1013 733 c 1,15,-1
 817 656 l 1,16,17
 767 840 767 840 591 840 c 0,18,19
 501 840 501 840 444.5 792 c 128,-1,20
 388 744 388 744 362 666 c 128,-1,21
 336 588 336 588 336 498 c 0,22,23
 336 410 336 410 361 331.5 c 128,-1,24
 386 253 386 253 441.5 204.5 c 128,-1,25
 497 156 497 156 591 156 c 0,26,27
 765 156 765 156 817 339 c 1,28,-1
 999 267 l 1,29,30
 907 17 907 17 668 -19 c 1,31,-1
 668 -205 l 1,0,-1
EndSplineSet
EndChar

StartChar: sterling
Encoding: 163 163 101
Width: 1213
GlyphClass: 1
Flags: W
LayerCount: 2
Fore
SplineSet
1178 0 m 1,0,-1
 145 0 l 1,1,-1
 145 179 l 1,2,3
 151 179 151 179 214 221 c 0,4,5
 391 344 391 344 391 471 c 0,6,7
 391 524 391 524 369 614 c 1,8,-1
 149 614 l 1,9,-1
 149 797 l 1,10,-1
 325 797 l 1,11,12
 324 797 324 797 313 832.5 c 128,-1,13
 302 868 302 868 293 920 c 128,-1,14
 284 972 284 972 284 1030 c 0,15,16
 284 1144 284 1144 333.5 1238 c 128,-1,17
 383 1332 383 1332 478 1387 c 128,-1,18
 573 1442 573 1442 703 1442 c 0,19,20
 798 1442 798 1442 877.5 1401.5 c 128,-1,21
 957 1361 957 1361 1012 1292.5 c 128,-1,22
 1067 1224 1067 1224 1098 1139 c 1,23,-1
 928 1076 l 1,24,25
 897 1162 897 1162 838.5 1211 c 128,-1,26
 780 1260 780 1260 703 1260 c 0,27,28
 591 1260 591 1260 528.5 1200 c 128,-1,29
 466 1140 466 1140 466 1027 c 0,30,31
 466 973 466 973 476 922 c 128,-1,32
 486 871 486 871 498 834 c 128,-1,33
 510 797 510 797 511 797 c 2,34,-1
 987 797 l 1,35,-1
 987 614 l 1,36,-1
 554 614 l 1,37,38
 569 533 569 533 569 475 c 0,39,40
 569 312 569 312 468 214 c 0,41,42
 440 186 440 186 432 182 c 1,43,-1
 1178 182 l 1,44,-1
 1178 0 l 1,0,-1
EndSplineSet
EndChar

StartChar: currency
Encoding: 164 164 102
Width: 1356
GlyphClass: 1
Flags: W
LayerCount: 2
Fore
SplineSet
1049 141 m 1,0,-1
 941 248 l 1,1,2
 815 164 815 164 677 164 c 0,3,4
 534 164 534 164 413 248 c 1,5,-1
 307 141 l 1,6,-1
 189 264 l 1,7,-1
 295 368 l 1,8,9
 253 427 253 427 232.5 494.5 c 128,-1,10
 212 562 212 562 212 630 c 0,11,12
 212 776 212 776 295 893 c 1,13,-1
 191 995 l 1,14,-1
 309 1119 l 1,15,-1
 415 1011 l 1,16,17
 476 1054 476 1054 544.5 1075 c 128,-1,18
 613 1096 613 1096 681 1096 c 0,19,20
 825 1096 825 1096 941 1013 c 1,21,-1
 1047 1117 l 1,22,-1
 1166 999 l 1,23,-1
 1061 895 l 1,24,25
 1103 836 1103 836 1123.5 768 c 128,-1,26
 1144 700 1144 700 1144 631 c 0,27,28
 1144 485 1144 485 1061 366 c 1,29,-1
 1166 264 l 1,30,-1
 1049 141 l 1,0,-1
677 331 m 0,31,32
 770 331 770 331 845 383 c 128,-1,33
 920 435 920 435 954 519 c 0,34,35
 976 574 976 574 976 632 c 0,36,37
 976 715 976 715 934.5 782.5 c 128,-1,38
 893 850 893 850 825 889 c 128,-1,39
 757 928 757 928 677 928 c 0,40,41
 590 928 590 928 514.5 879 c 128,-1,42
 439 830 439 830 401 741 c 0,43,44
 378 685 378 685 378 627 c 0,45,46
 378 536 378 536 422 469.5 c 128,-1,47
 466 403 466 403 535 367 c 128,-1,48
 604 331 604 331 677 331 c 0,31,32
EndSplineSet
EndChar

StartChar: yen
Encoding: 165 165 103
Width: 1318
GlyphClass: 1
Flags: W
LayerCount: 2
Fore
SplineSet
753 0 m 1,0,-1
 565 0 l 1,1,-1
 565 226 l 1,2,-1
 266 226 l 1,3,-1
 266 390 l 1,4,-1
 565 390 l 1,5,-1
 565 507 l 1,6,-1
 266 507 l 1,7,-1
 266 671 l 1,8,-1
 488 671 l 1,9,-1
 15 1413 l 1,10,-1
 239 1413 l 1,11,-1
 659 734 l 1,12,-1
 1079 1413 l 1,13,-1
 1303 1413 l 1,14,-1
 829 670 l 1,15,-1
 1053 670 l 1,16,-1
 1053 507 l 1,17,-1
 753 507 l 1,18,-1
 753 390 l 1,19,-1
 1053 390 l 1,20,-1
 1053 226 l 1,21,-1
 753 226 l 1,22,-1
 753 0 l 1,0,-1
EndSplineSet
EndChar

StartChar: brokenbar
Encoding: 166 166 104
Width: 635
GlyphClass: 1
Flags: W
LayerCount: 2
Fore
SplineSet
403 731 m 1,0,-1
 232 731 l 1,1,-1
 232 1475 l 1,2,-1
 403 1475 l 1,3,-1
 403 731 l 1,0,-1
403 -307 m 1,4,-1
 232 -307 l 1,5,-1
 232 420 l 1,6,-1
 403 420 l 1,7,-1
 403 -307 l 1,4,-1
EndSplineSet
EndChar

StartChar: section
Encoding: 167 167 105
Width: 1116
GlyphClass: 1
Flags: W
LayerCount: 2
Fore
SplineSet
563 -18 m 0,0,1
 463 -18 463 -18 374 12 c 128,-1,2
 285 42 285 42 221.5 106.5 c 128,-1,3
 158 171 158 171 134 273 c 1,4,-1
 338 335 l 1,5,6
 358 246 358 246 414.5 202 c 128,-1,7
 471 158 471 158 575 158 c 0,8,9
 633 158 633 158 679.5 171 c 128,-1,10
 726 184 726 184 753 212 c 128,-1,11
 780 240 780 240 780 287 c 0,12,13
 780 333 780 333 748.5 360.5 c 128,-1,14
 717 388 717 388 670 403 c 128,-1,15
 623 418 623 418 540 436 c 0,16,17
 427 461 427 461 355.5 487.5 c 128,-1,18
 284 514 284 514 233 571.5 c 128,-1,19
 182 629 182 629 182 727 c 0,20,21
 182 846 182 846 273 937 c 1,22,23
 184 1013 184 1013 184 1129 c 0,24,25
 184 1228 184 1228 238 1296 c 128,-1,26
 292 1364 292 1364 378 1399 c 128,-1,27
 464 1434 464 1434 560 1434 c 0,28,29
 697 1434 697 1434 794.5 1375.5 c 128,-1,30
 892 1317 892 1317 936 1225 c 1,31,-1
 759 1134 l 1,32,33
 737 1199 737 1199 683 1231.5 c 128,-1,34
 629 1264 629 1264 553 1264 c 0,35,36
 463 1264 463 1264 414 1222 c 128,-1,37
 365 1180 365 1180 365 1125 c 0,38,39
 365 1084 365 1084 394.5 1059 c 128,-1,40
 424 1034 424 1034 469.5 1020.5 c 128,-1,41
 515 1007 515 1007 594 990 c 0,42,43
 710 965 710 965 783.5 938 c 128,-1,44
 857 911 857 911 910 851 c 128,-1,45
 963 791 963 791 963 688 c 0,46,47
 963 566 963 566 878 481 c 1,48,49
 963 408 963 408 963 286 c 0,50,51
 963 182 963 182 906 114 c 0,52,53
 845 43 845 43 753.5 12.5 c 128,-1,54
 662 -18 662 -18 563 -18 c 0,0,1
688 559 m 1,55,56
 735 577 735 577 757.5 610.5 c 128,-1,57
 780 644 780 644 780 686 c 0,58,59
 780 740 780 740 744 772 c 128,-1,60
 708 804 708 804 655 820.5 c 128,-1,61
 602 837 602 837 512 857 c 2,62,-1
 457 870 l 1,63,64
 410 848 410 848 387.5 810 c 128,-1,65
 365 772 365 772 365 734 c 0,66,67
 365 647 365 647 489 610 c 0,68,69
 546 591 546 591 688 559 c 1,55,56
EndSplineSet
EndChar

StartChar: copyright
Encoding: 169 169 107
Width: 1742
GlyphClass: 1
Flags: W
LayerCount: 2
Fore
SplineSet
872 -50 m 0,0,1
 725 -50 725 -50 596.5 -1.5 c 128,-1,2
 468 47 468 47 367.5 131.5 c 128,-1,3
 267 216 267 216 200 328 c 0,4,5
 95 501 95 501 95 707 c 0,6,7
 95 850 95 850 144.5 974.5 c 128,-1,8
 194 1099 194 1099 281 1197 c 128,-1,9
 368 1295 368 1295 483 1361 c 0,10,11
 661 1463 661 1463 872 1463 c 0,12,13
 1019 1463 1019 1463 1147 1414.5 c 128,-1,14
 1275 1366 1275 1366 1375.5 1281.5 c 128,-1,15
 1476 1197 1476 1197 1544 1086 c 0,16,17
 1648 912 1648 912 1648 707 c 0,18,19
 1648 563 1648 563 1598.5 438.5 c 128,-1,20
 1549 314 1549 314 1462 215.5 c 128,-1,21
 1375 117 1375 117 1261 52 c 0,22,23
 1083 -50 1083 -50 872 -50 c 0,0,1
872 117 m 0,24,25
 985 117 985 117 1085 155.5 c 128,-1,26
 1185 194 1185 194 1265 261 c 128,-1,27
 1345 328 1345 328 1398 415 c 0,28,29
 1481 550 1481 550 1481 707 c 0,30,31
 1481 872 1481 872 1396 1004.5 c 128,-1,32
 1311 1137 1311 1137 1175 1216 c 0,33,34
 1034 1296 1034 1296 872 1296 c 0,35,36
 758 1296 758 1296 658 1258 c 128,-1,37
 558 1220 558 1220 478.5 1153 c 128,-1,38
 399 1086 399 1086 346 1000 c 0,39,40
 263 864 263 864 263 707 c 0,41,42
 263 542 263 542 348 409 c 128,-1,43
 433 276 433 276 570 198 c 0,44,45
 710 117 710 117 872 117 c 0,24,25
888 275 m 0,46,47
 762 275 762 275 678 334 c 128,-1,48
 594 393 594 393 552 491 c 128,-1,49
 510 589 510 589 510 705 c 0,50,51
 510 817 510 817 551 915 c 128,-1,52
 592 1013 592 1013 676 1073.5 c 128,-1,53
 760 1134 760 1134 888 1134 c 0,54,55
 1121 1134 1121 1134 1228 907 c 1,56,-1
 1074 842 l 1,57,58
 1018 966 1018 966 888 966 c 0,59,60
 782 966 782 966 728.5 892.5 c 128,-1,61
 675 819 675 819 675 705 c 0,62,63
 675 590 675 590 727.5 517.5 c 128,-1,64
 780 445 780 445 886 445 c 0,65,66
 1018 445 1018 445 1072 570 c 1,67,-1
 1228 504 l 1,68,69
 1122 275 1122 275 888 275 c 0,46,47
EndSplineSet
EndChar

StartChar: ordfeminine
Encoding: 170 170 108
Width: 922
GlyphClass: 2
Flags: W
LayerCount: 2
Fore
SplineSet
377 709 m 0,0,1
 312 709 312 709 257 735.5 c 128,-1,2
 202 762 202 762 168.5 810.5 c 128,-1,3
 135 859 135 859 135 925 c 0,4,5
 135 1002 135 1002 170.5 1049.5 c 128,-1,6
 206 1097 206 1097 267.5 1119 c 128,-1,7
 329 1141 329 1141 408 1141 c 2,8,-1
 608 1141 l 1,9,10
 604 1310 604 1310 446 1310 c 0,11,12
 336 1310 336 1310 267 1205 c 1,13,-1
 157 1278 l 1,14,15
 218 1362 218 1362 288.5 1398 c 128,-1,16
 359 1434 359 1434 451 1434 c 0,17,18
 589 1434 589 1434 664.5 1355 c 128,-1,19
 740 1276 740 1276 740 1150 c 2,20,-1
 740 723 l 1,21,-1
 618 723 l 1,22,-1
 613 817 l 1,23,24
 569 762 569 762 512 735.5 c 128,-1,25
 455 709 455 709 377 709 c 0,0,1
403 835 m 0,26,27
 460 835 460 835 504.5 862 c 128,-1,28
 549 889 549 889 576 930.5 c 128,-1,29
 603 972 603 972 608 1019 c 1,30,-1
 418 1019 l 2,31,32
 360 1019 360 1019 321.5 995 c 128,-1,33
 283 971 283 971 283 925 c 0,34,35
 283 887 283 887 321 861 c 128,-1,36
 359 835 359 835 403 835 c 0,26,27
EndSplineSet
EndChar

StartChar: guillemotleft
Encoding: 171 171 109
Width: 957
GlyphClass: 1
Flags: W
LayerCount: 2
Fore
SplineSet
441 165 m 1,0,-1
 31 510 l 1,1,-1
 441 857 l 1,2,-1
 441 662 l 1,3,-1
 257 510 l 1,4,-1
 441 360 l 1,5,-1
 441 165 l 1,0,-1
804 165 m 1,6,-1
 394 510 l 1,7,-1
 804 857 l 1,8,-1
 804 662 l 1,9,-1
 619 510 l 1,10,-1
 804 360 l 1,11,-1
 804 165 l 1,6,-1
EndSplineSet
EndChar

StartChar: logicalnot
Encoding: 172 172 110
Width: 1295
GlyphClass: 1
Flags: W
LayerCount: 2
Fore
SplineSet
1067 291 m 1,0,-1
 863 291 l 1,1,-1
 863 606 l 1,2,-1
 141 606 l 1,3,-1
 141 797 l 1,4,-1
 1067 797 l 1,5,-1
 1067 291 l 1,0,-1
EndSplineSet
EndChar

StartChar: uni00AD
Encoding: 173 173 111
Width: 1000
GlyphClass: 1
Flags: W
LayerCount: 2
Fore
SplineSet
852 530 m 1,0,-1
 147 530 l 1,1,-1
 147 692 l 1,2,-1
 852 692 l 1,3,-1
 852 530 l 1,0,-1
EndSplineSet
EndChar

StartChar: registered
Encoding: 174 174 112
Width: 1742
GlyphClass: 1
Flags: W
LayerCount: 2
Fore
SplineSet
872 -48 m 0,0,1
 725 -48 725 -48 596.5 0.5 c 128,-1,2
 468 49 468 49 367.5 133.5 c 128,-1,3
 267 218 267 218 200 330 c 0,4,5
 95 503 95 503 95 709 c 0,6,7
 95 852 95 852 144.5 976.5 c 128,-1,8
 194 1101 194 1101 281 1199 c 128,-1,9
 368 1297 368 1297 483 1363 c 0,10,11
 661 1465 661 1465 872 1465 c 0,12,13
 1019 1465 1019 1465 1147 1416.5 c 128,-1,14
 1275 1368 1275 1368 1375.5 1283.5 c 128,-1,15
 1476 1199 1476 1199 1544 1088 c 0,16,17
 1648 914 1648 914 1648 709 c 0,18,19
 1648 565 1648 565 1598.5 440.5 c 128,-1,20
 1549 316 1549 316 1462 217.5 c 128,-1,21
 1375 119 1375 119 1261 54 c 0,22,23
 1083 -48 1083 -48 872 -48 c 0,0,1
872 111 m 0,24,25
 1045 111 1045 111 1184 194.5 c 128,-1,26
 1323 278 1323 278 1405 412 c 0,27,28
 1489 549 1489 549 1489 709 c 0,29,30
 1489 821 1489 821 1449 919 c 128,-1,31
 1409 1017 1409 1017 1339.5 1094.5 c 128,-1,32
 1270 1172 1270 1172 1179 1225 c 0,33,34
 1037 1306 1037 1306 872 1306 c 0,35,36
 756 1306 756 1306 654.5 1267.5 c 128,-1,37
 553 1229 553 1229 472.5 1161.5 c 128,-1,38
 392 1094 392 1094 338 1006 c 0,39,40
 253 869 253 869 253 709 c 0,41,42
 253 597 253 597 293 499 c 128,-1,43
 333 401 333 401 403 323 c 128,-1,44
 473 245 473 245 564 193 c 0,45,46
 706 111 706 111 872 111 c 0,24,25
1253 293 m 1,47,-1
 1064 293 l 1,48,-1
 890 614 l 1,49,-1
 775 614 l 1,50,-1
 775 293 l 1,51,-1
 610 293 l 1,52,-1
 610 1110 l 1,53,-1
 925 1110 l 2,54,55
 1067 1110 1067 1110 1135 1041.5 c 128,-1,56
 1203 973 1203 973 1203 862 c 0,57,58
 1203 770 1203 770 1160.5 714.5 c 128,-1,59
 1118 659 1118 659 1054 636 c 1,60,-1
 1253 293 l 1,47,-1
925 769 m 2,61,62
 989 769 989 769 1018.5 789.5 c 128,-1,63
 1048 810 1048 810 1048 862 c 0,64,65
 1048 915 1048 915 1019.5 935 c 128,-1,66
 991 955 991 955 925 955 c 2,67,-1
 764 955 l 1,68,-1
 764 769 l 1,69,-1
 925 769 l 2,61,62
EndSplineSet
EndChar

StartChar: degree
Encoding: 176 176 114
Width: 900
GlyphClass: 1
Flags: W
LayerCount: 2
Fore
SplineSet
450 848 m 0,0,1
 365 848 365 848 299 889 c 128,-1,2
 233 930 233 930 195 997 c 128,-1,3
 157 1064 157 1064 157 1141 c 0,4,5
 157 1227 157 1227 198.5 1293 c 128,-1,6
 240 1359 240 1359 307 1396.5 c 128,-1,7
 374 1434 374 1434 450 1434 c 0,8,9
 534 1434 534 1434 600 1393 c 128,-1,10
 666 1352 666 1352 704 1285.5 c 128,-1,11
 742 1219 742 1219 742 1141 c 0,12,13
 742 1056 742 1056 701 990 c 128,-1,14
 660 924 660 924 593.5 886 c 128,-1,15
 527 848 527 848 450 848 c 0,0,1
450 990 m 0,16,17
 515 990 515 990 558.5 1034 c 128,-1,18
 602 1078 602 1078 602 1141 c 0,19,20
 602 1205 602 1205 557 1248.5 c 128,-1,21
 512 1292 512 1292 450 1292 c 0,22,23
 385 1292 385 1292 342 1246.5 c 128,-1,24
 299 1201 299 1201 299 1141 c 0,25,26
 299 1075 299 1075 345 1032.5 c 128,-1,27
 391 990 391 990 450 990 c 0,16,17
EndSplineSet
EndChar

StartChar: plusminus
Encoding: 177 177 115
Width: 1328
GlyphClass: 1
Flags: W
LayerCount: 2
Fore
SplineSet
745 106 m 1,0,-1
 583 106 l 1,1,-1
 583 544 l 1,2,-1
 126 544 l 1,3,-1
 126 706 l 1,4,-1
 583 706 l 1,5,-1
 583 1143 l 1,6,-1
 745 1143 l 1,7,-1
 745 706 l 1,8,-1
 1202 706 l 1,9,-1
 1202 544 l 1,10,-1
 745 544 l 1,11,-1
 745 106 l 1,0,-1
1200 -162 m 1,12,-1
 127 -162 l 1,13,-1
 127 0 l 1,14,-1
 1200 0 l 1,15,-1
 1200 -162 l 1,12,-1
EndSplineSet
EndChar

StartChar: twosuperior
Encoding: 178 178 116
Width: 829
GlyphClass: 2
Flags: W
LayerCount: 2
Fore
SplineSet
773 486 m 1,0,-1
 41 486 l 1,1,-1
 41 622 l 1,2,3
 556 928 556 928 556 1147 c 0,4,5
 556 1209 556 1209 521 1249.5 c 128,-1,6
 486 1290 486 1290 414 1290 c 0,7,8
 329 1290 329 1290 287.5 1233 c 128,-1,9
 246 1176 246 1176 242 1090 c 1,10,-1
 78 1100 l 1,11,12
 78 1189 78 1189 117 1267 c 128,-1,13
 156 1345 156 1345 231 1393 c 128,-1,14
 306 1441 306 1441 414 1441 c 0,15,16
 554 1441 554 1441 640 1364 c 128,-1,17
 726 1287 726 1287 726 1170 c 0,18,19
 726 1071 726 1071 665 977 c 0,20,21
 600 880 600 880 500.5 789 c 128,-1,22
 401 698 401 698 296 636 c 1,23,-1
 773 636 l 1,24,-1
 773 486 l 1,0,-1
EndSplineSet
EndChar

StartChar: threesuperior
Encoding: 179 179 117
Width: 862
GlyphClass: 2
Flags: W
LayerCount: 2
Fore
SplineSet
419 463 m 0,0,1
 320 463 320 463 234 496.5 c 128,-1,2
 148 530 148 530 95.5 598.5 c 128,-1,3
 43 667 43 667 43 773 c 1,4,-1
 201 782 l 1,5,6
 201 728 201 728 231 691 c 128,-1,7
 261 654 261 654 310.5 635 c 128,-1,8
 360 616 360 616 420 616 c 0,9,10
 476 616 476 616 525 633 c 128,-1,11
 574 650 574 650 604 684 c 128,-1,12
 634 718 634 718 634 770 c 0,13,14
 634 841 634 841 579.5 877.5 c 128,-1,15
 525 914 525 914 443 914 c 2,16,-1
 339 914 l 1,17,-1
 339 1057 l 1,18,-1
 442 1057 l 2,19,20
 510 1057 510 1057 542.5 1089 c 128,-1,21
 575 1121 575 1121 575 1171 c 0,22,23
 575 1233 575 1233 528.5 1264 c 128,-1,24
 482 1295 482 1295 417 1295 c 0,25,26
 344 1295 344 1295 299 1259.5 c 128,-1,27
 254 1224 254 1224 251 1162 c 1,28,-1
 93 1172 l 1,29,30
 93 1260 93 1260 137 1322.5 c 128,-1,31
 181 1385 181 1385 254 1418 c 128,-1,32
 327 1451 327 1451 415 1451 c 0,33,34
 498 1451 498 1451 571 1421 c 128,-1,35
 644 1391 644 1391 689.5 1333.5 c 128,-1,36
 735 1276 735 1276 735 1194 c 0,37,38
 735 1071 735 1071 634 998 c 1,39,40
 715 962 715 962 753 899.5 c 128,-1,41
 791 837 791 837 792 760 c 0,42,43
 792 661 792 661 741 595 c 128,-1,44
 690 529 690 529 605 496 c 128,-1,45
 520 463 520 463 419 463 c 0,0,1
EndSplineSet
EndChar

StartChar: uni00B5
Encoding: 181 181 119
Width: 1313
GlyphClass: 1
Flags: W
LayerCount: 2
Fore
SplineSet
423 -266 m 1,0,-1
 239 -266 l 1,1,-1
 239 1039 l 1,2,-1
 445 1039 l 1,3,-1
 445 425 l 2,4,5
 445 166 445 166 632 166 c 0,6,7
 713 166 713 166 777.5 207.5 c 128,-1,8
 842 249 842 249 879.5 314.5 c 128,-1,9
 917 380 917 380 917 451 c 2,10,-1
 917 1039 l 1,11,-1
 1122 1039 l 1,12,-1
 1122 0 l 1,13,-1
 917 0 l 1,14,-1
 917 120 l 1,15,16
 868 61 868 61 791 19 c 128,-1,17
 714 -23 714 -23 617 -23 c 0,18,19
 521 -23 521 -23 442 14 c 1,20,-1
 423 -266 l 1,0,-1
EndSplineSet
EndChar

StartChar: paragraph
Encoding: 182 182 120
Width: 1284
GlyphClass: 1
Flags: W
LayerCount: 2
Fore
SplineSet
694 -246 m 1,0,-1
 535 -246 l 1,1,-1
 535 623 l 1,2,3
 421 623 421 623 317 668.5 c 128,-1,4
 213 714 213 714 145 808 c 0,5,6
 82 898 82 898 82 1018 c 0,7,8
 82 1144 82 1144 147 1232 c 128,-1,9
 212 1320 212 1320 315.5 1366.5 c 128,-1,10
 419 1413 419 1413 535 1413 c 2,11,-1
 694 1413 l 1,12,-1
 694 -246 l 1,0,-1
1052 -246 m 1,13,-1
 891 -246 l 1,14,-1
 891 1413 l 1,15,-1
 1052 1413 l 1,16,-1
 1052 -246 l 1,13,-1
EndSplineSet
EndChar

StartChar: periodcentered
Encoding: 183 183 121
Width: 625
GlyphClass: 1
Flags: W
LayerCount: 2
Fore
SplineSet
311 666 m 0,0,1
 249 666 249 666 210 708.5 c 128,-1,2
 171 751 171 751 171 808 c 0,3,4
 171 872 171 872 213.5 910 c 128,-1,5
 256 948 256 948 311 948 c 0,6,7
 373 948 373 948 413 906.5 c 128,-1,8
 453 865 453 865 453 808 c 0,9,10
 453 746 453 746 410.5 706 c 128,-1,11
 368 666 368 666 311 666 c 0,0,1
EndSplineSet
EndChar

StartChar: onesuperior
Encoding: 185 185 123
Width: 810
GlyphClass: 2
Flags: W
LayerCount: 2
Fore
SplineSet
544 486 m 1,0,-1
 378 486 l 1,1,-1
 378 1172 l 1,2,-1
 129 1172 l 1,3,-1
 129 1302 l 1,4,-1
 281 1302 l 2,5,6
 333 1302 333 1302 360 1330 c 128,-1,7
 387 1358 387 1358 387 1405 c 2,8,-1
 387 1428 l 1,9,-1
 544 1428 l 1,10,-1
 544 486 l 1,0,-1
EndSplineSet
EndChar

StartChar: ordmasculine
Encoding: 186 186 124
Width: 962
GlyphClass: 2
Flags: W
LayerCount: 2
Fore
SplineSet
481 711 m 0,0,1
 373 711 373 711 294 761.5 c 128,-1,2
 215 812 215 812 172 894.5 c 128,-1,3
 129 977 129 977 129 1073 c 0,4,5
 129 1167 129 1167 171.5 1250.5 c 128,-1,6
 214 1334 214 1334 299 1386 c 0,7,8
 379 1434 379 1434 481 1434 c 0,9,10
 589 1434 589 1434 668 1383 c 128,-1,11
 747 1332 747 1332 789.5 1250 c 128,-1,12
 832 1168 832 1168 832 1073 c 0,13,14
 832 975 832 975 788.5 893 c 128,-1,15
 745 811 745 811 666 761 c 128,-1,16
 587 711 587 711 481 711 c 0,0,1
481 845 m 0,17,18
 580 845 580 845 627.5 908.5 c 128,-1,19
 675 972 675 972 675 1073 c 0,20,21
 675 1138 675 1138 655.5 1190 c 128,-1,22
 636 1242 636 1242 593 1272 c 128,-1,23
 550 1302 550 1302 481 1302 c 0,24,25
 411 1302 411 1302 368 1272 c 128,-1,26
 325 1242 325 1242 305 1190 c 128,-1,27
 285 1138 285 1138 285 1073 c 0,28,29
 285 972 285 972 333 908.5 c 128,-1,30
 381 845 381 845 481 845 c 0,17,18
EndSplineSet
EndChar

StartChar: guillemotright
Encoding: 187 187 125
Width: 958
GlyphClass: 1
Flags: W
LayerCount: 2
Fore
SplineSet
151 165 m 1,0,-1
 151 360 l 1,1,-1
 335 510 l 1,2,-1
 151 662 l 1,3,-1
 151 857 l 1,4,-1
 561 510 l 1,5,-1
 151 165 l 1,0,-1
514 165 m 1,6,-1
 514 360 l 1,7,-1
 698 510 l 1,8,-1
 514 662 l 1,9,-1
 514 857 l 1,10,-1
 924 510 l 1,11,-1
 514 165 l 1,6,-1
EndSplineSet
EndChar

StartChar: questiondown
Encoding: 191 191 126
Width: 1001
GlyphClass: 1
Flags: W
LayerCount: 2
Fore
SplineSet
629 757 m 1,0,-1
 385 757 l 1,1,-1
 385 999 l 1,2,-1
 629 999 l 1,3,-1
 629 757 l 1,0,-1
519 -434 m 0,4,5
 404 -434 404 -434 303.5 -391.5 c 128,-1,6
 203 -349 203 -349 140.5 -262.5 c 128,-1,7
 78 -176 78 -176 78 -46 c 0,8,9
 78 127 78 127 184 217 c 0,10,11
 229 256 229 256 299 293 c 0,12,13
 361 326 361 326 389.5 353 c 128,-1,14
 418 380 418 380 418 421 c 2,15,-1
 418 590 l 1,16,-1
 603 590 l 1,17,-1
 603 419 l 2,18,19
 603 276 603 276 517 212 c 0,20,21
 476 182 476 182 421 152 c 0,22,23
 373 124 373 124 340 101 c 0,24,25
 269 50 269 50 269 -50 c 0,26,27
 269 -121 269 -121 300 -165.5 c 128,-1,28
 331 -210 331 -210 385.5 -231.5 c 128,-1,29
 440 -253 440 -253 509 -253 c 0,30,31
 612 -253 612 -253 680.5 -198 c 128,-1,32
 749 -143 749 -143 752 -34 c 1,33,-1
 945 -34 l 1,34,35
 939 -225 939 -225 815 -329.5 c 128,-1,36
 691 -434 691 -434 519 -434 c 0,4,5
EndSplineSet
EndChar

StartChar: Aring
Encoding: 197 197 132
Width: 1332
GlyphClass: 1
Flags: W
LayerCount: 2
Fore
SplineSet
1304 0 m 1,0,-1
 1062 0 l 1,1,-1
 953 307 l 1,2,-1
 382 307 l 1,3,-1
 272 0 l 1,4,-1
 28 0 l 1,5,-1
 549 1329 l 1,6,7
 445 1397 445 1397 445 1517 c 0,8,9
 445 1613 445 1613 510.5 1675.5 c 128,-1,10
 576 1738 576 1738 666 1738 c 0,11,12
 761 1738 761 1738 825 1671.5 c 128,-1,13
 889 1605 889 1605 889 1517 c 0,14,15
 889 1455 889 1455 860 1406.5 c 128,-1,16
 831 1358 831 1358 784 1330 c 1,17,-1
 1304 0 l 1,0,-1
666 1417 m 0,18,19
 709 1417 709 1417 737.5 1446 c 128,-1,20
 766 1475 766 1475 766 1519 c 0,21,22
 766 1559 766 1559 740 1587 c 128,-1,23
 714 1615 714 1615 666 1615 c 0,24,25
 619 1615 619 1615 593 1587 c 128,-1,26
 567 1559 567 1559 567 1519 c 0,27,28
 567 1472 567 1472 596 1444.5 c 128,-1,29
 625 1417 625 1417 666 1417 c 0,18,19
878 502 m 1,30,-1
 668 1084 l 1,31,-1
 458 502 l 1,32,-1
 878 502 l 1,30,-1
EndSplineSet
Position2: "'cpsp' Capital Spacing lookup 0 subtable" dx=5 dy=0 dh=10 dv=0
EndChar

StartChar: AE
Encoding: 198 198 133
Width: 1844
GlyphClass: 1
Flags: W
LayerCount: 2
Fore
SplineSet
1741 0 m 1,0,-1
 785 0 l 1,1,-1
 785 307 l 1,2,-1
 366 307 l 1,3,-1
 255 0 l 1,4,-1
 28 0 l 1,5,-1
 577 1413 l 1,6,-1
 1741 1413 l 1,7,-1
 1741 1226 l 1,8,-1
 994 1226 l 1,9,-1
 994 801 l 1,10,-1
 1653 801 l 1,11,-1
 1653 612 l 1,12,-1
 994 612 l 1,13,-1
 994 193 l 1,14,-1
 1741 193 l 1,15,-1
 1741 0 l 1,0,-1
785 486 m 1,16,-1
 785 1226 l 1,17,-1
 717 1226 l 1,18,-1
 436 486 l 1,19,-1
 785 486 l 1,16,-1
EndSplineSet
Position2: "'cpsp' Capital Spacing lookup 0 subtable" dx=5 dy=0 dh=10 dv=0
EndChar

StartChar: Eth
Encoding: 208 208 143
Width: 1427
GlyphClass: 1
Flags: W
LayerCount: 2
Fore
SplineSet
599 0 m 2,0,-1
 212 0 l 1,1,-1
 212 631 l 1,2,-1
 100 631 l 1,3,-1
 100 794 l 1,4,-1
 212 794 l 1,5,-1
 212 1413 l 1,6,-1
 601 1413 l 2,7,8
 845 1413 845 1413 1006.5 1327 c 128,-1,9
 1168 1241 1168 1241 1250 1087 c 0,10,11
 1335 926 1335 926 1335 696 c 0,12,13
 1335 471 1335 471 1246.5 315.5 c 128,-1,14
 1158 160 1158 160 993 80 c 128,-1,15
 828 0 828 0 599 0 c 2,0,-1
574 197 m 2,16,17
 744 197 744 197 866.5 252.5 c 128,-1,18
 989 308 989 308 1055.5 421.5 c 128,-1,19
 1122 535 1122 535 1122 707 c 0,20,21
 1122 970 1122 970 988.5 1094.5 c 128,-1,22
 855 1219 855 1219 597 1219 c 2,23,-1
 423 1219 l 1,24,-1
 423 794 l 1,25,-1
 804 794 l 1,26,-1
 804 631 l 1,27,-1
 423 631 l 1,28,-1
 423 197 l 1,29,-1
 574 197 l 2,16,17
EndSplineSet
Position2: "'cpsp' Capital Spacing lookup 0 subtable" dx=5 dy=0 dh=10 dv=0
EndChar

StartChar: multiply
Encoding: 215 215 150
Width: 1094
GlyphClass: 1
Flags: W
LayerCount: 2
Fore
SplineSet
224 187 m 1,0,-1
 110 301 l 1,1,-1
 432 625 l 1,2,-1
 123 933 l 1,3,-1
 238 1049 l 1,4,-1
 547 740 l 1,5,-1
 870 1062 l 1,6,-1
 985 948 l 1,7,-1
 663 625 l 1,8,-1
 971 316 l 1,9,-1
 856 200 l 1,10,-1
 547 509 l 1,11,-1
 224 187 l 1,0,-1
EndSplineSet
EndChar

StartChar: Oslash
Encoding: 216 216 151
Width: 1524
GlyphClass: 1
Flags: W
LayerCount: 2
Fore
SplineSet
761 -20 m 0,0,1
 587 -20 587 -20 450 46 c 1,2,-1
 423 0 l 1,3,-1
 257 0 l 1,4,-1
 331 124 l 1,5,6
 209 230 209 230 152 383 c 128,-1,7
 95 536 95 536 95 707 c 0,8,9
 95 834 95 834 125.5 952 c 128,-1,10
 156 1070 156 1070 221.5 1168 c 128,-1,11
 287 1266 287 1266 392 1336 c 0,12,13
 542 1434 542 1434 761 1434 c 0,14,15
 936 1434 936 1434 1071 1369 c 1,16,-1
 1097 1413 l 1,17,-1
 1262 1413 l 1,18,-1
 1190 1292 l 1,19,20
 1313 1186 1313 1186 1371 1033 c 128,-1,21
 1429 880 1429 880 1429 707 c 0,22,23
 1429 516 1429 516 1358 349.5 c 128,-1,24
 1287 183 1287 183 1131 78 c 0,25,26
 981 -20 981 -20 761 -20 c 0,0,1
445 316 m 1,27,-1
 964 1189 l 1,28,29
 876 1233 876 1233 761 1233 c 0,30,31
 611 1233 611 1233 514 1162 c 0,32,33
 414 1086 414 1086 371 967 c 128,-1,34
 328 848 328 848 328 707 c 0,35,36
 328 594 328 594 356 492.5 c 128,-1,37
 384 391 384 391 445 316 c 1,27,-1
761 180 m 0,38,39
 912 180 912 180 1011 253.5 c 128,-1,40
 1110 327 1110 327 1153.5 446 c 128,-1,41
 1197 565 1197 565 1197 707 c 0,42,43
 1197 956 1197 956 1077 1101 c 1,44,-1
 557 225 l 1,45,46
 644 180 644 180 761 180 c 0,38,39
EndSplineSet
Position2: "'cpsp' Capital Spacing lookup 0 subtable" dx=5 dy=0 dh=10 dv=0
EndChar

StartChar: Thorn
Encoding: 222 222 157
Width: 1150
GlyphClass: 1
Flags: W
LayerCount: 2
Fore
SplineSet
400 0 m 1,0,-1
 191 0 l 1,1,-1
 191 1413 l 1,2,-1
 400 1413 l 1,3,-1
 400 1217 l 1,4,-1
 654 1217 l 2,5,6
 866 1217 866 1217 978.5 1109 c 128,-1,7
 1091 1001 1091 1001 1091 819 c 0,8,9
 1091 682 1091 682 1030 590.5 c 128,-1,10
 969 499 969 499 861 453.5 c 128,-1,11
 753 408 753 408 613 408 c 2,12,-1
 400 408 l 1,13,-1
 400 0 l 1,0,-1
613 599 m 2,14,15
 882 599 882 599 882 813 c 0,16,17
 882 915 882 915 816.5 973.5 c 128,-1,18
 751 1032 751 1032 613 1032 c 2,19,-1
 400 1032 l 1,20,-1
 400 599 l 1,21,-1
 613 599 l 2,14,15
EndSplineSet
Position2: "'cpsp' Capital Spacing lookup 0 subtable" dx=5 dy=0 dh=10 dv=0
EndChar

StartChar: germandbls
Encoding: 223 223 158
Width: 1192
GlyphClass: 1
Flags: W
LayerCount: 2
Fore
SplineSet
739 -18 m 0,0,1
 631 -18 631 -18 516 28 c 1,2,-1
 595 214 l 1,3,4
 675 180 675 180 736 180 c 0,5,6
 806 180 806 180 848 219.5 c 128,-1,7
 890 259 890 259 890 311 c 0,8,9
 890 366 890 366 855.5 409.5 c 128,-1,10
 821 453 821 453 753 507 c 0,11,12
 673 571 673 571 630 628.5 c 128,-1,13
 587 686 587 686 587 765 c 0,14,15
 587 834 587 834 619 872.5 c 128,-1,16
 651 911 651 911 709 949 c 0,17,18
 759 983 759 983 784.5 1012.5 c 128,-1,19
 810 1042 810 1042 810 1089 c 0,20,21
 810 1128 810 1128 787.5 1164.5 c 128,-1,22
 765 1201 765 1201 718.5 1224 c 128,-1,23
 672 1247 672 1247 602 1247 c 0,24,25
 495 1247 495 1247 434 1183.5 c 128,-1,26
 373 1120 373 1120 373 985 c 2,27,-1
 373 0 l 1,28,-1
 161 0 l 1,29,-1
 161 985 l 2,30,31
 161 1134 161 1134 219.5 1234 c 128,-1,32
 278 1334 278 1334 375.5 1384 c 128,-1,33
 473 1434 473 1434 591 1434 c 0,34,35
 694 1434 694 1434 794 1391 c 128,-1,36
 894 1348 894 1348 962 1262 c 0,37,38
 1024 1181 1024 1181 1024 1074 c 0,39,40
 1024 1013 1024 1013 1005 972.5 c 128,-1,41
 986 932 986 932 951.5 902.5 c 128,-1,42
 917 873 917 873 873 847 c 0,43,44
 829 820 829 820 809.5 801 c 128,-1,45
 790 782 790 782 790 757 c 0,46,47
 790 729 790 729 815 703.5 c 128,-1,48
 840 678 840 678 897 637 c 0,49,50
 963 591 963 591 1005 550 c 0,51,52
 1107 451 1107 451 1107 317 c 0,53,54
 1107 214 1107 214 1056.5 138.5 c 128,-1,55
 1006 63 1006 63 922.5 22.5 c 128,-1,56
 839 -18 839 -18 739 -18 c 0,0,1
EndSplineSet
EndChar

StartChar: ae
Encoding: 230 230 165
Width: 1719
GlyphClass: 1
Flags: W
LayerCount: 2
Fore
SplineSet
409 -20 m 0,0,1
 315 -20 315 -20 235 18.5 c 128,-1,2
 155 57 155 57 106 128 c 128,-1,3
 57 199 57 199 57 297 c 0,4,5
 57 459 57 459 165 533.5 c 128,-1,6
 273 608 273 608 456 608 c 2,7,-1
 747 608 l 1,8,9
 747 749 747 749 687.5 812.5 c 128,-1,10
 628 876 628 876 509 876 c 0,11,12
 424 876 424 876 358.5 834 c 128,-1,13
 293 792 293 792 254 732 c 1,14,-1
 100 851 l 1,15,16
 253 1056 253 1056 517 1056 c 0,17,18
 637 1056 637 1056 723.5 1010.5 c 128,-1,19
 810 965 810 965 858 884 c 1,20,21
 976 1052 976 1052 1197 1052 c 0,22,23
 1363 1052 1363 1052 1465.5 977.5 c 128,-1,24
 1568 903 1568 903 1612 782.5 c 128,-1,25
 1656 662 1656 662 1656 515 c 0,26,27
 1656 476 1656 476 1647 449 c 1,28,-1
 931 449 l 1,29,30
 937 372 937 372 967.5 313 c 128,-1,31
 998 254 998 254 1055.5 219.5 c 128,-1,32
 1113 185 1113 185 1197 185 c 0,33,34
 1293 185 1293 185 1354.5 209 c 128,-1,35
 1416 233 1416 233 1467 289 c 1,36,-1
 1621 154 l 1,37,38
 1538 70 1538 70 1437.5 29 c 128,-1,39
 1337 -12 1337 -12 1201 -12 c 0,40,41
 935 -12 935 -12 828 187 c 1,42,43
 764 92 764 92 661 36 c 128,-1,44
 558 -20 558 -20 409 -20 c 0,0,1
1438 608 m 1,45,46
 1418 868 1418 868 1180 868 c 0,47,48
 1102 868 1102 868 1049.5 834 c 128,-1,49
 997 800 997 800 968 741 c 128,-1,50
 939 682 939 682 932 608 c 1,51,-1
 1438 608 l 1,45,46
446 158 m 0,52,53
 529 158 529 158 595 201.5 c 128,-1,54
 661 245 661 245 701 311 c 128,-1,55
 741 377 741 377 747 449 c 1,56,-1
 468 449 l 2,57,58
 380 449 380 449 322 409 c 128,-1,59
 264 369 264 369 264 298 c 0,60,61
 264 230 264 230 318 194 c 128,-1,62
 372 158 372 158 446 158 c 0,52,53
EndSplineSet
EndChar

StartChar: eth
Encoding: 240 240 175
Width: 1193
GlyphClass: 1
Flags: W
LayerCount: 2
Fore
SplineSet
594 -16 m 0,0,1
 465 -16 465 -16 367 28.5 c 128,-1,2
 269 73 269 73 202.5 150.5 c 128,-1,3
 136 228 136 228 102.5 327 c 128,-1,4
 69 426 69 426 69 537 c 0,5,6
 69 677 69 677 125.5 796.5 c 128,-1,7
 182 916 182 916 298 990 c 0,8,9
 409 1060 409 1060 558 1060 c 0,10,11
 724 1060 724 1060 828 975 c 1,12,13
 769 1153 769 1153 547 1266 c 1,14,-1
 459 1152 l 1,15,-1
 356 1211 l 1,16,-1
 435 1313 l 1,17,18
 386 1332 386 1332 285 1364 c 1,19,-1
 387 1518 l 1,20,21
 471 1488 471 1488 547 1457 c 1,22,-1
 615 1546 l 1,23,-1
 720 1491 l 1,24,-1
 654 1405 l 1,25,26
 891 1263 891 1263 996.5 1054 c 128,-1,27
 1102 845 1102 845 1102 558 c 0,28,29
 1102 389 1102 389 1044 258.5 c 128,-1,30
 986 128 986 128 867 55 c 0,31,32
 752 -16 752 -16 594 -16 c 0,0,1
585 183 m 0,33,34
 685 183 685 183 750.5 233 c 128,-1,35
 816 283 816 283 848.5 363.5 c 128,-1,36
 881 444 881 444 881 538 c 0,37,38
 881 631 881 631 848 711 c 128,-1,39
 815 791 815 791 749.5 840 c 128,-1,40
 684 889 684 889 585 889 c 256,41,42
 486 889 486 889 420.5 840 c 128,-1,43
 355 791 355 791 322 710.5 c 128,-1,44
 289 630 289 630 289 536 c 0,45,46
 289 445 289 445 321 364.5 c 128,-1,47
 353 284 353 284 418.5 233.5 c 128,-1,48
 484 183 484 183 585 183 c 0,33,34
EndSplineSet
EndChar

StartChar: divide
Encoding: 247 247 182
Width: 1169
GlyphClass: 1
Flags: W
LayerCount: 2
Fore
SplineSet
706 855 m 1,0,-1
 461 855 l 1,1,-1
 461 1097 l 1,2,-1
 706 1097 l 1,3,-1
 706 855 l 1,0,-1
1070 547 m 1,4,-1
 97 547 l 1,5,-1
 97 710 l 1,6,-1
 1070 710 l 1,7,-1
 1070 547 l 1,4,-1
706 143 m 1,8,-1
 461 143 l 1,9,-1
 461 385 l 1,10,-1
 706 385 l 1,11,-1
 706 143 l 1,8,-1
EndSplineSet
EndChar

StartChar: oslash
Encoding: 248 248 183
Width: 1146
GlyphClass: 1
Flags: W
LayerCount: 2
Fore
SplineSet
573 -20 m 0,0,1
 447 -20 447 -20 343 29 c 1,2,-1
 326 0 l 1,3,-1
 207 0 l 1,4,-1
 256 82 l 1,5,6
 166 156 166 156 115 267.5 c 128,-1,7
 64 379 64 379 64 514 c 0,8,9
 64 655 64 655 126 779 c 128,-1,10
 188 903 188 903 310 980 c 0,11,12
 427 1052 427 1052 578 1052 c 0,13,14
 696 1052 696 1052 801 1006 c 1,15,-1
 822 1040 l 1,16,-1
 940 1040 l 1,17,-1
 889 954 l 1,18,19
 981 881 981 881 1033.5 768.5 c 128,-1,20
 1086 656 1086 656 1086 518 c 0,21,22
 1086 374 1086 374 1023.5 251 c 128,-1,23
 961 128 961 128 840 52 c 0,24,25
 723 -20 723 -20 573 -20 c 0,0,1
363 263 m 1,26,-1
 699 840 l 1,27,28
 646 865 646 865 575 865 c 0,29,30
 476 865 476 865 414 818.5 c 128,-1,31
 352 772 352 772 321.5 693 c 128,-1,32
 291 614 291 614 291 516 c 0,33,34
 291 361 291 361 363 263 c 1,26,-1
575 166 m 0,35,36
 674 166 674 166 737 213 c 128,-1,37
 800 260 800 260 829.5 339 c 128,-1,38
 859 418 859 418 859 516 c 0,39,40
 859 679 859 679 782 775 c 1,41,-1
 445 195 l 1,42,43
 501 166 501 166 575 166 c 0,35,36
EndSplineSet
EndChar

StartChar: thorn
Encoding: 254 254 189
Width: 1170
GlyphClass: 1
Flags: W
LayerCount: 2
Fore
SplineSet
370 -438 m 1,0,-1
 161 -438 l 1,1,-1
 161 1413 l 1,2,-1
 370 1413 l 1,3,-1
 370 940 l 1,4,5
 480 1060 480 1060 666 1060 c 0,6,7
 809 1060 809 1060 906.5 985.5 c 128,-1,8
 1004 911 1004 911 1054 788.5 c 128,-1,9
 1104 666 1104 666 1104 520 c 0,10,11
 1104 379 1104 379 1055 255 c 128,-1,12
 1006 131 1006 131 903 53 c 0,13,14
 804 -20 804 -20 666 -20 c 0,15,16
 570 -20 570 -20 496 12 c 128,-1,17
 422 44 422 44 370 100 c 1,18,-1
 370 -438 l 1,0,-1
627 168 m 0,19,20
 719 168 719 168 780 214 c 128,-1,21
 841 260 841 260 871 339.5 c 128,-1,22
 901 419 901 419 901 520 c 0,23,24
 901 615 901 615 871.5 695 c 128,-1,25
 842 775 842 775 782 822.5 c 128,-1,26
 722 870 722 870 627 870 c 0,27,28
 537 870 537 870 476 824 c 128,-1,29
 415 778 415 778 384.5 698.5 c 128,-1,30
 354 619 354 619 354 520 c 0,31,32
 354 424 354 424 383.5 343.5 c 128,-1,33
 413 263 413 263 473.5 215.5 c 128,-1,34
 534 168 534 168 627 168 c 0,19,20
EndSplineSet
EndChar

StartChar: dcaron
Encoding: 271 271 206
Width: 1291
GlyphClass: 1
Flags: W
LayerCount: 2
Fore
SplineSet
511 -20 m 0,0,1
 370 -20 370 -20 273.5 54 c 128,-1,2
 177 128 177 128 127 251 c 128,-1,3
 77 374 77 374 77 520 c 0,4,5
 77 660 77 660 126 784 c 128,-1,6
 175 908 175 908 276 987 c 0,7,8
 374 1060 374 1060 508 1060 c 0,9,10
 597 1060 597 1060 675.5 1027.5 c 128,-1,11
 754 995 754 995 809 928 c 1,12,-1
 809 1413 l 1,13,-1
 1027 1413 l 1,14,-1
 1027 0 l 1,15,-1
 809 0 l 1,16,-1
 809 112 l 1,17,18
 756 45 756 45 679 12.5 c 128,-1,19
 602 -20 602 -20 511 -20 c 0,0,1
1278 1017 m 1,20,-1
 1141 1017 l 1,21,-1
 1257 1413 l 1,22,-1
 1508 1413 l 1,23,-1
 1278 1017 l 1,20,-1
562 177 m 0,24,25
 695 177 695 177 761 271.5 c 128,-1,26
 827 366 827 366 827 520 c 0,27,28
 827 672 827 672 760.5 768.5 c 128,-1,29
 694 865 694 865 562 865 c 0,30,31
 472 865 472 865 412.5 819.5 c 128,-1,32
 353 774 353 774 324 695.5 c 128,-1,33
 295 617 295 617 295 520 c 0,34,35
 295 368 295 368 362.5 272.5 c 128,-1,36
 430 177 430 177 562 177 c 0,24,25
EndSplineSet
EndChar

StartChar: Dcroat
Encoding: 272 272 207
Width: 1427
GlyphClass: 1
Flags: W
LayerCount: 2
Fore
SplineSet
599 0 m 2,0,-1
 212 0 l 1,1,-1
 212 631 l 1,2,-1
 100 631 l 1,3,-1
 100 794 l 1,4,-1
 212 794 l 1,5,-1
 212 1413 l 1,6,-1
 601 1413 l 2,7,8
 845 1413 845 1413 1006.5 1327 c 128,-1,9
 1168 1241 1168 1241 1250 1087 c 0,10,11
 1335 926 1335 926 1335 696 c 0,12,13
 1335 471 1335 471 1246.5 315.5 c 128,-1,14
 1158 160 1158 160 993 80 c 128,-1,15
 828 0 828 0 599 0 c 2,0,-1
574 197 m 2,16,17
 744 197 744 197 866.5 252.5 c 128,-1,18
 989 308 989 308 1055.5 421.5 c 128,-1,19
 1122 535 1122 535 1122 707 c 0,20,21
 1122 970 1122 970 988.5 1094.5 c 128,-1,22
 855 1219 855 1219 597 1219 c 2,23,-1
 423 1219 l 1,24,-1
 423 794 l 1,25,-1
 804 794 l 1,26,-1
 804 631 l 1,27,-1
 423 631 l 1,28,-1
 423 197 l 1,29,-1
 574 197 l 2,16,17
EndSplineSet
Position2: "'cpsp' Capital Spacing lookup 0 subtable" dx=5 dy=0 dh=10 dv=0
EndChar

StartChar: dcroat
Encoding: 273 273 208
Width: 1183
GlyphClass: 1
Flags: W
LayerCount: 2
Fore
SplineSet
511 -20 m 0,0,1
 370 -20 370 -20 273.5 54 c 128,-1,2
 177 128 177 128 127 251 c 128,-1,3
 77 374 77 374 77 520 c 0,4,5
 77 660 77 660 126 784 c 128,-1,6
 175 908 175 908 276 987 c 0,7,8
 374 1060 374 1060 508 1060 c 0,9,10
 597 1060 597 1060 675.5 1027.5 c 128,-1,11
 754 995 754 995 809 928 c 1,12,-1
 809 1165 l 1,13,-1
 530 1165 l 1,14,-1
 530 1314 l 1,15,-1
 809 1314 l 1,16,-1
 809 1413 l 1,17,-1
 1027 1413 l 1,18,-1
 1027 1314 l 1,19,-1
 1182 1314 l 1,20,-1
 1182 1165 l 1,21,-1
 1027 1165 l 1,22,-1
 1027 0 l 1,23,-1
 825 0 l 1,24,-1
 816 119 l 1,25,26
 761 48 761 48 682 14 c 128,-1,27
 603 -20 603 -20 511 -20 c 0,0,1
562 177 m 0,28,29
 695 177 695 177 761 271.5 c 128,-1,30
 827 366 827 366 827 520 c 0,31,32
 827 672 827 672 760.5 768.5 c 128,-1,33
 694 865 694 865 562 865 c 0,34,35
 472 865 472 865 412.5 819.5 c 128,-1,36
 353 774 353 774 324 695.5 c 128,-1,37
 295 617 295 617 295 520 c 0,38,39
 295 368 295 368 362.5 272.5 c 128,-1,40
 430 177 430 177 562 177 c 0,28,29
EndSplineSet
EndChar

StartChar: Hbar
Encoding: 294 294 229
Width: 1480
GlyphClass: 1
Flags: W
LayerCount: 2
Fore
SplineSet
1288 0 m 1,0,-1
 1064 0 l 1,1,-1
 1064 606 l 1,2,-1
 416 606 l 1,3,-1
 416 0 l 1,4,-1
 191 0 l 1,5,-1
 191 1051 l 1,6,-1
 84 1051 l 1,7,-1
 84 1178 l 1,8,-1
 191 1178 l 1,9,-1
 191 1413 l 1,10,-1
 416 1413 l 1,11,-1
 416 1178 l 1,12,-1
 1064 1178 l 1,13,-1
 1064 1413 l 1,14,-1
 1288 1413 l 1,15,-1
 1288 1178 l 1,16,-1
 1393 1178 l 1,17,-1
 1393 1051 l 1,18,-1
 1288 1051 l 1,19,-1
 1288 0 l 1,0,-1
1064 808 m 1,20,-1
 1064 1051 l 1,21,-1
 416 1051 l 1,22,-1
 416 808 l 1,23,-1
 1064 808 l 1,20,-1
EndSplineSet
Position2: "'cpsp' Capital Spacing lookup 0 subtable" dx=5 dy=0 dh=10 dv=0
EndChar

StartChar: hbar
Encoding: 295 295 230
Width: 1178
GlyphClass: 1
Flags: W
LayerCount: 2
Fore
SplineSet
1054 0 m 1,0,-1
 836 0 l 1,1,-1
 836 605 l 2,2,3
 836 718 836 718 795.5 787 c 128,-1,4
 755 856 755 856 654 856 c 0,5,6
 574 856 574 856 511.5 815 c 128,-1,7
 449 774 449 774 413 709 c 128,-1,8
 377 644 377 644 377 574 c 2,9,-1
 377 0 l 1,10,-1
 161 0 l 1,11,-1
 161 1139 l 1,12,-1
 -2 1139 l 1,13,-1
 -2 1288 l 1,14,-1
 161 1288 l 1,15,-1
 161 1413 l 1,16,-1
 377 1413 l 1,17,-1
 377 1288 l 1,18,-1
 650 1288 l 1,19,-1
 650 1139 l 1,20,-1
 377 1139 l 1,21,-1
 377 908 l 1,22,23
 438 984 438 984 520 1020 c 128,-1,24
 602 1056 602 1056 685 1056 c 0,25,26
 812 1056 812 1056 894 996.5 c 128,-1,27
 976 937 976 937 1015 840 c 128,-1,28
 1054 743 1054 743 1054 629 c 2,29,-1
 1054 0 l 1,0,-1
EndSplineSet
EndChar

StartChar: dotlessi
Encoding: 305 305 240
Width: 511
GlyphClass: 2
Flags: W
LayerCount: 2
Fore
SplineSet
359 0 m 1,0,-1
 153 0 l 1,1,-1
 153 1039 l 1,2,-1
 359 1039 l 1,3,-1
 359 0 l 1,0,-1
EndSplineSet
EndChar

StartChar: ij
Encoding: 307 307 242
Width: 1059
GlyphClass: 1
Flags: W
LayerCount: 2
Fore
SplineSet
921 1185 m 1,0,-1
 690 1185 l 1,1,-1
 690 1415 l 1,2,-1
 921 1415 l 1,3,-1
 921 1185 l 1,0,-1
381 1198 m 1,4,-1
 151 1198 l 1,5,-1
 151 1413 l 1,6,-1
 381 1413 l 1,7,-1
 381 1198 l 1,4,-1
625 -438 m 0,8,9
 583 -438 583 -438 535.5 -428.5 c 128,-1,10
 488 -419 488 -419 454 -406 c 1,11,-1
 508 -226 l 1,12,13
 563 -247 563 -247 609 -247 c 0,14,15
 693 -247 693 -247 693 -140 c 2,16,-1
 693 999 l 1,17,-1
 910 999 l 1,18,-1
 910 -120 l 2,19,20
 910 -206 910 -206 881 -278.5 c 128,-1,21
 852 -351 852 -351 789 -394.5 c 128,-1,22
 726 -438 726 -438 625 -438 c 0,8,9
372 0 m 1,23,-1
 159 0 l 1,24,-1
 159 999 l 1,25,-1
 372 999 l 1,26,-1
 372 0 l 1,23,-1
EndSplineSet
EndChar

StartChar: kgreenlandic
Encoding: 312 312 247
Width: 1122
GlyphClass: 1
Flags: W
LayerCount: 2
Fore
SplineSet
1125 0 m 1,0,-1
 861 0 l 1,1,-1
 552 502 l 1,2,-1
 373 304 l 1,3,-1
 373 0 l 1,4,-1
 159 0 l 1,5,-1
 159 1039 l 1,6,-1
 373 1039 l 1,7,-1
 373 572 l 1,8,-1
 787 1039 l 1,9,-1
 1074 1039 l 1,10,-1
 701 643 l 1,11,-1
 1125 0 l 1,0,-1
EndSplineSet
EndChar

StartChar: Lcaron
Encoding: 317 317 252
Width: 1084
GlyphClass: 1
Flags: W
LayerCount: 2
Fore
SplineSet
1020 0 m 1,0,-1
 191 0 l 1,1,-1
 191 1413 l 1,2,-1
 416 1413 l 1,3,-1
 416 210 l 1,4,-1
 1020 210 l 1,5,-1
 1020 0 l 1,0,-1
780 977 m 1,6,-1
 648 977 l 1,7,-1
 759 1413 l 1,8,-1
 1001 1413 l 1,9,-1
 780 977 l 1,6,-1
EndSplineSet
Position2: "'cpsp' Capital Spacing lookup 0 subtable" dx=5 dy=0 dh=10 dv=0
EndChar

StartChar: lcaron
Encoding: 318 318 253
Width: 654
GlyphClass: 1
Flags: W
LayerCount: 2
Fore
SplineSet
355 -20 m 0,0,1
 248 -20 248 -20 200.5 34 c 128,-1,2
 153 88 153 88 153 200 c 2,3,-1
 153 1413 l 1,4,-1
 368 1413 l 1,5,-1
 368 235 l 2,6,7
 368 211 368 211 386 191 c 128,-1,8
 404 171 404 171 446 171 c 0,9,10
 475 171 475 171 521 178 c 1,11,-1
 521 0 l 1,12,13
 427 -20 427 -20 355 -20 c 0,0,1
645 977 m 1,14,-1
 507 977 l 1,15,-1
 623 1413 l 1,16,-1
 874 1413 l 1,17,-1
 645 977 l 1,14,-1
EndSplineSet
EndChar

StartChar: Lslash
Encoding: 321 321 256
Width: 1080
GlyphClass: 1
Flags: W
LayerCount: 2
Fore
SplineSet
1044 0 m 1,0,-1
 215 0 l 1,1,-1
 215 315 l 1,2,-1
 111 198 l 1,3,-1
 111 442 l 1,4,-1
 215 559 l 1,5,-1
 215 1413 l 1,6,-1
 440 1413 l 1,7,-1
 440 813 l 1,8,-1
 719 1128 l 1,9,-1
 719 880 l 1,10,-1
 440 567 l 1,11,-1
 440 210 l 1,12,-1
 1044 210 l 1,13,-1
 1044 0 l 1,0,-1
EndSplineSet
Position2: "'cpsp' Capital Spacing lookup 0 subtable" dx=5 dy=0 dh=10 dv=0
EndChar

StartChar: lslash
Encoding: 322 322 257
Width: 565
GlyphClass: 1
Flags: W
LayerCount: 2
Fore
SplineSet
355 -20 m 0,0,1
 248 -20 248 -20 200.5 34 c 128,-1,2
 153 88 153 88 153 200 c 2,3,-1
 153 418 l 1,4,-1
 54 311 l 1,5,-1
 54 514 l 1,6,-1
 153 621 l 1,7,-1
 153 1413 l 1,8,-1
 368 1413 l 1,9,-1
 368 864 l 1,10,-1
 501 1008 l 1,11,-1
 501 805 l 1,12,-1
 368 661 l 1,13,-1
 368 235 l 2,14,15
 368 211 368 211 386 191 c 128,-1,16
 404 171 404 171 446 171 c 0,17,18
 475 171 475 171 521 178 c 1,19,-1
 521 0 l 1,20,21
 427 -20 427 -20 355 -20 c 0,0,1
EndSplineSet
EndChar

StartChar: Eng
Encoding: 330 330 265
Width: 1443
GlyphClass: 1
Flags: W
LayerCount: 2
Fore
SplineSet
938 -369 m 2,0,-1
 830 -369 l 1,1,-1
 830 -221 l 1,2,3
 904 -221 904 -221 946 -209 c 0,4,5
 996 -195 996 -195 1021.5 -167 c 128,-1,6
 1047 -139 1047 -139 1047 -103 c 0,7,8
 1047 -80 1047 -80 1035 -54 c 2,9,-1
 409 1070 l 1,10,-1
 409 0 l 1,11,-1
 191 0 l 1,12,-1
 191 1412 l 1,13,-1
 434 1412 l 1,14,-1
 1035 344 l 1,15,-1
 1035 1412 l 1,16,-1
 1250 1412 l 1,17,-1
 1250 0 l 2,18,19
 1250 -154 1250 -154 1183.5 -261.5 c 128,-1,20
 1117 -369 1117 -369 938 -369 c 2,0,-1
EndSplineSet
Position2: "'cpsp' Capital Spacing lookup 0 subtable" dx=5 dy=0 dh=10 dv=0
EndChar

StartChar: eng
Encoding: 331 331 266
Width: 1162
GlyphClass: 1
Flags: W
LayerCount: 2
Fore
SplineSet
737 -369 m 2,0,-1
 626 -369 l 1,1,-1
 626 -190 l 1,2,-1
 698 -190 l 2,3,4
 758 -190 758 -190 786.5 -163 c 128,-1,5
 815 -136 815 -136 823.5 -99.5 c 128,-1,6
 832 -63 832 -63 832 -12 c 2,7,-1
 832 608 l 2,8,9
 832 723 832 723 791.5 792 c 128,-1,10
 751 861 751 861 648 861 c 0,11,12
 568 861 568 861 505 821 c 128,-1,13
 442 781 442 781 405.5 717.5 c 128,-1,14
 369 654 369 654 369 584 c 2,15,-1
 369 8 l 1,16,-1
 159 8 l 1,17,-1
 159 1039 l 1,18,-1
 369 1039 l 1,19,-1
 369 903 l 1,20,21
 427 981 427 981 509.5 1018.5 c 128,-1,22
 592 1056 592 1056 676 1056 c 0,23,24
 803 1056 803 1056 884 998 c 128,-1,25
 965 940 965 940 1003.5 843 c 128,-1,26
 1042 746 1042 746 1042 632 c 2,27,-1
 1042 -62 l 2,28,29
 1042 -131 1042 -131 1024.5 -196 c 128,-1,30
 1007 -261 1007 -261 940 -315 c 128,-1,31
 873 -369 873 -369 737 -369 c 2,0,-1
EndSplineSet
EndChar

StartChar: OE
Encoding: 338 338 273
Width: 2251
GlyphClass: 1
Flags: W
LayerCount: 2
Fore
SplineSet
761 -20 m 0,0,1
 542 -20 542 -20 392 78 c 0,2,3
 287 147 287 147 221.5 245 c 128,-1,4
 156 343 156 343 125.5 461 c 128,-1,5
 95 579 95 579 95 707 c 0,6,7
 95 834 95 834 125.5 952 c 128,-1,8
 156 1070 156 1070 221.5 1168 c 128,-1,9
 287 1266 287 1266 392 1336 c 0,10,11
 542 1434 542 1434 761 1434 c 0,12,13
 1059 1434 1059 1434 1205 1232 c 1,14,-1
 1205 1413 l 1,15,-1
 2132 1413 l 1,16,-1
 2132 1210 l 1,17,-1
 1429 1210 l 1,18,-1
 1429 808 l 1,19,-1
 2074 808 l 1,20,-1
 2074 606 l 1,21,-1
 1429 606 l 1,22,-1
 1429 210 l 1,23,-1
 2132 210 l 1,24,-1
 2132 0 l 1,25,-1
 1205 0 l 1,26,-1
 1205 181 l 1,27,28
 1057 -20 1057 -20 761 -20 c 0,0,1
761 189 m 0,29,30
 913 189 913 189 1014 260.5 c 128,-1,31
 1115 332 1115 332 1160 449.5 c 128,-1,32
 1205 567 1205 567 1205 707 c 0,33,34
 1205 812 1205 812 1179.5 905.5 c 128,-1,35
 1154 999 1154 999 1100.5 1070.5 c 128,-1,36
 1047 1142 1047 1142 963 1183 c 128,-1,37
 879 1224 879 1224 761 1224 c 0,38,39
 610 1224 610 1224 511 1155 c 0,40,41
 409 1081 409 1081 364 963.5 c 128,-1,42
 319 846 319 846 319 707 c 0,43,44
 319 483 319 483 422 344 c 0,45,46
 536 189 536 189 761 189 c 0,29,30
EndSplineSet
Position2: "'cpsp' Capital Spacing lookup 0 subtable" dx=5 dy=0 dh=10 dv=0
EndChar

StartChar: oe
Encoding: 339 339 274
Width: 1873
GlyphClass: 1
Flags: W
LayerCount: 2
Fore
SplineSet
578 -20 m 0,0,1
 419 -20 419 -20 304 54.5 c 128,-1,2
 189 129 189 129 126.5 251 c 128,-1,3
 64 373 64 373 64 516 c 0,4,5
 64 656 64 656 125.5 779 c 128,-1,6
 187 902 187 902 310 980 c 0,7,8
 427 1052 427 1052 578 1052 c 0,9,10
 705 1052 705 1052 802.5 1002 c 128,-1,11
 900 952 900 952 961 869 c 1,12,13
 1090 1052 1090 1052 1328 1052 c 0,14,15
 1503 1052 1503 1052 1609 977.5 c 128,-1,16
 1715 903 1715 903 1760 783 c 128,-1,17
 1805 663 1805 663 1805 516 c 0,18,19
 1805 475 1805 475 1798 448 c 1,20,-1
 1082 448 l 1,21,22
 1094 330 1094 330 1165 260.5 c 128,-1,23
 1236 191 1236 191 1354 191 c 0,24,25
 1444 191 1444 191 1509.5 219 c 128,-1,26
 1575 247 1575 247 1628 306 c 1,27,-1
 1786 165 l 1,28,29
 1694 73 1694 73 1588 30.5 c 128,-1,30
 1482 -12 1482 -12 1356 -12 c 0,31,32
 1220 -12 1220 -12 1121.5 37.5 c 128,-1,33
 1023 87 1023 87 964 167 c 1,34,35
 901 80 901 80 804.5 30 c 128,-1,36
 708 -20 708 -20 578 -20 c 0,0,1
570 165 m 0,37,38
 714 165 714 165 784 262 c 128,-1,39
 854 359 854 359 854 516 c 256,40,41
 854 673 854 673 786 769 c 128,-1,42
 718 865 718 865 574 865 c 0,43,44
 432 865 432 865 361 767.5 c 128,-1,45
 290 670 290 670 290 514 c 256,46,47
 290 358 290 358 359 261.5 c 128,-1,48
 428 165 428 165 570 165 c 0,37,38
1581 608 m 1,49,50
 1573 728 1573 728 1512 796.5 c 128,-1,51
 1451 865 1451 865 1328 865 c 0,52,53
 1252 865 1252 865 1201 831.5 c 128,-1,54
 1150 798 1150 798 1120.5 740 c 128,-1,55
 1091 682 1091 682 1083 608 c 1,56,-1
 1581 608 l 1,49,50
EndSplineSet
EndChar

StartChar: tcaron
Encoding: 357 357 292
Width: 758
GlyphClass: 1
Flags: W
LayerCount: 2
Fore
SplineSet
659 1163 m 1,0,-1
 528 1163 l 1,1,-1
 664 1561 l 1,2,-1
 909 1561 l 1,3,-1
 659 1163 l 1,0,-1
484 -20 m 0,4,5
 384 -20 384 -20 321.5 19.5 c 128,-1,6
 259 59 259 59 230 128 c 128,-1,7
 201 197 201 197 201 287 c 2,8,-1
 201 848 l 1,9,-1
 33 848 l 1,10,-1
 33 1039 l 1,11,-1
 204 1039 l 1,12,-1
 204 1263 l 1,13,-1
 408 1414 l 1,14,-1
 408 1039 l 1,15,-1
 676 1039 l 1,16,-1
 676 848 l 1,17,-1
 408 848 l 1,18,-1
 408 277 l 2,19,20
 408 219 408 219 434.5 194 c 128,-1,21
 461 169 461 169 509 169 c 0,22,23
 581 169 581 169 624.5 184.5 c 128,-1,24
 668 200 668 200 668 201 c 1,25,-1
 668 7 l 2,26,27
 668 5 668 5 618.5 -7.5 c 128,-1,28
 569 -20 569 -20 484 -20 c 0,4,5
EndSplineSet
EndChar

StartChar: Tbar
Encoding: 358 358 293
Width: 1197
GlyphClass: 1
Flags: W
LayerCount: 2
Fore
SplineSet
711 0 m 1,0,-1
 486 0 l 1,1,-1
 486 633 l 1,2,-1
 283 633 l 1,3,-1
 283 782 l 1,4,-1
 486 782 l 1,5,-1
 486 1216 l 1,6,-1
 33 1216 l 1,7,-1
 33 1413 l 1,8,-1
 1164 1413 l 1,9,-1
 1164 1216 l 1,10,-1
 711 1216 l 1,11,-1
 711 782 l 1,12,-1
 918 782 l 1,13,-1
 918 633 l 1,14,-1
 711 633 l 1,15,-1
 711 0 l 1,0,-1
EndSplineSet
Position2: "'cpsp' Capital Spacing lookup 0 subtable" dx=5 dy=0 dh=10 dv=0
EndChar

StartChar: tbar
Encoding: 359 359 294
Width: 746
GlyphClass: 1
Flags: W
LayerCount: 2
Fore
SplineSet
497 -20 m 0,0,1
 396 -20 396 -20 330 18.5 c 128,-1,2
 264 57 264 57 231.5 126.5 c 128,-1,3
 199 196 199 196 199 287 c 2,4,-1
 199 447 l 1,5,-1
 30 447 l 1,6,-1
 30 596 l 1,7,-1
 199 596 l 1,8,-1
 199 860 l 1,9,-1
 32 860 l 1,10,-1
 32 1039 l 1,11,-1
 202 1039 l 1,12,-1
 202 1256 l 1,13,-1
 406 1403 l 1,14,-1
 406 1039 l 1,15,-1
 675 1039 l 1,16,-1
 675 860 l 1,17,-1
 406 860 l 1,18,-1
 406 596 l 1,19,-1
 682 596 l 1,20,-1
 682 447 l 1,21,-1
 406 447 l 1,22,-1
 406 313 l 2,23,24
 406 234 406 234 442.5 200 c 128,-1,25
 479 166 479 166 535 166 c 0,26,27
 597 166 597 166 667 202 c 1,28,-1
 667 7 l 1,29,30
 639 -4 639 -4 593 -12 c 128,-1,31
 547 -20 547 -20 497 -20 c 0,0,1
EndSplineSet
EndChar

StartChar: longs
Encoding: 383 383 318
Width: 702
GlyphClass: 2
Flags: W
LayerCount: 2
Fore
SplineSet
434 0 m 1,0,-1
 214 0 l 1,1,-1
 214 860 l 1,2,-1
 25 860 l 1,3,-1
 25 1037 l 1,4,-1
 216 1037 l 1,5,-1
 216 1170 l 2,6,7
 216 1256 216 1256 259.5 1314.5 c 128,-1,8
 303 1373 303 1373 373.5 1403.5 c 128,-1,9
 444 1434 444 1434 527 1434 c 0,10,11
 619 1434 619 1434 706 1394 c 1,12,-1
 637 1223 l 1,13,14
 586 1245 586 1245 543 1245 c 0,15,16
 496 1245 496 1245 465 1216.5 c 128,-1,17
 434 1188 434 1188 434 1124 c 2,18,-1
 434 0 l 1,0,-1
EndSplineSet
EndChar

StartChar: florin
Encoding: 402 402 319
Width: 1061
GlyphClass: 1
Flags: W
LayerCount: 2
Fore
SplineSet
82 -457 m 1,0,-1
 82 -274 l 1,1,2
 218 -274 218 -274 293 -244 c 128,-1,3
 368 -214 368 -214 401 -150 c 128,-1,4
 434 -86 434 -86 434 30 c 2,5,-1
 434 859 l 1,6,-1
 249 859 l 1,7,-1
 249 1039 l 1,8,-1
 434 1039 l 1,9,-1
 434 1164 l 2,10,11
 434 1251 434 1251 476 1315 c 128,-1,12
 518 1379 518 1379 586 1413.5 c 128,-1,13
 654 1448 654 1448 732 1448 c 0,14,15
 855 1448 855 1448 970 1352 c 1,16,-1
 847 1220 l 1,17,18
 812 1246 812 1246 785.5 1256 c 128,-1,19
 759 1266 759 1266 729 1266 c 0,20,21
 684 1266 684 1266 650.5 1239.5 c 128,-1,22
 617 1213 617 1213 617 1155 c 2,23,-1
 617 1039 l 1,24,-1
 934 1039 l 1,25,-1
 934 859 l 1,26,-1
 617 859 l 1,27,-1
 617 34 l 2,28,29
 617 -130 617 -130 552.5 -239 c 128,-1,30
 488 -348 488 -348 368.5 -402.5 c 128,-1,31
 249 -457 249 -457 82 -457 c 1,0,-1
EndSplineSet
EndChar

StartChar: Ohorn
Encoding: 416 416 320
Width: 1524
GlyphClass: 1
Flags: W
LayerCount: 2
Fore
SplineSet
761 -20 m 0,0,1
 542 -20 542 -20 392 78 c 0,2,3
 287 147 287 147 221.5 245 c 128,-1,4
 156 343 156 343 125.5 461 c 128,-1,5
 95 579 95 579 95 707 c 0,6,7
 95 834 95 834 125.5 952 c 128,-1,8
 156 1070 156 1070 221.5 1168 c 128,-1,9
 287 1266 287 1266 392 1336 c 0,10,11
 542 1434 542 1434 761 1434 c 0,12,13
 1106 1434 1106 1434 1285 1191 c 1,14,15
 1340 1240 1340 1240 1340 1359 c 2,16,-1
 1340 1434 l 1,17,-1
 1492 1434 l 1,18,-1
 1492 1345 l 2,19,20
 1492 1143 1492 1143 1361 1058 c 1,21,22
 1429 900 1429 900 1429 707 c 0,23,24
 1429 516 1429 516 1358 349.5 c 128,-1,25
 1287 183 1287 183 1131 78 c 0,26,27
 981 -20 981 -20 761 -20 c 0,0,1
761 180 m 0,28,29
 912 180 912 180 1011 253.5 c 128,-1,30
 1110 327 1110 327 1153.5 446 c 128,-1,31
 1197 565 1197 565 1197 707 c 0,32,33
 1197 937 1197 937 1095 1077 c 0,34,35
 983 1233 983 1233 761 1233 c 0,36,37
 611 1233 611 1233 514 1162 c 0,38,39
 414 1086 414 1086 371 967 c 128,-1,40
 328 848 328 848 328 707 c 0,41,42
 328 476 328 476 429 335 c 0,43,44
 541 180 541 180 761 180 c 0,28,29
EndSplineSet
EndChar

StartChar: ohorn
Encoding: 417 417 321
Width: 1146
GlyphClass: 1
Flags: W
LayerCount: 2
Fore
SplineSet
575 -20 m 0,0,1
 417 -20 417 -20 302.5 54.5 c 128,-1,2
 188 129 188 129 126 251 c 128,-1,3
 64 373 64 373 64 516 c 0,4,5
 64 656 64 656 125.5 779.5 c 128,-1,6
 187 903 187 903 309 980 c 0,7,8
 426 1052 426 1052 576 1052 c 0,9,10
 735 1052 735 1052 850 979 c 0,11,12
 953 913 953 913 1014 809 c 1,13,14
 1065 860 1065 860 1065 976 c 2,15,-1
 1065 1052 l 1,16,-1
 1217 1052 l 1,17,-1
 1217 960 l 2,18,19
 1217 805 1217 805 1141 713 c 0,20,21
 1112 678 1112 678 1071 656 c 1,22,23
 1086 589 1086 589 1086 518 c 0,24,25
 1086 374 1086 374 1024 251 c 128,-1,26
 962 128 962 128 841 52 c 0,27,28
 724 -20 724 -20 575 -20 c 0,0,1
575 166 m 0,29,30
 674 166 674 166 737 213 c 128,-1,31
 800 260 800 260 829.5 339 c 128,-1,32
 859 418 859 418 859 516 c 0,33,34
 859 611 859 611 830 691 c 128,-1,35
 801 771 801 771 738 818 c 128,-1,36
 675 865 675 865 575 865 c 0,37,38
 476 865 476 865 414 818.5 c 128,-1,39
 352 772 352 772 321.5 693 c 128,-1,40
 291 614 291 614 291 516 c 0,41,42
 291 422 291 422 320 341.5 c 128,-1,43
 349 261 349 261 411.5 213.5 c 128,-1,44
 474 166 474 166 575 166 c 0,29,30
EndSplineSet
EndChar

StartChar: uni01C3
Encoding: 451 451 324
Width: 610
GlyphClass: 1
Flags: W
LayerCount: 2
Fore
SplineSet
386 413 m 1,0,-1
 224 413 l 1,1,-1
 196 1434 l 1,2,-1
 415 1434 l 1,3,-1
 386 413 l 1,0,-1
427 0 m 1,4,-1
 183 0 l 1,5,-1
 183 242 l 1,6,-1
 427 242 l 1,7,-1
 427 0 l 1,4,-1
EndSplineSet
EndChar

StartChar: uni01DD
Encoding: 477 477 350
Width: 1084
GlyphClass: 1
Flags: W
LayerCount: 2
Fore
SplineSet
539 -12 m 0,0,1
 285 -12 285 -12 174.5 140 c 128,-1,2
 64 292 64 292 64 526 c 0,3,4
 64 551 64 551 67 566.5 c 128,-1,5
 70 582 70 582 71 586 c 2,6,-1
 72 590 l 1,7,-1
 788 590 l 1,8,9
 779 709 779 709 712.5 782 c 128,-1,10
 646 855 646 855 522 855 c 0,11,12
 426 855 426 855 364.5 830.5 c 128,-1,13
 303 806 303 806 252 750 c 1,14,-1
 99 885 l 1,15,16
 181 970 181 970 282.5 1011 c 128,-1,17
 384 1052 384 1052 519 1052 c 0,18,19
 686 1052 686 1052 798.5 979 c 128,-1,20
 911 906 911 906 967.5 787 c 128,-1,21
 1024 668 1024 668 1024 526 c 0,22,23
 1024 389 1024 389 971.5 266 c 128,-1,24
 919 143 919 143 806 63 c 0,25,26
 696 -12 696 -12 539 -12 c 0,0,1
539 170 m 0,27,28
 617 170 617 170 669 204 c 128,-1,29
 721 238 721 238 750.5 297 c 128,-1,30
 780 356 780 356 788 431 c 1,31,-1
 282 431 l 1,32,33
 290 310 290 310 352 240 c 128,-1,34
 414 170 414 170 539 170 c 0,27,28
EndSplineSet
EndChar

StartChar: uni01F1
Encoding: 497 497 355
Width: 2680
GlyphClass: 1
Flags: W
LayerCount: 2
Fore
SplineSet
584 0 m 2,0,-1
 191 0 l 1,1,-1
 191 1413 l 1,2,-1
 586 1413 l 2,3,4
 944 1413 944 1413 1129 1226 c 128,-1,5
 1314 1039 1314 1039 1314 696 c 0,6,7
 1314 358 1314 358 1122 179 c 128,-1,8
 930 0 930 0 584 0 c 2,0,-1
2599 0 m 1,9,-1
 1476 0 l 1,10,-1
 1476 160 l 1,11,-1
 2298 1210 l 1,12,-1
 1521 1210 l 1,13,-1
 1521 1413 l 1,14,-1
 2599 1413 l 1,15,-1
 2599 1246 l 1,16,-1
 1781 203 l 1,17,-1
 2599 203 l 1,18,-1
 2599 0 l 1,9,-1
559 206 m 2,19,20
 810 206 810 206 950 326 c 128,-1,21
 1090 446 1090 446 1090 707 c 0,22,23
 1090 963 1090 963 970.5 1085.5 c 128,-1,24
 851 1208 851 1208 582 1208 c 2,25,-1
 416 1208 l 1,26,-1
 416 206 l 1,27,-1
 559 206 l 2,19,20
EndSplineSet
Position2: "'cpsp' Capital Spacing lookup 0 subtable" dx=5 dy=0 dh=10 dv=0
EndChar

StartChar: uni01F2
Encoding: 498 498 356
Width: 2388
GlyphClass: 1
Flags: W
LayerCount: 2
Fore
SplineSet
584 0 m 2,0,-1
 191 0 l 1,1,-1
 191 1413 l 1,2,-1
 586 1413 l 2,3,4
 944 1413 944 1413 1129 1226 c 128,-1,5
 1314 1039 1314 1039 1314 696 c 0,6,7
 1314 358 1314 358 1122 179 c 128,-1,8
 930 0 930 0 584 0 c 2,0,-1
559 206 m 2,9,10
 810 206 810 206 950 326 c 128,-1,11
 1090 446 1090 446 1090 707 c 0,12,13
 1090 963 1090 963 970.5 1085.5 c 128,-1,14
 851 1208 851 1208 582 1208 c 2,15,-1
 416 1208 l 1,16,-1
 416 206 l 1,17,-1
 559 206 l 2,9,10
2316 0 m 1,18,-1
 1465 0 l 1,19,-1
 1465 146 l 1,20,-1
 2045 820 l 1,21,-1
 1494 820 l 1,22,-1
 1494 999 l 1,23,-1
 2316 999 l 1,24,-1
 2316 841 l 1,25,-1
 1756 181 l 1,26,-1
 2316 181 l 1,27,-1
 2316 0 l 1,18,-1
EndSplineSet
Position2: "'cpsp' Capital Spacing lookup 0 subtable" dx=5 dy=0 dh=10 dv=0
EndChar

StartChar: uni01F3
Encoding: 499 499 357
Width: 2200
GlyphClass: 1
Flags: W
LayerCount: 2
Fore
SplineSet
511 -20 m 0,0,1
 370 -20 370 -20 273.5 54 c 128,-1,2
 177 128 177 128 127 251 c 128,-1,3
 77 374 77 374 77 520 c 0,4,5
 77 660 77 660 126 784 c 128,-1,6
 175 908 175 908 276 987 c 0,7,8
 374 1060 374 1060 508 1060 c 0,9,10
 597 1060 597 1060 675.5 1027.5 c 128,-1,11
 754 995 754 995 809 928 c 1,12,-1
 809 1413 l 1,13,-1
 1027 1413 l 1,14,-1
 1027 0 l 1,15,-1
 825 0 l 1,16,-1
 816 119 l 1,17,18
 761 48 761 48 682 14 c 128,-1,19
 603 -20 603 -20 511 -20 c 0,0,1
2131 0 m 1,20,-1
 1246 0 l 1,21,-1
 1246 146 l 1,22,-1
 1849 860 l 1,23,-1
 1276 860 l 1,24,-1
 1276 1039 l 1,25,-1
 2131 1039 l 1,26,-1
 2131 881 l 1,27,-1
 1549 181 l 1,28,-1
 2131 181 l 1,29,-1
 2131 0 l 1,20,-1
562 177 m 0,30,31
 695 177 695 177 761 271.5 c 128,-1,32
 827 366 827 366 827 520 c 0,33,34
 827 672 827 672 760.5 768.5 c 128,-1,35
 694 865 694 865 562 865 c 0,36,37
 472 865 472 865 412.5 819.5 c 128,-1,38
 353 774 353 774 324 695.5 c 128,-1,39
 295 617 295 617 295 520 c 0,40,41
 295 368 295 368 362.5 272.5 c 128,-1,42
 430 177 430 177 562 177 c 0,30,31
EndSplineSet
EndChar

StartChar: uni0237
Encoding: 567 567 368
Width: 531
GlyphClass: 2
Flags: W
LayerCount: 2
Fore
SplineSet
83 -438 m 0,0,1
 7 -438 7 -438 -81 -406 c 1,2,-1
 -31 -227 l 1,3,4
 31 -242 31 -242 80 -242 c 0,5,6
 126 -242 126 -242 144 -215 c 128,-1,7
 162 -188 162 -188 162 -131 c 2,8,-1
 162 1039 l 1,9,-1
 373 1039 l 1,10,-1
 373 -117 l 2,11,12
 373 -261 373 -261 300 -349.5 c 128,-1,13
 227 -438 227 -438 83 -438 c 0,0,1
EndSplineSet
EndChar

StartChar: uni0250
Encoding: 592 592 369
Width: 1101
GlyphClass: 1
Flags: W
LayerCount: 2
Fore
SplineSet
584 -20 m 0,0,1
 447 -20 447 -20 352.5 34 c 128,-1,2
 258 88 258 88 208.5 183 c 128,-1,3
 159 278 159 278 159 403 c 2,4,-1
 159 1035 l 1,5,-1
 328 1035 l 1,6,-1
 349 881 l 1,7,8
 411 970 411 970 492 1013 c 128,-1,9
 573 1056 573 1056 691 1056 c 0,10,11
 785 1056 785 1056 867.5 1016.5 c 128,-1,12
 950 977 950 977 1000 905 c 128,-1,13
 1050 833 1050 833 1050 732 c 0,14,15
 1050 570 1050 570 940 498 c 128,-1,16
 830 426 830 426 645 426 c 2,17,-1
 361 426 l 1,18,19
 361 167 361 167 593 167 c 0,20,21
 674 167 674 167 739 211 c 128,-1,22
 804 255 804 255 840 318 c 1,23,-1
 1002 189 l 1,24,25
 851 -20 851 -20 584 -20 c 0,0,1
633 585 m 2,26,27
 725 585 725 585 777.5 628 c 128,-1,28
 830 671 830 671 830 733 c 0,29,30
 830 801 830 801 778 836 c 128,-1,31
 726 871 726 871 650 871 c 0,32,33
 569 871 569 871 503.5 830 c 128,-1,34
 438 789 438 789 400.5 724 c 128,-1,35
 363 659 363 659 361 585 c 1,36,-1
 633 585 l 2,26,27
EndSplineSet
EndChar

StartChar: uni0254
Encoding: 596 596 370
Width: 1016
GlyphClass: 1
Flags: W
LayerCount: 2
Fore
SplineSet
475 -20 m 0,0,1
 320 -20 320 -20 209.5 58.5 c 128,-1,2
 99 137 99 137 44 266 c 1,3,-1
 255 352 l 1,4,5
 278 270 278 270 336.5 223.5 c 128,-1,6
 395 177 395 177 479 177 c 0,7,8
 571 177 571 177 627.5 225.5 c 128,-1,9
 684 274 684 274 710.5 351.5 c 128,-1,10
 737 429 737 429 737 518 c 0,11,12
 737 605 737 605 711.5 683 c 128,-1,13
 686 761 686 761 629.5 809.5 c 128,-1,14
 573 858 573 858 479 858 c 0,15,16
 399 858 399 858 339 812.5 c 128,-1,17
 279 767 279 767 255 683 c 1,18,-1
 55 763 l 1,19,20
 105 904 105 904 215 980 c 128,-1,21
 325 1056 325 1056 473 1056 c 0,22,23
 592 1056 592 1056 683 1012.5 c 128,-1,24
 774 969 774 969 834.5 893.5 c 128,-1,25
 895 818 895 818 925 721 c 128,-1,26
 955 624 955 624 955 518 c 0,27,28
 955 416 955 416 926.5 319.5 c 128,-1,29
 898 223 898 223 838.5 146.5 c 128,-1,30
 779 70 779 70 689 25 c 128,-1,31
 599 -20 599 -20 475 -20 c 0,0,1
EndSplineSet
EndChar

StartChar: uni0258
Encoding: 600 600 371
Width: 1084
GlyphClass: 1
Flags: W
LayerCount: 2
Fore
SplineSet
519 -12 m 0,0,1
 384 -12 384 -12 282.5 29 c 128,-1,2
 181 70 181 70 99 155 c 1,3,-1
 252 290 l 1,4,5
 303 234 303 234 364.5 209.5 c 128,-1,6
 426 185 426 185 522 185 c 0,7,8
 646 185 646 185 712.5 257.5 c 128,-1,9
 779 330 779 330 788 449 c 1,10,-1
 72 449 l 1,11,12
 65 480 65 480 64 514 c 0,13,14
 64 748 64 748 174.5 900 c 128,-1,15
 285 1052 285 1052 539 1052 c 0,16,17
 661 1052 661 1052 751.5 1008 c 128,-1,18
 842 964 842 964 903 888.5 c 128,-1,19
 964 813 964 813 994 716.5 c 128,-1,20
 1024 620 1024 620 1024 514 c 0,21,22
 1024 377 1024 377 969.5 256.5 c 128,-1,23
 915 136 915 136 796 60 c 0,24,25
 681 -12 681 -12 519 -12 c 0,0,1
788 609 m 1,26,27
 780 684 780 684 750.5 742.5 c 128,-1,28
 721 801 721 801 669 835 c 128,-1,29
 617 869 617 869 539 869 c 0,30,31
 414 869 414 869 352 799.5 c 128,-1,32
 290 730 290 730 282 609 c 1,33,-1
 788 609 l 1,26,27
EndSplineSet
EndChar

StartChar: uni0259
Encoding: 601 601 372
Width: 1084
GlyphClass: 1
Flags: W
LayerCount: 2
Fore
SplineSet
539 -12 m 0,0,1
 285 -12 285 -12 174.5 140 c 128,-1,2
 64 292 64 292 64 526 c 0,3,4
 64 551 64 551 67 566.5 c 128,-1,5
 70 582 70 582 71 586 c 2,6,-1
 72 590 l 1,7,-1
 788 590 l 1,8,9
 779 709 779 709 712.5 782 c 128,-1,10
 646 855 646 855 522 855 c 0,11,12
 426 855 426 855 364.5 830.5 c 128,-1,13
 303 806 303 806 252 750 c 1,14,-1
 99 885 l 1,15,16
 181 970 181 970 282.5 1011 c 128,-1,17
 384 1052 384 1052 519 1052 c 0,18,19
 686 1052 686 1052 798.5 979 c 128,-1,20
 911 906 911 906 967.5 787 c 128,-1,21
 1024 668 1024 668 1024 526 c 0,22,23
 1024 389 1024 389 971.5 266 c 128,-1,24
 919 143 919 143 806 63 c 0,25,26
 696 -12 696 -12 539 -12 c 0,0,1
539 170 m 0,27,28
 617 170 617 170 669 204 c 128,-1,29
 721 238 721 238 750.5 297 c 128,-1,30
 780 356 780 356 788 431 c 1,31,-1
 282 431 l 1,32,33
 290 310 290 310 352 240 c 128,-1,34
 414 170 414 170 539 170 c 0,27,28
EndSplineSet
EndChar

StartChar: uni0261
Encoding: 609 609 373
Width: 1173
GlyphClass: 1
Flags: W
LayerCount: 2
Fore
SplineSet
557 -437 m 0,0,1
 268 -437 268 -437 119 -227 c 1,2,-1
 284 -108 l 1,3,4
 320 -170 320 -170 389.5 -210 c 128,-1,5
 459 -250 459 -250 560 -250 c 0,6,7
 675 -250 675 -250 740.5 -188 c 128,-1,8
 806 -126 806 -126 806 0 c 2,9,-1
 806 127 l 1,10,11
 752 59 752 59 674.5 27 c 128,-1,12
 597 -5 597 -5 510 -5 c 0,13,14
 368 -5 368 -5 271 69 c 128,-1,15
 174 143 174 143 124 264.5 c 128,-1,16
 74 386 74 386 74 527 c 0,17,18
 74 665 74 665 122.5 787 c 128,-1,19
 171 909 171 909 273 987 c 0,20,21
 371 1060 371 1060 507 1060 c 0,22,23
 593 1060 593 1060 671.5 1028 c 128,-1,24
 750 996 750 996 806 928 c 1,25,-1
 806 1039 l 1,26,-1
 1022 1039 l 1,27,-1
 1022 12 l 2,28,29
 1022 -202 1022 -202 897.5 -319.5 c 128,-1,30
 773 -437 773 -437 557 -437 c 0,0,1
559 191 m 0,31,32
 649 191 649 191 707.5 235.5 c 128,-1,33
 766 280 766 280 795 356.5 c 128,-1,34
 824 433 824 433 824 527 c 0,35,36
 824 618 824 618 796.5 695 c 128,-1,37
 769 772 769 772 710 819 c 128,-1,38
 651 866 651 866 559 866 c 0,39,40
 468 866 468 866 408.5 819.5 c 128,-1,41
 349 773 349 773 320.5 696 c 128,-1,42
 292 619 292 619 292 527 c 0,43,44
 292 437 292 437 319.5 361 c 128,-1,45
 347 285 347 285 405.5 238 c 128,-1,46
 464 191 464 191 559 191 c 0,31,32
EndSplineSet
EndChar

StartChar: circumflex
Encoding: 710 710 375
Width: 684
GlyphClass: 1
Flags: W
LayerCount: 2
Fore
SplineSet
661 1098 m 1,0,-1
 481 1098 l 1,1,-1
 340 1256 l 1,2,-1
 201 1098 l 1,3,-1
 21 1098 l 1,4,-1
 340 1451 l 1,5,-1
 661 1098 l 1,0,-1
EndSplineSet
EndChar

StartChar: caron
Encoding: 711 711 376
Width: 688
GlyphClass: 1
Flags: W
LayerCount: 2
Fore
SplineSet
344 1080 m 1,0,-1
 25 1412 l 1,1,-1
 205 1412 l 1,2,-1
 344 1262 l 1,3,-1
 485 1412 l 1,4,-1
 665 1412 l 1,5,-1
 344 1080 l 1,0,-1
EndSplineSet
EndChar

StartChar: uni02D0
Encoding: 720 720 377
Width: 552
GlyphClass: 1
Flags: W
LayerCount: 2
Fore
SplineSet
282 558 m 1,0,-1
 37 999 l 1,1,-1
 509 1011 l 1,2,-1
 282 558 l 1,0,-1
43 -12 m 1,3,-1
 270 441 l 1,4,-1
 515 0 l 1,5,-1
 43 -12 l 1,3,-1
EndSplineSet
EndChar

StartChar: uni02D1
Encoding: 721 721 378
Width: 559
GlyphClass: 1
Flags: W
LayerCount: 2
Fore
SplineSet
286 228 m 1,0,-1
 40 671 l 1,1,-1
 513 682 l 1,2,-1
 286 228 l 1,0,-1
EndSplineSet
EndChar

StartChar: uni02F5
Encoding: 757 757 385
Width: 1122
GlyphClass: 1
Flags: W
LayerCount: 2
Fore
SplineSet
617 679 m 1,0,-1
 442 679 l 1,1,-1
 150 997 l 1,2,-1
 394 997 l 1,3,-1
 617 679 l 1,0,-1
975 679 m 1,4,-1
 798 679 l 1,5,-1
 507 997 l 1,6,-1
 752 997 l 1,7,-1
 975 679 l 1,4,-1
EndSplineSet
EndChar

StartChar: uni02F6
Encoding: 758 758 386
Width: 1122
GlyphClass: 1
Flags: W
LayerCount: 2
Fore
SplineSet
329 679 m 1,0,-1
 165 679 l 1,1,-1
 388 997 l 1,2,-1
 597 997 l 1,3,-1
 329 679 l 1,0,-1
672 679 m 1,4,-1
 508 679 l 1,5,-1
 730 997 l 1,6,-1
 969 997 l 1,7,-1
 672 679 l 1,4,-1
EndSplineSet
EndChar

StartChar: gravecomb
Encoding: 768 768 387
Width: 0
GlyphClass: 4
Flags: W
AnchorPoint: "Anchor-1" -145 1039 mark 0
LayerCount: 2
Fore
SplineSet
-44 1150 m 1,0,-1
 -214 1150 l 1,1,-1
 -506 1453 l 1,2,-1
 -267 1453 l 1,3,-1
 -44 1150 l 1,0,-1
EndSplineSet
EndChar

StartChar: acutecomb
Encoding: 769 769 388
Width: 0
GlyphClass: 4
Flags: W
AnchorPoint: "Anchor-1" -342 1039 mark 0
LayerCount: 2
Fore
SplineSet
-328 1164 m 5,0,-1
 -492 1164 l 1,1,-1
 -269 1453 l 1,2,-1
 -30 1453 l 1,3,-1
 -328 1164 l 5,0,-1
EndSplineSet
EndChar

StartChar: uni0302
Encoding: 770 770 389
Width: 0
GlyphClass: 4
Flags: W
AnchorPoint: "Anchor-1" -325 1019 mark 0
LayerCount: 2
Fore
SplineSet
-22 1118 m 5,0,-1
 -202 1118 l 5,1,-1
 -343 1276 l 5,2,-1
 -482 1118 l 5,3,-1
 -662 1118 l 5,4,-1
 -343 1471 l 5,5,-1
 -22 1118 l 5,0,-1
EndSplineSet
EndChar

StartChar: tildecomb
Encoding: 771 771 390
Width: 0
GlyphClass: 4
Flags: W
AnchorPoint: "Anchor-1" -436 1050 mark 0
LayerCount: 2
Fore
SplineSet
-308 1164 m 0,0,1
 -363 1164 -363 1164 -402.5 1187.5 c 128,-1,2
 -442 1211 -442 1211 -483 1256 c 0,3,4
 -509 1284 -509 1284 -527.5 1297.5 c 128,-1,5
 -546 1311 -546 1311 -567 1311 c 0,6,7
 -600 1311 -600 1311 -617 1273 c 128,-1,8
 -634 1235 -634 1235 -634 1174 c 1,9,-1
 -760 1174 l 1,10,11
 -760 1302 -760 1302 -708.5 1375.5 c 128,-1,12
 -657 1449 -657 1449 -561 1449 c 0,13,14
 -508 1449 -508 1449 -470 1426 c 128,-1,15
 -432 1403 -432 1403 -390 1357 c 0,16,17
 -361 1328 -361 1328 -343 1315 c 128,-1,18
 -325 1302 -325 1302 -306 1302 c 0,19,20
 -277 1302 -277 1302 -259.5 1338 c 128,-1,21
 -242 1374 -242 1374 -242 1443 c 1,22,-1
 -109 1443 l 1,23,24
 -109 1303 -109 1303 -163.5 1233.5 c 128,-1,25
 -218 1164 -218 1164 -308 1164 c 0,0,1
EndSplineSet
EndChar

StartChar: uni0304
Encoding: 772 772 391
Width: 0
GlyphClass: 4
Flags: W
AnchorPoint: "Anchor-1" -418 1039 mark 0
LayerCount: 2
Fore
SplineSet
-146 1198 m 1,0,-1
 -699 1198 l 1,1,-1
 -699 1336 l 1,2,-1
 -146 1336 l 1,3,-1
 -146 1198 l 1,0,-1
EndSplineSet
EndChar

StartChar: uni0306
Encoding: 774 774 392
Width: 0
GlyphClass: 4
Flags: W
AnchorPoint: "Anchor-1" -405 1039 mark 0
LayerCount: 2
Fore
SplineSet
-408 1183 m 0,0,1
 -568 1183 -568 1183 -644.5 1255 c 128,-1,2
 -721 1327 -721 1327 -721 1453 c 1,3,-1
 -560 1453 l 1,4,5
 -560 1385 -560 1385 -516 1351 c 128,-1,6
 -472 1317 -472 1317 -408 1317 c 256,7,8
 -344 1317 -344 1317 -300.5 1351.5 c 128,-1,9
 -257 1386 -257 1386 -257 1453 c 1,10,-1
 -96 1453 l 1,11,12
 -96 1313 -96 1313 -179.5 1248 c 128,-1,13
 -263 1183 -263 1183 -408 1183 c 0,0,1
EndSplineSet
EndChar

StartChar: uni0307
Encoding: 775 775 393
Width: 0
GlyphClass: 4
Flags: W
AnchorPoint: "Anchor-1" -269 1039 mark 0
LayerCount: 2
Fore
SplineSet
-149 1238 m 1,0,-1
 -379 1238 l 1,1,-1
 -379 1453 l 1,2,-1
 -149 1453 l 1,3,-1
 -149 1238 l 1,0,-1
EndSplineSet
EndChar

StartChar: uni0308
Encoding: 776 776 394
Width: 0
GlyphClass: 4
Flags: W
AnchorPoint: "Anchor-1" -420 1039 mark 0
LayerCount: 2
Fore
SplineSet
-497 1238 m 1,0,-1
 -691 1238 l 1,1,-1
 -691 1453 l 1,2,-1
 -497 1453 l 1,3,-1
 -497 1238 l 1,0,-1
-148 1238 m 1,4,-1
 -342 1238 l 1,5,-1
 -342 1453 l 1,6,-1
 -148 1453 l 1,7,-1
 -148 1238 l 1,4,-1
EndSplineSet
EndChar

StartChar: hookabovecomb
Encoding: 777 777 395
Width: 14
GlyphClass: 4
Flags: W
AnchorPoint: "Anchor-1" -300 1026 mark 0
LayerCount: 2
Fore
SplineSet
-345 1072 m 1,0,-1
 -369 1165 l 1,1,-1
 -350 1169 l 2,2,3
 -310 1175 -310 1175 -285.5 1182.5 c 128,-1,4
 -261 1190 -261 1190 -244.5 1207.5 c 128,-1,5
 -228 1225 -228 1225 -228 1256 c 0,6,7
 -228 1332 -228 1332 -342 1342 c 0,8,9
 -377 1346 -377 1346 -433 1346 c 1,10,-1
 -433 1482 l 1,11,-1
 -400 1482 l 2,12,13
 -305 1482 -305 1482 -231 1458.5 c 128,-1,14
 -157 1435 -157 1435 -115 1388 c 128,-1,15
 -73 1341 -73 1341 -73 1271 c 0,16,17
 -73 1147 -73 1147 -205 1104 c 0,18,19
 -259 1085 -259 1085 -345 1072 c 1,0,-1
EndSplineSet
EndChar

StartChar: uni030A
Encoding: 778 778 396
Width: 0
GlyphClass: 4
Flags: W
AnchorPoint: "Anchor-1" -316 959 mark 0
LayerCount: 2
Fore
SplineSet
-317 1032 m 4,0,1
 -382 1032 -382 1032 -432 1063.5 c 132,-1,2
 -482 1095 -482 1095 -510 1146 c 132,-1,3
 -538 1197 -538 1197 -538 1255 c 4,4,5
 -538 1348 -538 1348 -473.5 1412 c 132,-1,6
 -409 1476 -409 1476 -317 1476 c 4,7,8
 -222 1476 -222 1476 -158 1409.5 c 132,-1,9
 -94 1343 -94 1343 -94 1255 c 4,10,11
 -94 1158 -94 1158 -161 1095 c 132,-1,12
 -228 1032 -228 1032 -317 1032 c 4,0,1
-317 1154 m 4,13,14
 -274 1154 -274 1154 -245.5 1183 c 132,-1,15
 -217 1212 -217 1212 -217 1256 c 4,16,17
 -217 1297 -217 1297 -243 1325 c 132,-1,18
 -269 1353 -269 1353 -317 1353 c 4,19,20
 -362 1353 -362 1353 -388.5 1326 c 132,-1,21
 -415 1299 -415 1299 -415 1256 c 4,22,23
 -415 1212 -415 1212 -387 1183 c 132,-1,24
 -359 1154 -359 1154 -317 1154 c 4,13,14
EndSplineSet
EndChar

StartChar: uni030B
Encoding: 779 779 397
Width: 0
GlyphClass: 4
Flags: W
AnchorPoint: "Anchor-1" -547 1039 mark 0
LayerCount: 2
Fore
SplineSet
-668 1135 m 1,0,-1
 -832 1135 l 1,1,-1
 -609 1453 l 1,2,-1
 -400 1453 l 1,3,-1
 -668 1135 l 1,0,-1
-325 1135 m 1,4,-1
 -489 1135 l 1,5,-1
 -267 1453 l 1,6,-1
 -28 1453 l 1,7,-1
 -325 1135 l 1,4,-1
EndSplineSet
EndChar

StartChar: uni030C
Encoding: 780 780 398
Width: 0
GlyphClass: 4
Flags: W
AnchorPoint: "Anchor-1" -327 1039 mark 0
LayerCount: 2
Fore
SplineSet
-344 1120 m 1,0,-1
 -663 1452 l 1,1,-1
 -483 1452 l 1,2,-1
 -344 1302 l 1,3,-1
 -203 1452 l 1,4,-1
 -23 1452 l 1,5,-1
 -344 1120 l 1,0,-1
EndSplineSet
EndChar

StartChar: uni030F
Encoding: 783 783 399
Width: 0
GlyphClass: 4
Flags: W
AnchorPoint: "Anchor-1" -342 1039 mark 0
LayerCount: 2
Fore
SplineSet
-403 1135 m 1,0,-1
 -578 1135 l 1,1,-1
 -870 1453 l 1,2,-1
 -626 1453 l 1,3,-1
 -403 1135 l 1,0,-1
-45 1135 m 1,4,-1
 -222 1135 l 1,5,-1
 -513 1453 l 1,6,-1
 -268 1453 l 1,7,-1
 -45 1135 l 1,4,-1
EndSplineSet
EndChar

StartChar: uni0312
Encoding: 786 786 400
Width: 0
GlyphClass: 4
Flags: W
AnchorPoint: "Anchor-1" -291 1039 mark 0
LayerCount: 2
Fore
SplineSet
-218 1161 m 1,0,-1
 -459 1161 l 1,1,-1
 -217 1471 l 1,2,-1
 -86 1471 l 1,3,-1
 -218 1161 l 1,0,-1
EndSplineSet
EndChar

StartChar: uni031B
Encoding: 795 795 401
Width: 14
GlyphClass: 1
Flags: W
LayerCount: 2
Fore
SplineSet
-398 982 m 1,0,-1
 -398 1127 l 1,1,2
 -317 1127 -317 1127 -278 1174.5 c 128,-1,3
 -239 1222 -239 1222 -239 1326 c 2,4,-1
 -239 1401 l 1,5,-1
 -87 1401 l 1,6,-1
 -87 1312 l 2,7,8
 -87 1162 -87 1162 -163.5 1072 c 128,-1,9
 -240 982 -240 982 -398 982 c 1,0,-1
EndSplineSet
EndChar

StartChar: dotbelowcomb
Encoding: 803 803 402
Width: 0
GlyphClass: 4
Flags: W
AnchorPoint: "Anchor-1" -269 -561 mark 0
LayerCount: 2
Fore
SplineSet
-149 -302 m 1,0,-1
 -379 -302 l 1,1,-1
 -379 -87 l 1,2,-1
 -149 -87 l 1,3,-1
 -149 -302 l 1,0,-1
EndSplineSet
EndChar

StartChar: uni0326
Encoding: 806 806 403
Width: 0
GlyphClass: 4
Flags: W
AnchorPoint: "Anchor-3" -244 -459 basemark 0
AnchorPoint: "Anchor-3" -177 0 mark 0
AnchorPoint: "Anchor-0" -177 0 mark 0
LayerCount: 2
Fore
SplineSet
-282 -455 m 1,0,-1
 -413 -455 l 1,1,-1
 -281 -108 l 1,2,-1
 -40 -108 l 1,3,-1
 -282 -455 l 1,0,-1
EndSplineSet
EndChar

StartChar: uni0327
Encoding: 807 807 404
Width: 0
GlyphClass: 4
Flags: W
AnchorPoint: "Anchor-3" -285 -500 basemark 0
AnchorPoint: "Anchor-3" -262 0 mark 0
AnchorPoint: "Anchor-0" -262 0 mark 0
LayerCount: 2
Fore
SplineSet
-307 -517 m 0,0,1
 -373 -517 -373 -517 -424.5 -480.5 c 128,-1,2
 -476 -444 -476 -444 -499 -389 c 1,3,-1
 -376 -334 l 1,4,5
 -368 -357 -368 -357 -348 -373 c 128,-1,6
 -328 -389 -328 -389 -301 -389 c 0,7,8
 -261 -389 -261 -389 -238.5 -364 c 128,-1,9
 -216 -339 -216 -339 -216 -305 c 0,10,11
 -216 -256 -216 -256 -263 -223 c 128,-1,12
 -310 -190 -310 -190 -389 -190 c 2,13,-1
 -450 -190 l 1,14,-1
 -335 -2 l 1,15,-1
 -199 -2 l 1,16,-1
 -273 -105 l 1,17,18
 -178 -117 -178 -117 -131 -169.5 c 128,-1,19
 -84 -222 -84 -222 -84 -297 c 0,20,21
 -84 -387 -84 -387 -145.5 -452 c 128,-1,22
 -207 -517 -207 -517 -307 -517 c 0,0,1
EndSplineSet
EndChar

StartChar: uni0328
Encoding: 808 808 405
Width: 0
GlyphClass: 4
Flags: W
AnchorPoint: "Anchor-2" -169 0 mark 0
LayerCount: 2
Fore
SplineSet
-267 -451 m 0,0,1
 -367 -451 -367 -451 -426.5 -392.5 c 128,-1,2
 -486 -334 -486 -334 -486 -246 c 0,3,4
 -486 -175 -486 -175 -449.5 -121 c 128,-1,5
 -413 -67 -413 -67 -370 -36.5 c 128,-1,6
 -327 -6 -327 -6 -307 0 c 1,7,-1
 -138 0 l 1,8,9
 -164 -8 -164 -8 -211.5 -34.5 c 128,-1,10
 -259 -61 -259 -61 -305.5 -109 c 128,-1,11
 -352 -157 -352 -157 -352 -218 c 0,12,13
 -352 -312 -352 -312 -274 -312 c 0,14,15
 -208 -312 -208 -312 -166 -253 c 1,16,-1
 -52 -331 l 1,17,18
 -133 -451 -133 -451 -267 -451 c 0,0,1
EndSplineSet
EndChar

StartChar: pi
Encoding: 960 960 406
Width: 1018
GlyphClass: 1
Flags: W
LayerCount: 2
Fore
SplineSet
852 -20 m 0,0,1
 744 -20 744 -20 683.5 55 c 128,-1,2
 623 130 623 130 623 241 c 2,3,-1
 623 852 l 1,4,-1
 369 852 l 1,5,-1
 369 0 l 1,6,-1
 181 0 l 1,7,-1
 181 852 l 1,8,-1
 96 852 l 1,9,-1
 96 1039 l 1,10,-1
 896 1039 l 1,11,-1
 896 852 l 1,12,-1
 811 852 l 1,13,-1
 811 260 l 2,14,15
 811 143 811 143 867 143 c 0,16,17
 892 143 892 143 914 159 c 1,18,-1
 973 13 l 1,19,20
 920 -20 920 -20 852 -20 c 0,0,1
EndSplineSet
EndChar

StartChar: uni0402
Encoding: 1026 1026 409
Width: 1616
GlyphClass: 1
Flags: W
LayerCount: 2
Fore
SplineSet
1108 -19 m 0,0,1
 1024 -19 1024 -19 935.5 17.5 c 128,-1,2
 847 54 847 54 790 108 c 1,3,-1
 905 262 l 1,4,5
 939 226 939 226 984.5 208 c 128,-1,6
 1030 190 1030 190 1078 190 c 0,7,8
 1185 190 1185 190 1249.5 251.5 c 128,-1,9
 1314 313 1314 313 1314 426 c 0,10,11
 1314 554 1314 554 1284.5 630.5 c 128,-1,12
 1255 707 1255 707 1193 745 c 0,13,14
 1127 785 1127 785 1012 785 c 0,15,16
 909 785 909 785 832.5 748 c 128,-1,17
 756 711 756 711 711 658 c 1,18,-1
 711 0 l 1,19,-1
 486 0 l 1,20,-1
 486 1215 l 1,21,-1
 33 1215 l 1,22,-1
 33 1412 l 1,23,-1
 1164 1412 l 1,24,-1
 1164 1215 l 1,25,-1
 711 1215 l 1,26,-1
 711 913 l 1,27,28
 848 1001 848 1001 1012 1001 c 0,29,30
 1280 1001 1280 1001 1409 854.5 c 128,-1,31
 1538 708 1538 708 1538 439 c 0,32,33
 1538 286 1538 286 1484 184 c 128,-1,34
 1430 82 1430 82 1333 31.5 c 128,-1,35
 1236 -19 1236 -19 1108 -19 c 0,0,1
EndSplineSet
Position2: "'cpsp' Capital Spacing lookup 0 subtable" dx=5 dy=0 dh=10 dv=0
EndChar

StartChar: uni0404
Encoding: 1028 1028 411
Width: 1428
GlyphClass: 1
Flags: W
LayerCount: 2
Fore
SplineSet
764 -20 m 0,0,1
 545 -20 545 -20 395 78 c 0,2,3
 238 183 238 183 166.5 349.5 c 128,-1,4
 95 516 95 516 95 707 c 0,5,6
 95 899 95 899 166 1065.5 c 128,-1,7
 237 1232 237 1232 393 1338 c 0,8,9
 543 1436 543 1436 762 1436 c 0,10,11
 959 1436 959 1436 1118 1338.5 c 128,-1,12
 1277 1241 1277 1241 1367 1039 c 1,13,-1
 1158 956 l 1,14,15
 1115 1098 1115 1098 1009.5 1161 c 128,-1,16
 904 1224 904 1224 760 1224 c 0,17,18
 626 1224 626 1224 534 1170 c 128,-1,19
 442 1116 442 1116 390 1022.5 c 128,-1,20
 338 929 338 929 324 807 c 1,21,-1
 911 807 l 1,22,-1
 911 610 l 1,23,-1
 325 610 l 1,24,25
 348 419 348 419 457.5 305 c 128,-1,26
 567 191 567 191 764 191 c 0,27,28
 916 191 916 191 1012.5 258.5 c 128,-1,29
 1109 326 1109 326 1161 463 c 1,30,-1
 1369 378 l 1,31,32
 1280 176 1280 176 1121 78 c 128,-1,33
 962 -20 962 -20 764 -20 c 0,0,1
EndSplineSet
Position2: "'cpsp' Capital Spacing lookup 0 subtable" dx=5 dy=0 dh=10 dv=0
EndChar

StartChar: uni0406
Encoding: 1030 1030 413
Width: 607
GlyphClass: 1
Flags: W
LayerCount: 2
Fore
SplineSet
416 0 m 1,0,-1
 191 0 l 1,1,-1
 191 1413 l 1,2,-1
 416 1413 l 1,3,-1
 416 0 l 1,0,-1
EndSplineSet
Position2: "'cpsp' Capital Spacing lookup 0 subtable" dx=5 dy=0 dh=10 dv=0
EndChar

StartChar: uni0409
Encoding: 1033 1033 416
Width: 1961
GlyphClass: 1
Flags: W
LayerCount: 2
Fore
SplineSet
219 -20 m 0,0,1
 108 -20 108 -20 22 35 c 1,2,-1
 89 209 l 1,3,4
 160 186 160 186 204 186 c 0,5,6
 269 186 269 186 295 407 c 128,-1,7
 321 628 321 628 321 889 c 2,8,-1
 321 1412 l 1,9,-1
 1214 1412 l 1,10,-1
 1214 810 l 1,11,-1
 1420 810 l 2,12,13
 1557 810 1557 810 1666.5 765 c 128,-1,14
 1776 720 1776 720 1840 630.5 c 128,-1,15
 1904 541 1904 541 1904 408 c 0,16,17
 1904 277 1904 277 1841 186 c 128,-1,18
 1778 95 1778 95 1668.5 47.5 c 128,-1,19
 1559 0 1559 0 1420 0 c 2,20,-1
 992 0 l 1,21,-1
 992 1209 l 1,22,-1
 544 1209 l 1,23,-1
 544 891 l 2,24,25
 544 640 544 640 526.5 452 c 128,-1,26
 509 264 509 264 437.5 122 c 128,-1,27
 366 -20 366 -20 219 -20 c 0,0,1
1420 207 m 2,28,29
 1557 207 1557 207 1620 261 c 128,-1,30
 1683 315 1683 315 1683 408 c 0,31,32
 1683 603 1683 603 1420 603 c 2,33,-1
 1214 603 l 1,34,-1
 1214 207 l 1,35,-1
 1420 207 l 2,28,29
EndSplineSet
Position2: "'cpsp' Capital Spacing lookup 0 subtable" dx=5 dy=0 dh=10 dv=0
EndChar

StartChar: uni040A
Encoding: 1034 1034 417
Width: 2034
GlyphClass: 1
Flags: W
LayerCount: 2
Fore
SplineSet
1492 0 m 2,0,-1
 1064 0 l 1,1,-1
 1064 605 l 1,2,-1
 415 605 l 1,3,-1
 415 0 l 1,4,-1
 191 0 l 1,5,-1
 191 1412 l 1,6,-1
 415 1412 l 1,7,-1
 415 808 l 1,8,-1
 1064 808 l 1,9,-1
 1064 1412 l 1,10,-1
 1288 1412 l 1,11,-1
 1288 810 l 1,12,-1
 1492 810 l 2,13,14
 1630 810 1630 810 1740 764.5 c 128,-1,15
 1850 719 1850 719 1913.5 629.5 c 128,-1,16
 1977 540 1977 540 1977 408 c 0,17,18
 1977 277 1977 277 1914 186 c 128,-1,19
 1851 95 1851 95 1741.5 47.5 c 128,-1,20
 1632 0 1632 0 1492 0 c 2,0,-1
1492 207 m 2,21,22
 1629 207 1629 207 1692 261 c 128,-1,23
 1755 315 1755 315 1755 408 c 0,24,25
 1755 603 1755 603 1492 603 c 2,26,-1
 1288 603 l 1,27,-1
 1288 207 l 1,28,-1
 1492 207 l 2,21,22
EndSplineSet
Position2: "'cpsp' Capital Spacing lookup 0 subtable" dx=5 dy=0 dh=10 dv=0
EndChar

StartChar: uni040B
Encoding: 1035 1035 418
Width: 1638
GlyphClass: 1
Flags: W
LayerCount: 2
Fore
SplineSet
1538 0 m 1,0,-1
 1314 0 l 1,1,-1
 1314 401 l 2,2,3
 1314 528 1314 528 1285.5 613.5 c 128,-1,4
 1257 699 1257 699 1191 742 c 128,-1,5
 1125 785 1125 785 1012 785 c 0,6,7
 909 785 909 785 832.5 748 c 128,-1,8
 756 711 756 711 711 658 c 1,9,-1
 711 0 l 1,10,-1
 486 0 l 1,11,-1
 486 1215 l 1,12,-1
 33 1215 l 1,13,-1
 33 1412 l 1,14,-1
 1164 1412 l 1,15,-1
 1164 1215 l 1,16,-1
 711 1215 l 1,17,-1
 711 913 l 1,18,19
 841 1001 841 1001 1012 1001 c 0,20,21
 1280 1001 1280 1001 1409 846.5 c 128,-1,22
 1538 692 1538 692 1538 419 c 2,23,-1
 1538 0 l 1,0,-1
EndSplineSet
Position2: "'cpsp' Capital Spacing lookup 0 subtable" dx=5 dy=0 dh=10 dv=0
EndChar

StartChar: uni040F
Encoding: 1039 1039 422
Width: 1479
GlyphClass: 1
Flags: W
LayerCount: 2
Fore
SplineSet
851 -307 m 1,0,-1
 628 -307 l 1,1,-1
 628 0 l 1,2,-1
 191 0 l 1,3,-1
 191 1412 l 1,4,-1
 415 1412 l 1,5,-1
 415 203 l 1,6,-1
 1064 203 l 1,7,-1
 1064 1412 l 1,8,-1
 1288 1412 l 1,9,-1
 1288 0 l 1,10,-1
 851 0 l 1,11,-1
 851 -307 l 1,0,-1
EndSplineSet
Position2: "'cpsp' Capital Spacing lookup 0 subtable" dx=5 dy=0 dh=10 dv=0
EndChar

StartChar: uni0411
Encoding: 1041 1041 424
Width: 1265
GlyphClass: 1
Flags: W
LayerCount: 2
Fore
SplineSet
715 0 m 2,0,-1
 191 0 l 1,1,-1
 191 1412 l 1,2,-1
 991 1412 l 1,3,-1
 991 1209 l 1,4,-1
 415 1209 l 1,5,-1
 415 828 l 1,6,-1
 726 828 l 2,7,8
 876 828 876 828 975.5 775 c 128,-1,9
 1075 722 1075 722 1124 626.5 c 128,-1,10
 1173 531 1173 531 1173 403 c 0,11,12
 1173 274 1173 274 1110 184 c 128,-1,13
 1047 94 1047 94 942.5 47 c 128,-1,14
 838 0 838 0 715 0 c 2,0,-1
719 212 m 2,15,16
 820 212 820 212 885.5 265.5 c 128,-1,17
 951 319 951 319 951 426 c 0,18,19
 951 520 951 520 881.5 576 c 128,-1,20
 812 632 812 632 713 632 c 2,21,-1
 415 632 l 1,22,-1
 415 212 l 1,23,-1
 719 212 l 2,15,16
EndSplineSet
Position2: "'cpsp' Capital Spacing lookup 0 subtable" dx=5 dy=0 dh=10 dv=0
EndChar

StartChar: uni0413
Encoding: 1043 1043 426
Width: 1066
GlyphClass: 1
Flags: W
LayerCount: 2
Fore
SplineSet
415 0 m 1,0,-1
 191 0 l 1,1,-1
 191 1412 l 1,2,-1
 1033 1412 l 1,3,-1
 1033 1209 l 1,4,-1
 415 1209 l 1,5,-1
 415 0 l 1,0,-1
EndSplineSet
Position2: "'cpsp' Capital Spacing lookup 0 subtable" dx=5 dy=0 dh=10 dv=0
EndChar

StartChar: uni0414
Encoding: 1044 1044 427
Width: 1463
GlyphClass: 2
Flags: W
LayerCount: 2
Fore
SplineSet
1389 -307 m 1,0,-1
 1166 -307 l 1,1,-1
 1166 0 l 1,2,-1
 257 0 l 1,3,-1
 257 -306 l 1,4,-1
 33 -307 l 1,5,-1
 33 193 l 1,6,-1
 201 193 l 1,7,8
 274 348 274 348 309.5 517.5 c 128,-1,9
 345 687 345 687 345 901 c 2,10,-1
 345 1412 l 1,11,-1
 1239 1412 l 1,12,-1
 1239 193 l 1,13,-1
 1389 193 l 1,14,-1
 1389 -307 l 1,0,-1
1015 193 m 1,15,-1
 1015 1209 l 1,16,-1
 568 1209 l 1,17,-1
 568 902 l 2,18,19
 568 678 568 678 536.5 510.5 c 128,-1,20
 505 343 505 343 436 193 c 1,21,-1
 1015 193 l 1,15,-1
EndSplineSet
Substitution2: "'ss02' Style Set 2 lookup 18 subtable" uni0414.1
Substitution2: "'ss03' Style Set 3 lookup 17 subtable" uni0431.loclSRB
Substitution2: "'locl' Localized Forms in Cyrillic lookup 10 subtable" uni0414.1
Substitution2: "'locl' Localized Forms in Cyrillic lookup 9 subtable" uni0414.loclSRB
Substitution2: "'locl' Localized Forms in Cyrillic lookup 8 subtable" uni0431.loclSRB
Position2: "'cpsp' Capital Spacing lookup 0 subtable" dx=5 dy=0 dh=10 dv=0
EndChar

StartChar: uni0415
Encoding: 1045 1045 428
Width: 1243
GlyphClass: 1
Flags: W
LayerCount: 2
Fore
SplineSet
1124 0 m 1,0,-1
 191 0 l 1,1,-1
 191 1413 l 1,2,-1
 1124 1413 l 1,3,-1
 1124 1210 l 1,4,-1
 416 1210 l 1,5,-1
 416 808 l 1,6,-1
 1060 808 l 1,7,-1
 1060 606 l 1,8,-1
 416 606 l 1,9,-1
 416 210 l 1,10,-1
 1124 210 l 1,11,-1
 1124 0 l 1,0,-1
EndSplineSet
Position2: "'cpsp' Capital Spacing lookup 0 subtable" dx=5 dy=0 dh=10 dv=0
EndChar

StartChar: uni0416
Encoding: 1046 1046 429
Width: 2050
GlyphClass: 1
Flags: W
LayerCount: 2
Fore
SplineSet
2010 0 m 1,0,-1
 1734 0 l 1,1,-1
 1558 501 l 2,2,3
 1534 568 1534 568 1485.5 622 c 128,-1,4
 1437 676 1437 676 1368 676 c 2,5,-1
 1137 676 l 1,6,-1
 1137 0 l 1,7,-1
 913 0 l 1,8,-1
 913 676 l 1,9,-1
 681 676 l 2,10,11
 612 676 612 676 564.5 623 c 128,-1,12
 517 570 517 570 493 501 c 2,13,-1
 315 0 l 1,14,-1
 39 0 l 1,15,-1
 295 605 l 2,16,17
 331 686 331 686 393 757 c 128,-1,18
 455 828 455 828 531 828 c 1,19,-1
 113 1412 l 1,20,-1
 409 1412 l 1,21,-1
 758 882 l 1,22,-1
 913 882 l 1,23,-1
 913 1412 l 1,24,-1
 1137 1412 l 1,25,-1
 1137 882 l 1,26,-1
 1292 882 l 1,27,-1
 1640 1412 l 1,28,-1
 1937 1412 l 1,29,-1
 1519 828 l 1,30,31
 1594 828 1594 828 1656 757 c 128,-1,32
 1718 686 1718 686 1754 605 c 2,33,-1
 2010 0 l 1,0,-1
EndSplineSet
Position2: "'cpsp' Capital Spacing lookup 0 subtable" dx=5 dy=0 dh=10 dv=0
EndChar

StartChar: uni0417
Encoding: 1047 1047 430
Width: 1114
GlyphClass: 1
Flags: W
LayerCount: 2
Fore
SplineSet
510 -20 m 0,0,1
 368 -20 368 -20 246 33 c 128,-1,2
 124 86 124 86 57 198 c 1,3,-1
 238 317 l 1,4,5
 273 242 273 242 345.5 209.5 c 128,-1,6
 418 177 418 177 510 177 c 0,7,8
 586 177 586 177 651.5 204 c 128,-1,9
 717 231 717 231 757 285 c 128,-1,10
 797 339 797 339 797 419 c 0,11,12
 797 497 797 497 758.5 549 c 128,-1,13
 720 601 720 601 655 627 c 128,-1,14
 590 653 590 653 510 653 c 2,15,-1
 368 653 l 1,16,-1
 366 846 l 1,17,-1
 516 846 l 2,18,19
 577 846 577 846 627 868 c 128,-1,20
 677 890 677 890 706.5 932 c 128,-1,21
 736 974 736 974 736 1035 c 0,22,23
 736 1129 736 1129 671.5 1180.5 c 128,-1,24
 607 1232 607 1232 514 1232 c 0,25,26
 434 1232 434 1232 371.5 1192.5 c 128,-1,27
 309 1153 309 1153 297 1075 c 1,28,-1
 76 1075 l 1,29,30
 91 1248 91 1248 218 1341 c 128,-1,31
 345 1434 345 1434 512 1434 c 0,32,33
 624 1434 624 1434 723.5 1390 c 128,-1,34
 823 1346 823 1346 885 1261.5 c 128,-1,35
 947 1177 947 1177 947 1055 c 0,36,37
 947 959 947 959 905 882 c 128,-1,38
 863 805 863 805 780 763 c 1,39,40
 884 728 884 728 951.5 637 c 128,-1,41
 1019 546 1019 546 1019 403 c 0,42,43
 1019 297 1019 297 978 217.5 c 128,-1,44
 937 138 937 138 866.5 85 c 128,-1,45
 796 32 796 32 704 6 c 128,-1,46
 612 -20 612 -20 510 -20 c 0,0,1
EndSplineSet
Position2: "'cpsp' Capital Spacing lookup 0 subtable" dx=5 dy=0 dh=10 dv=0
EndChar

StartChar: uni0418
Encoding: 1048 1048 431
Width: 1443
GlyphClass: 1
Flags: W
LayerCount: 2
Fore
SplineSet
1252 0 m 1,0,-1
 1034 0 l 1,1,-1
 1034 1071 l 1,2,-1
 439 0 l 1,3,-1
 192 0 l 1,4,-1
 192 1413 l 1,5,-1
 408 1413 l 1,6,-1
 408 344 l 1,7,-1
 1007 1413 l 1,8,-1
 1252 1413 l 1,9,-1
 1252 0 l 1,0,-1
EndSplineSet
Position2: "'cpsp' Capital Spacing lookup 0 subtable" dx=5 dy=0 dh=10 dv=0
EndChar

StartChar: uni041A
Encoding: 1050 1050 433
Width: 1325
GlyphClass: 1
Flags: W
LayerCount: 2
Fore
SplineSet
1289 0 m 1,0,-1
 1013 0 l 1,1,-1
 836 501 l 2,2,3
 814 565 814 565 765 620.5 c 128,-1,4
 716 676 716 676 647 676 c 2,5,-1
 415 676 l 1,6,-1
 415 0 l 1,7,-1
 191 0 l 1,8,-1
 191 1412 l 1,9,-1
 415 1412 l 1,10,-1
 415 882 l 1,11,-1
 570 882 l 1,12,-1
 919 1412 l 1,13,-1
 1215 1412 l 1,14,-1
 797 828 l 1,15,16
 873 828 873 828 935 757 c 128,-1,17
 997 686 997 686 1033 605 c 2,18,-1
 1289 0 l 1,0,-1
EndSplineSet
Position2: "'cpsp' Capital Spacing lookup 0 subtable" dx=5 dy=0 dh=10 dv=0
EndChar

StartChar: uni041B
Encoding: 1051 1051 434
Width: 1413
GlyphClass: 2
Flags: W
LayerCount: 2
Fore
SplineSet
220 -20 m 0,0,1
 120 -20 120 -20 28 35 c 1,2,-1
 101 231 l 1,3,4
 144 201 144 201 178 201 c 0,5,6
 246 201 246 201 278 306 c 128,-1,7
 310 411 310 411 318.5 582 c 128,-1,8
 327 753 327 753 327 1064 c 2,9,-1
 327 1412 l 1,10,-1
 1222 1412 l 1,11,-1
 1222 0 l 1,12,-1
 998 0 l 1,13,-1
 998 1209 l 1,14,-1
 551 1209 l 1,15,-1
 551 989 l 2,16,17
 551 658 551 658 535 459 c 128,-1,18
 519 260 519 260 447 120 c 128,-1,19
 375 -20 375 -20 220 -20 c 0,0,1
EndSplineSet
Substitution2: "'ss02' Style Set 2 lookup 18 subtable" uni041B.1
Substitution2: "'ss03' Style Set 3 lookup 17 subtable" uni0414.loclSRB
Substitution2: "'locl' Localized Forms in Cyrillic lookup 10 subtable" uni041B.1
Substitution2: "'locl' Localized Forms in Cyrillic lookup 9 subtable" uni041B.loclSRB
Substitution2: "'locl' Localized Forms in Cyrillic lookup 8 subtable" uni0414.loclSRB
Position2: "'cpsp' Capital Spacing lookup 0 subtable" dx=5 dy=0 dh=10 dv=0
EndChar

StartChar: uni041F
Encoding: 1055 1055 438
Width: 1479
GlyphClass: 1
Flags: W
LayerCount: 2
Fore
SplineSet
1288 0 m 1,0,-1
 1064 0 l 1,1,-1
 1064 1209 l 1,2,-1
 415 1209 l 1,3,-1
 415 0 l 1,4,-1
 191 0 l 1,5,-1
 191 1412 l 1,6,-1
 1288 1412 l 1,7,-1
 1288 0 l 1,0,-1
EndSplineSet
Position2: "'cpsp' Capital Spacing lookup 0 subtable" dx=5 dy=0 dh=10 dv=0
EndChar

StartChar: uni0423
Encoding: 1059 1059 442
Width: 1112
GlyphClass: 1
Flags: W
LayerCount: 2
Fore
SplineSet
468 0 m 1,0,-1
 232 0 l 1,1,-1
 426 457 l 1,2,-1
 28 1412 l 1,3,-1
 267 1412 l 1,4,-1
 545 700 l 1,5,-1
 844 1412 l 1,6,-1
 1083 1412 l 1,7,-1
 468 0 l 1,0,-1
EndSplineSet
Position2: "'cpsp' Capital Spacing lookup 0 subtable" dx=5 dy=0 dh=10 dv=0
EndChar

StartChar: uni0424
Encoding: 1060 1060 443
Width: 1753
GlyphClass: 1
Flags: W
LayerCount: 2
Fore
SplineSet
989 0 m 1,0,-1
 764 0 l 1,1,-1
 764 106 l 1,2,3
 536 106 536 106 389 182 c 128,-1,4
 242 258 242 258 171 388 c 0,5,6
 95 523 95 523 95 705 c 0,7,8
 95 880 95 880 167.5 1017.5 c 128,-1,9
 240 1155 240 1155 397 1236 c 0,10,11
 547 1311 547 1311 764 1311 c 1,12,-1
 764 1412 l 1,13,-1
 989 1412 l 1,14,-1
 989 1311 l 1,15,16
 1141 1311 1141 1311 1256.5 1275.5 c 128,-1,17
 1372 1240 1372 1240 1453.5 1175.5 c 128,-1,18
 1535 1111 1535 1111 1583 1024 c 0,19,20
 1658 888 1658 888 1658 705 c 0,21,22
 1658 530 1658 530 1585.5 394 c 128,-1,23
 1513 258 1513 258 1357 180 c 0,24,25
 1207 106 1207 106 989 106 c 1,26,-1
 989 0 l 1,0,-1
764 307 m 1,27,-1
 764 1111 l 1,28,29
 620 1111 620 1111 523 1061 c 128,-1,30
 426 1011 426 1011 377 920 c 128,-1,31
 328 829 328 829 328 705 c 0,32,33
 328 585 328 585 375 495.5 c 128,-1,34
 422 406 422 406 519 356.5 c 128,-1,35
 616 307 616 307 764 307 c 1,27,-1
989 307 m 1,36,37
 1137 307 1137 307 1234 356.5 c 128,-1,38
 1331 406 1331 406 1378 495.5 c 128,-1,39
 1425 585 1425 585 1425 705 c 0,40,41
 1425 828 1425 828 1376 919.5 c 128,-1,42
 1327 1011 1327 1011 1230 1061 c 128,-1,43
 1133 1111 1133 1111 989 1111 c 1,44,-1
 989 307 l 1,36,37
EndSplineSet
Position2: "'cpsp' Capital Spacing lookup 0 subtable" dx=5 dy=0 dh=10 dv=0
EndChar

StartChar: uni0426
Encoding: 1062 1062 445
Width: 1512
GlyphClass: 1
Flags: W
LayerCount: 2
Fore
SplineSet
1437 -290 m 1,0,-1
 1213 -290 l 1,1,-1
 1213 0 l 1,2,-1
 191 0 l 1,3,-1
 191 1412 l 1,4,-1
 415 1412 l 1,5,-1
 415 203 l 1,6,-1
 1064 203 l 1,7,-1
 1064 1412 l 1,8,-1
 1288 1412 l 1,9,-1
 1288 203 l 1,10,-1
 1437 203 l 1,11,-1
 1437 -290 l 1,0,-1
EndSplineSet
Position2: "'cpsp' Capital Spacing lookup 0 subtable" dx=5 dy=0 dh=10 dv=0
EndChar

StartChar: uni0427
Encoding: 1063 1063 446
Width: 1343
GlyphClass: 1
Flags: W
LayerCount: 2
Fore
SplineSet
1152 0 m 1,0,-1
 928 0 l 1,1,-1
 928 499 l 1,2,3
 795 410 795 410 626 410 c 0,4,5
 359 410 359 410 229.5 565 c 128,-1,6
 100 720 100 720 100 992 c 2,7,-1
 100 1412 l 1,8,-1
 325 1412 l 1,9,-1
 325 1010 l 2,10,11
 325 813 325 813 393.5 719.5 c 128,-1,12
 462 626 462 626 626 626 c 0,13,14
 730 626 730 626 806 663 c 128,-1,15
 882 700 882 700 928 754 c 1,16,-1
 928 1412 l 1,17,-1
 1152 1412 l 1,18,-1
 1152 0 l 1,0,-1
EndSplineSet
Position2: "'cpsp' Capital Spacing lookup 0 subtable" dx=5 dy=0 dh=10 dv=0
EndChar

StartChar: uni0428
Encoding: 1064 1064 447
Width: 1784
GlyphClass: 1
Flags: W
LayerCount: 2
Fore
SplineSet
1593 0 m 1,0,-1
 191 0 l 1,1,-1
 191 1412 l 1,2,-1
 415 1412 l 1,3,-1
 415 203 l 1,4,-1
 779 203 l 1,5,-1
 779 1412 l 1,6,-1
 1004 1412 l 1,7,-1
 1004 203 l 1,8,-1
 1369 203 l 1,9,-1
 1369 1412 l 1,10,-1
 1593 1412 l 1,11,-1
 1593 0 l 1,0,-1
EndSplineSet
Position2: "'cpsp' Capital Spacing lookup 0 subtable" dx=5 dy=0 dh=10 dv=0
EndChar

StartChar: uni0429
Encoding: 1065 1065 448
Width: 1818
GlyphClass: 1
Flags: W
LayerCount: 2
Fore
SplineSet
1742 -290 m 1,0,-1
 1519 -290 l 1,1,-1
 1519 0 l 1,2,-1
 191 0 l 1,3,-1
 191 1412 l 1,4,-1
 415 1412 l 1,5,-1
 415 203 l 1,6,-1
 779 203 l 1,7,-1
 779 1412 l 1,8,-1
 1004 1412 l 1,9,-1
 1004 203 l 1,10,-1
 1369 203 l 1,11,-1
 1369 1412 l 1,12,-1
 1593 1412 l 1,13,-1
 1593 203 l 1,14,-1
 1742 203 l 1,15,-1
 1742 -290 l 1,0,-1
EndSplineSet
Position2: "'cpsp' Capital Spacing lookup 0 subtable" dx=5 dy=0 dh=10 dv=0
EndChar

StartChar: uni042A
Encoding: 1066 1066 449
Width: 1394
GlyphClass: 1
Flags: W
LayerCount: 2
Fore
SplineSet
852 0 m 2,0,-1
 424 0 l 1,1,-1
 424 1215 l 1,2,-1
 33 1215 l 1,3,-1
 33 1412 l 1,4,-1
 646 1412 l 1,5,-1
 646 810 l 1,6,-1
 852 810 l 2,7,8
 988 810 988 810 1097.5 765.5 c 128,-1,9
 1207 721 1207 721 1271.5 632 c 128,-1,10
 1336 543 1336 543 1336 408 c 0,11,12
 1336 276 1336 276 1273 185 c 128,-1,13
 1210 94 1210 94 1100.5 47 c 128,-1,14
 991 0 991 0 852 0 c 2,0,-1
852 207 m 2,15,16
 989 207 989 207 1052 261 c 128,-1,17
 1115 315 1115 315 1115 408 c 0,18,19
 1115 603 1115 603 852 603 c 2,20,-1
 646 603 l 1,21,-1
 646 207 l 1,22,-1
 852 207 l 2,15,16
EndSplineSet
Position2: "'cpsp' Capital Spacing lookup 0 subtable" dx=5 dy=0 dh=10 dv=0
EndChar

StartChar: uni042B
Encoding: 1067 1067 450
Width: 1708
GlyphClass: 1
Flags: W
LayerCount: 2
Fore
SplineSet
620 0 m 2,0,-1
 191 0 l 1,1,-1
 191 1412 l 1,2,-1
 414 1412 l 1,3,-1
 414 810 l 1,4,-1
 620 810 l 2,5,6
 756 810 756 810 865.5 765.5 c 128,-1,7
 975 721 975 721 1039.5 632 c 128,-1,8
 1104 543 1104 543 1104 408 c 0,9,10
 1104 276 1104 276 1041 185 c 128,-1,11
 978 94 978 94 868.5 47 c 128,-1,12
 759 0 759 0 620 0 c 2,0,-1
1517 0 m 1,13,-1
 1293 0 l 1,14,-1
 1293 1412 l 1,15,-1
 1517 1412 l 1,16,-1
 1517 0 l 1,13,-1
620 207 m 2,17,18
 757 207 757 207 820 261 c 128,-1,19
 883 315 883 315 883 408 c 0,20,21
 883 603 883 603 620 603 c 2,22,-1
 414 603 l 1,23,-1
 414 207 l 1,24,-1
 620 207 l 2,17,18
EndSplineSet
Position2: "'cpsp' Capital Spacing lookup 0 subtable" dx=5 dy=0 dh=10 dv=0
EndChar

StartChar: uni042C
Encoding: 1068 1068 451
Width: 1161
GlyphClass: 1
Flags: W
LayerCount: 2
Fore
SplineSet
620 0 m 2,0,-1
 191 0 l 1,1,-1
 191 1412 l 1,2,-1
 414 1412 l 1,3,-1
 414 810 l 1,4,-1
 620 810 l 2,5,6
 756 810 756 810 865.5 765.5 c 128,-1,7
 975 721 975 721 1039.5 632 c 128,-1,8
 1104 543 1104 543 1104 408 c 0,9,10
 1104 276 1104 276 1041 185 c 128,-1,11
 978 94 978 94 868.5 47 c 128,-1,12
 759 0 759 0 620 0 c 2,0,-1
620 207 m 2,13,14
 757 207 757 207 820 261 c 128,-1,15
 883 315 883 315 883 408 c 0,16,17
 883 603 883 603 620 603 c 2,18,-1
 414 603 l 1,19,-1
 414 207 l 1,20,-1
 620 207 l 2,13,14
EndSplineSet
Position2: "'cpsp' Capital Spacing lookup 0 subtable" dx=5 dy=0 dh=10 dv=0
EndChar

StartChar: uni042D
Encoding: 1069 1069 452
Width: 1428
GlyphClass: 1
Flags: W
LayerCount: 2
Fore
SplineSet
664 -20 m 0,0,1
 466 -20 466 -20 307 78 c 128,-1,2
 148 176 148 176 59 378 c 1,3,-1
 267 463 l 1,4,5
 319 326 319 326 415.5 258.5 c 128,-1,6
 512 191 512 191 664 191 c 0,7,8
 861 191 861 191 970.5 305 c 128,-1,9
 1080 419 1080 419 1103 610 c 1,10,-1
 517 610 l 1,11,-1
 517 807 l 1,12,-1
 1104 807 l 1,13,14
 1090 930 1090 930 1037.5 1023.5 c 128,-1,15
 985 1117 985 1117 893 1170.5 c 128,-1,16
 801 1224 801 1224 668 1224 c 0,17,18
 524 1224 524 1224 418.5 1161 c 128,-1,19
 313 1098 313 1098 270 956 c 1,20,-1
 61 1039 l 1,21,22
 151 1241 151 1241 310 1338.5 c 128,-1,23
 469 1436 469 1436 666 1436 c 0,24,25
 885 1436 885 1436 1035 1338 c 0,26,27
 1191 1232 1191 1232 1262 1065.5 c 128,-1,28
 1333 899 1333 899 1333 707 c 0,29,30
 1333 516 1333 516 1261.5 349.5 c 128,-1,31
 1190 183 1190 183 1034 78 c 0,32,33
 883 -20 883 -20 664 -20 c 0,0,1
EndSplineSet
Position2: "'cpsp' Capital Spacing lookup 0 subtable" dx=5 dy=0 dh=10 dv=0
EndChar

StartChar: uni042E
Encoding: 1070 1070 453
Width: 1970
GlyphClass: 2
Flags: W
LayerCount: 2
Fore
SplineSet
1207 -20 m 0,0,1
 1053 -20 1053 -20 935.5 27.5 c 128,-1,2
 818 75 818 75 735.5 160 c 128,-1,3
 653 245 653 245 605.5 358.5 c 128,-1,4
 558 472 558 472 545 605 c 1,5,-1
 415 605 l 1,6,-1
 415 0 l 1,7,-1
 191 0 l 1,8,-1
 191 1412 l 1,9,-1
 415 1412 l 1,10,-1
 415 808 l 1,11,-1
 545 808 l 1,12,13
 561 980 561 980 638.5 1121.5 c 128,-1,14
 716 1263 716 1263 864 1351 c 0,15,16
 1007 1434 1007 1434 1207 1434 c 0,17,18
 1427 1434 1427 1434 1577 1336 c 0,19,20
 1682 1267 1682 1267 1747.5 1169 c 128,-1,21
 1813 1071 1813 1071 1843.5 953 c 128,-1,22
 1874 835 1874 835 1874 707 c 256,23,24
 1874 579 1874 579 1843.5 461 c 128,-1,25
 1813 343 1813 343 1747.5 245 c 128,-1,26
 1682 147 1682 147 1577 78 c 0,27,28
 1427 -20 1427 -20 1207 -20 c 0,0,1
1207 180 m 0,29,30
 1357 180 1357 180 1455 252 c 0,31,32
 1641 392 1641 392 1641 707 c 0,33,34
 1641 938 1641 938 1540 1078 c 0,35,36
 1428 1233 1428 1233 1207 1233 c 0,37,38
 1056 1233 1056 1233 959 1162 c 0,39,40
 859 1087 859 1087 816 968 c 128,-1,41
 773 849 773 849 773 707 c 0,42,43
 773 476 773 476 873 336 c 0,44,45
 985 180 985 180 1207 180 c 0,29,30
EndSplineSet
Substitution2: "'ss02' Style Set 2 lookup 18 subtable" uni042E.1
Substitution2: "'ss03' Style Set 3 lookup 17 subtable" uni041B.loclSRB
Substitution2: "'locl' Localized Forms in Cyrillic lookup 10 subtable" uni042E.1
Substitution2: "'locl' Localized Forms in Cyrillic lookup 8 subtable" uni041B.loclSRB
Position2: "'cpsp' Capital Spacing lookup 0 subtable" dx=5 dy=0 dh=10 dv=0
EndChar

StartChar: uni042F
Encoding: 1071 1071 454
Width: 1253
GlyphClass: 1
Flags: W
LayerCount: 2
Fore
SplineSet
1062 -2 m 1,0,-1
 837 -2 l 1,1,-1
 837 613 l 1,2,-1
 648 613 l 1,3,-1
 298 -2 l 1,4,-1
 40 -2 l 1,5,-1
 430 636 l 1,6,7
 299 676 299 676 222.5 774 c 128,-1,8
 146 872 146 872 146 1004 c 0,9,10
 146 1135 146 1135 211.5 1226.5 c 128,-1,11
 277 1318 277 1318 385 1365.5 c 128,-1,12
 493 1413 493 1413 621 1413 c 2,13,-1
 1062 1413 l 1,14,-1
 1062 -2 l 1,0,-1
835 801 m 1,15,-1
 835 1212 l 1,16,-1
 619 1212 l 2,17,18
 508 1212 508 1212 438 1157.5 c 128,-1,19
 368 1103 368 1103 368 1001 c 0,20,21
 368 908 368 908 431.5 857 c 128,-1,22
 495 806 495 806 598 801 c 1,23,-1
 835 801 l 1,15,-1
EndSplineSet
Position2: "'cpsp' Capital Spacing lookup 0 subtable" dx=5 dy=0 dh=10 dv=0
EndChar

StartChar: uni0431
Encoding: 1073 1073 456
Width: 1192
GlyphClass: 1
Flags: W
LayerCount: 2
Fore
SplineSet
620 -20 m 0,0,1
 463 -20 463 -20 348 45 c 128,-1,2
 233 110 233 110 171 228 c 128,-1,3
 109 346 109 346 109 503 c 2,4,-1
 109 723 l 2,5,6
 109 935 109 935 177 1054.5 c 128,-1,7
 245 1174 245 1174 335 1235 c 0,8,9
 414 1289 414 1289 508.5 1325.5 c 128,-1,10
 603 1362 603 1362 693 1383.5 c 128,-1,11
 783 1405 783 1405 926 1434 c 1,12,-1
 926 1224 l 1,13,14
 780 1196 780 1196 652.5 1159.5 c 128,-1,15
 525 1123 525 1123 470 1095 c 0,16,17
 411 1066 411 1066 376 1030.5 c 128,-1,18
 341 995 341 995 322 938 c 0,19,20
 301 877 301 877 300 775 c 1,21,22
 356 856 356 856 454 908 c 128,-1,23
 552 960 552 960 679 960 c 0,24,25
 832 960 832 960 932.5 897.5 c 128,-1,26
 1033 835 1033 835 1083.5 728 c 128,-1,27
 1134 621 1134 621 1134 488 c 0,28,29
 1134 352 1134 352 1070 236 c 128,-1,30
 1006 120 1006 120 886 48 c 0,31,32
 768 -20 768 -20 620 -20 c 0,0,1
620 163 m 0,33,34
 713 163 713 163 775 204.5 c 128,-1,35
 837 246 837 246 869 316.5 c 128,-1,36
 901 387 901 387 901 474 c 0,37,38
 901 612 901 612 832.5 694 c 128,-1,39
 764 776 764 776 620 776 c 0,40,41
 528 776 528 776 466 731 c 128,-1,42
 404 686 404 686 371.5 616.5 c 128,-1,43
 339 547 339 547 339 474 c 0,44,45
 339 334 339 334 407.5 248.5 c 128,-1,46
 476 163 476 163 620 163 c 0,33,34
EndSplineSet
Substitution2: "'aalt' Access All Alternates lookup 0 subtable" uni0431.loclSRB
EndChar

StartChar: uni0432
Encoding: 1074 1074 457
Width: 1089
GlyphClass: 2
Flags: W
LayerCount: 2
Fore
SplineSet
595 0 m 2,0,-1
 153 0 l 1,1,-1
 153 1039 l 1,2,-1
 596 1039 l 2,3,4
 722 1039 722 1039 808.5 1013 c 128,-1,5
 895 987 895 987 939 924 c 128,-1,6
 983 861 983 861 983 751 c 0,7,8
 983 683 983 683 947.5 624.5 c 128,-1,9
 912 566 912 566 834 543 c 1,10,11
 1021 511 1021 511 1021 304 c 0,12,13
 1021 78 1021 78 832 27 c 0,14,15
 740 0 740 0 595 0 c 2,0,-1
620 626 m 2,16,17
 698 626 698 626 734 658 c 128,-1,18
 770 690 770 690 770 736 c 0,19,20
 770 842 770 842 626 842 c 2,21,-1
 367 842 l 1,22,-1
 367 626 l 1,23,-1
 620 626 l 2,16,17
614 198 m 2,24,25
 718 198 718 198 759.5 225.5 c 128,-1,26
 801 253 801 253 801 320 c 0,27,28
 801 437 801 437 626 437 c 2,29,-1
 367 437 l 1,30,-1
 367 198 l 1,31,-1
 614 198 l 2,24,25
EndSplineSet
Substitution2: "'ss02' Style Set 2 lookup 18 subtable" uni0432.1
Substitution2: "'ss03' Style Set 3 lookup 17 subtable" uni0432.loclSRB
Substitution2: "'locl' Localized Forms in Cyrillic lookup 10 subtable" uni0432.1
Substitution2: "'locl' Localized Forms in Cyrillic lookup 9 subtable" uni0432.loclSRB
Substitution2: "'locl' Localized Forms in Cyrillic lookup 8 subtable" uni0432.loclSRB
EndChar

StartChar: uni0433
Encoding: 1075 1075 458
Width: 801
GlyphClass: 2
Flags: W
LayerCount: 2
Fore
SplineSet
371 0 m 1,0,-1
 153 0 l 1,1,-1
 153 1039 l 1,2,-1
 801 1039 l 1,3,-1
 801 877 l 1,4,-1
 371 877 l 1,5,-1
 371 0 l 1,0,-1
EndSplineSet
Substitution2: "'ss02' Style Set 2 lookup 18 subtable" uni0433.1
Substitution2: "'ss03' Style Set 3 lookup 17 subtable" uni0433.loclSRB
Substitution2: "'locl' Localized Forms in Cyrillic lookup 10 subtable" uni0433.1
Substitution2: "'locl' Localized Forms in Cyrillic lookup 9 subtable" uni0433.loclSRB
Substitution2: "'locl' Localized Forms in Cyrillic lookup 8 subtable" uni0433.loclSRB
EndChar

StartChar: uni0434
Encoding: 1076 1076 459
Width: 1210
GlyphClass: 2
Flags: W
LayerCount: 2
Fore
SplineSet
1154 -307 m 1,0,-1
 937 -307 l 1,1,-1
 937 0 l 1,2,-1
 223 0 l 1,3,-1
 223 -307 l 1,4,-1
 6 -307 l 1,5,-1
 6 163 l 1,6,-1
 142 163 l 1,7,8
 210 239 210 239 234.5 361.5 c 128,-1,9
 259 484 259 484 259 636 c 2,10,-1
 259 1039 l 1,11,-1
 1023 1039 l 1,12,-1
 1023 163 l 1,13,-1
 1154 163 l 1,14,-1
 1154 -307 l 1,0,-1
806 163 m 1,15,-1
 806 877 l 1,16,-1
 476 877 l 1,17,-1
 476 644 l 2,18,19
 476 486 476 486 452.5 361.5 c 128,-1,20
 429 237 429 237 366 163 c 1,21,-1
 806 163 l 1,15,-1
EndSplineSet
Substitution2: "'ss02' Style Set 2 lookup 18 subtable" uni0434.1
Substitution2: "'ss03' Style Set 3 lookup 17 subtable" uni0434.loclSRB
Substitution2: "'locl' Localized Forms in Cyrillic lookup 10 subtable" uni0434.1
Substitution2: "'locl' Localized Forms in Cyrillic lookup 9 subtable" uni0434.loclSRB
Substitution2: "'locl' Localized Forms in Cyrillic lookup 8 subtable" uni0434.loclSRB
EndChar

StartChar: uni0436
Encoding: 1078 1078 461
Width: 1549
GlyphClass: 2
Flags: W
LayerCount: 2
Fore
SplineSet
1529 0 m 1,0,-1
 1265 0 l 1,1,-1
 1140 371 l 2,2,3
 1119 433 1119 433 1083.5 465.5 c 128,-1,4
 1048 498 1048 498 993 498 c 2,5,-1
 883 498 l 1,6,-1
 883 0 l 1,7,-1
 669 0 l 1,8,-1
 669 498 l 1,9,-1
 558 498 l 2,10,11
 502 498 502 498 467.5 466 c 128,-1,12
 433 434 433 434 412 371 c 2,13,-1
 285 0 l 1,14,-1
 23 0 l 1,15,-1
 202 466 l 2,16,17
 228 526 228 526 273.5 578 c 128,-1,18
 319 630 319 630 371 630 c 1,19,-1
 79 1039 l 1,20,-1
 341 1039 l 1,21,-1
 580 661 l 1,22,-1
 669 661 l 1,23,-1
 669 1039 l 1,24,-1
 883 1039 l 1,25,-1
 883 661 l 1,26,-1
 971 661 l 1,27,-1
 1210 1039 l 1,28,-1
 1471 1039 l 1,29,-1
 1179 630 l 1,30,31
 1231 630 1231 630 1277 578.5 c 128,-1,32
 1323 527 1323 527 1350 466 c 2,33,-1
 1529 0 l 1,0,-1
EndSplineSet
Substitution2: "'ss02' Style Set 2 lookup 18 subtable" uni0436.1
Substitution2: "'ss03' Style Set 3 lookup 17 subtable" uni0436.loclSRB
Substitution2: "'locl' Localized Forms in Cyrillic lookup 10 subtable" uni0436.1
Substitution2: "'locl' Localized Forms in Cyrillic lookup 9 subtable" uni0436.loclSRB
Substitution2: "'locl' Localized Forms in Cyrillic lookup 8 subtable" uni0436.loclSRB
EndChar

StartChar: uni0437
Encoding: 1079 1079 462
Width: 1025
GlyphClass: 2
Flags: W
LayerCount: 2
Fore
SplineSet
470 -20 m 0,0,1
 341 -20 341 -20 224 36 c 128,-1,2
 107 92 107 92 36 207 c 1,3,-1
 224 350 l 1,4,5
 254 264 254 264 324 219.5 c 128,-1,6
 394 175 394 175 471 175 c 0,7,8
 607 175 607 175 665 207 c 128,-1,9
 723 239 723 239 723 307 c 0,10,11
 723 385 723 385 681.5 410.5 c 128,-1,12
 640 436 640 436 524 436 c 2,13,-1
 408 436 l 1,14,-1
 408 624 l 1,15,-1
 537 624 l 1,16,17
 619 628 619 628 656.5 656 c 128,-1,18
 694 684 694 684 694 747 c 0,19,20
 694 801 694 801 647.5 827.5 c 128,-1,21
 601 854 601 854 493 854 c 0,22,23
 427 854 427 854 359 818 c 128,-1,24
 291 782 291 782 242 698 c 1,25,-1
 35 813 l 1,26,27
 99 906 99 906 169 958 c 128,-1,28
 239 1010 239 1010 318 1031 c 128,-1,29
 397 1052 397 1052 487 1052 c 0,30,31
 683 1052 683 1052 795 984.5 c 128,-1,32
 907 917 907 917 907 760 c 0,33,34
 907 670 907 670 864 618 c 128,-1,35
 821 566 821 566 733 541 c 1,36,37
 830 524 830 524 887 465 c 128,-1,38
 944 406 944 406 944 297 c 0,39,40
 944 127 944 127 818.5 53.5 c 128,-1,41
 693 -20 693 -20 470 -20 c 0,0,1
EndSplineSet
Substitution2: "'ss02' Style Set 2 lookup 18 subtable" uni0437.1
Substitution2: "'ss03' Style Set 3 lookup 17 subtable" uni0437.loclSRB
Substitution2: "'locl' Localized Forms in Cyrillic lookup 10 subtable" uni0437.1
Substitution2: "'locl' Localized Forms in Cyrillic lookup 9 subtable" uni0437.loclSRB
Substitution2: "'locl' Localized Forms in Cyrillic lookup 8 subtable" uni0437.loclSRB
EndChar

StartChar: uni0438
Encoding: 1080 1080 463
Width: 1198
GlyphClass: 2
Flags: W
LayerCount: 2
Fore
SplineSet
1052 0 m 1,0,-1
 836 0 l 1,1,-1
 836 596 l 2,2,3
 836 653 836 653 846 724 c 1,4,-1
 836 724 l 1,5,-1
 397 0 l 1,6,-1
 159 0 l 1,7,-1
 159 1039 l 1,8,-1
 376 1039 l 1,9,-1
 376 443 l 2,10,11
 376 392 376 392 365 316 c 1,12,-1
 376 316 l 1,13,-1
 814 1039 l 1,14,-1
 1052 1039 l 1,15,-1
 1052 0 l 1,0,-1
EndSplineSet
Substitution2: "'ss02' Style Set 2 lookup 18 subtable" uni0438.1
Substitution2: "'ss03' Style Set 3 lookup 17 subtable" uni0438.loclSRB
Substitution2: "'locl' Localized Forms in Cyrillic lookup 10 subtable" uni0438.1
Substitution2: "'locl' Localized Forms in Cyrillic lookup 9 subtable" uni0438.loclSRB
Substitution2: "'locl' Localized Forms in Cyrillic lookup 8 subtable" uni0438.loclSRB
EndChar

StartChar: uni043A
Encoding: 1082 1082 465
Width: 1039
GlyphClass: 2
Flags: W
LayerCount: 2
Fore
SplineSet
1019 0 m 1,0,-1
 756 0 l 1,1,-1
 630 371 l 2,2,3
 609 433 609 433 573.5 465.5 c 128,-1,4
 538 498 538 498 483 498 c 2,5,-1
 373 498 l 1,6,-1
 373 0 l 1,7,-1
 159 0 l 1,8,-1
 159 1039 l 1,9,-1
 373 1039 l 1,10,-1
 373 661 l 1,11,-1
 462 661 l 1,12,-1
 701 1039 l 1,13,-1
 962 1039 l 1,14,-1
 670 630 l 1,15,16
 722 630 722 630 767.5 578.5 c 128,-1,17
 813 527 813 527 840 466 c 2,18,-1
 1019 0 l 1,0,-1
EndSplineSet
Substitution2: "'ss02' Style Set 2 lookup 18 subtable" uni043A.1
Substitution2: "'ss03' Style Set 3 lookup 17 subtable" uni043A.loclSRB
Substitution2: "'locl' Localized Forms in Cyrillic lookup 10 subtable" uni043A.1
Substitution2: "'locl' Localized Forms in Cyrillic lookup 9 subtable" uni043A.loclSRB
Substitution2: "'locl' Localized Forms in Cyrillic lookup 8 subtable" uni043A.loclSRB
EndChar

StartChar: uni043B
Encoding: 1083 1083 466
Width: 1139
GlyphClass: 2
Flags: W
LayerCount: 2
Fore
SplineSet
200 -21 m 0,0,1
 143 -21 143 -21 88 -5.5 c 128,-1,2
 33 10 33 10 -8 31 c 1,3,-1
 54 173 l 1,4,5
 104 150 104 150 129 150 c 0,6,7
 176 150 176 150 199.5 203 c 128,-1,8
 223 256 223 256 230 356.5 c 128,-1,9
 237 457 237 457 237 636 c 2,10,-1
 237 1039 l 1,11,-1
 987 1039 l 1,12,-1
 987 0 l 1,13,-1
 770 0 l 1,14,-1
 770 877 l 1,15,-1
 454 877 l 1,16,-1
 454 550 l 2,17,18
 454 341 454 341 426 215.5 c 128,-1,19
 398 90 398 90 342 34.5 c 128,-1,20
 286 -21 286 -21 200 -21 c 0,0,1
EndSplineSet
Substitution2: "'ss02' Style Set 2 lookup 18 subtable" uni043B.1
Substitution2: "'ss03' Style Set 3 lookup 17 subtable" uni043B.loclSRB
Substitution2: "'locl' Localized Forms in Cyrillic lookup 10 subtable" uni043B.1
Substitution2: "'locl' Localized Forms in Cyrillic lookup 9 subtable" uni043B.loclSRB
Substitution2: "'locl' Localized Forms in Cyrillic lookup 8 subtable" uni043B.loclSRB
EndChar

StartChar: uni043C
Encoding: 1084 1084 467
Width: 1475
GlyphClass: 1
Flags: W
LayerCount: 2
Fore
SplineSet
1330 0 m 1,0,-1
 1130 0 l 1,1,-1
 1130 753 l 1,2,-1
 827 0 l 1,3,-1
 663 0 l 1,4,-1
 358 751 l 1,5,-1
 358 0 l 1,6,-1
 159 0 l 1,7,-1
 159 1039 l 1,8,-1
 437 1039 l 1,9,-1
 746 268 l 1,10,-1
 1050 1040 l 1,11,-1
 1330 1040 l 1,12,-1
 1330 0 l 1,0,-1
EndSplineSet
EndChar

StartChar: uni043D
Encoding: 1085 1085 468
Width: 1198
GlyphClass: 1
Flags: W
LayerCount: 2
Fore
SplineSet
1052 0 m 1,0,-1
 835 0 l 1,1,-1
 835 495 l 1,2,-1
 376 495 l 1,3,-1
 376 0 l 1,4,-1
 159 0 l 1,5,-1
 159 1039 l 1,6,-1
 376 1039 l 1,7,-1
 376 657 l 1,8,-1
 835 657 l 1,9,-1
 835 1039 l 1,10,-1
 1052 1039 l 1,11,-1
 1052 0 l 1,0,-1
EndSplineSet
EndChar

StartChar: uni043F
Encoding: 1087 1087 470
Width: 1198
GlyphClass: 2
Flags: W
LayerCount: 2
Fore
SplineSet
1052 0 m 1,0,-1
 836 0 l 1,1,-1
 836 877 l 1,2,-1
 376 877 l 1,3,-1
 376 0 l 1,4,-1
 159 0 l 1,5,-1
 159 1039 l 1,6,-1
 1052 1039 l 1,7,-1
 1052 0 l 1,0,-1
EndSplineSet
Substitution2: "'ss02' Style Set 2 lookup 18 subtable" uni043F.1
Substitution2: "'ss03' Style Set 3 lookup 17 subtable" uni043F.loclSRB
Substitution2: "'locl' Localized Forms in Cyrillic lookup 10 subtable" uni043F.1
Substitution2: "'locl' Localized Forms in Cyrillic lookup 9 subtable" uni043F.loclSRB
Substitution2: "'locl' Localized Forms in Cyrillic lookup 8 subtable" uni043F.loclSRB
EndChar

StartChar: uni0442
Encoding: 1090 1090 473
Width: 913
GlyphClass: 2
Flags: W
LayerCount: 2
Fore
SplineSet
564 0 m 1,0,-1
 348 0 l 1,1,-1
 348 877 l 1,2,-1
 6 877 l 1,3,-1
 6 1039 l 1,4,-1
 908 1039 l 1,5,-1
 908 877 l 1,6,-1
 564 877 l 1,7,-1
 564 0 l 1,0,-1
EndSplineSet
Substitution2: "'ss02' Style Set 2 lookup 18 subtable" uni0442.1
Substitution2: "'ss03' Style Set 3 lookup 17 subtable" uni0442.loclSRB
Substitution2: "'locl' Localized Forms in Cyrillic lookup 10 subtable" uni0442.1
Substitution2: "'locl' Localized Forms in Cyrillic lookup 9 subtable" uni0442.loclSRB
Substitution2: "'locl' Localized Forms in Cyrillic lookup 8 subtable" uni0442.loclSRB
EndChar

StartChar: uni0443
Encoding: 1091 1091 474
Width: 1054
GlyphClass: 1
Flags: W
LayerCount: 2
Fore
SplineSet
465 -430 m 1,0,-1
 225 -430 l 1,1,-1
 412 33 l 1,2,-1
 7 1039 l 1,3,-1
 253 1039 l 1,4,-1
 527 286 l 1,5,-1
 803 1039 l 1,6,-1
 1048 1039 l 1,7,-1
 465 -430 l 1,0,-1
EndSplineSet
EndChar

StartChar: uni0444
Encoding: 1092 1092 475
Width: 1492
GlyphClass: 1
Flags: W
LayerCount: 2
Fore
SplineSet
856 -430 m 1,0,-1
 642 -430 l 1,1,-1
 642 -16 l 1,2,3
 605 -20 605 -20 583 -20 c 0,4,5
 423 -20 423 -20 307 55 c 128,-1,6
 191 130 191 130 127.5 252 c 128,-1,7
 64 374 64 374 64 516 c 0,8,9
 64 659 64 659 128.5 781.5 c 128,-1,10
 193 904 193 904 315 980 c 0,11,12
 433 1052 433 1052 582 1052 c 1,13,-1
 642 1047 l 1,14,-1
 642 1412 l 1,15,-1
 856 1412 l 1,16,-1
 856 1047 l 1,17,18
 887 1052 887 1052 914 1052 c 0,19,20
 1072 1052 1072 1052 1188.5 977 c 128,-1,21
 1305 902 1305 902 1369 780 c 128,-1,22
 1433 658 1433 658 1433 516 c 0,23,24
 1433 373 1433 373 1368.5 250 c 128,-1,25
 1304 127 1304 127 1183 52 c 0,26,27
 1064 -20 1064 -20 914 -20 c 0,28,29
 893 -20 893 -20 856 -16 c 1,30,-1
 856 -430 l 1,0,-1
582 166 m 0,31,32
 623 166 623 166 642 170 c 1,33,-1
 642 861 l 1,34,35
 605 865 605 865 582 865 c 0,36,37
 483 865 483 865 421 818.5 c 128,-1,38
 359 772 359 772 328.5 693 c 128,-1,39
 298 614 298 614 298 516 c 0,40,41
 298 422 298 422 327 341.5 c 128,-1,42
 356 261 356 261 418.5 213.5 c 128,-1,43
 481 166 481 166 582 166 c 0,31,32
915 166 m 0,44,45
 1014 166 1014 166 1077 213 c 128,-1,46
 1140 260 1140 260 1169.5 339 c 128,-1,47
 1199 418 1199 418 1199 516 c 0,48,49
 1199 611 1199 611 1170 691 c 128,-1,50
 1141 771 1141 771 1078 818 c 128,-1,51
 1015 865 1015 865 915 865 c 0,52,53
 893 865 893 865 856 861 c 1,54,-1
 856 170 l 1,55,56
 874 166 874 166 915 166 c 0,44,45
EndSplineSet
EndChar

StartChar: uni0446
Encoding: 1094 1094 477
Width: 1246
GlyphClass: 2
Flags: W
LayerCount: 2
Fore
SplineSet
1223 -307 m 1,0,-1
 1007 -307 l 1,1,-1
 1007 0 l 1,2,-1
 159 0 l 1,3,-1
 159 1039 l 1,4,-1
 376 1039 l 1,5,-1
 376 163 l 1,6,-1
 836 163 l 1,7,-1
 836 1039 l 1,8,-1
 1052 1039 l 1,9,-1
 1052 163 l 1,10,-1
 1223 163 l 1,11,-1
 1223 -307 l 1,0,-1
EndSplineSet
Substitution2: "'ss02' Style Set 2 lookup 18 subtable" uni0446.1
Substitution2: "'ss03' Style Set 3 lookup 17 subtable" uni0446.loclSRB
Substitution2: "'locl' Localized Forms in Cyrillic lookup 10 subtable" uni0446.1
Substitution2: "'locl' Localized Forms in Cyrillic lookup 9 subtable" uni0446.loclSRB
Substitution2: "'locl' Localized Forms in Cyrillic lookup 8 subtable" uni0446.loclSRB
EndChar

StartChar: uni0447
Encoding: 1095 1095 478
Width: 1121
GlyphClass: 1
Flags: W
LayerCount: 2
Fore
SplineSet
972 0 m 1,0,-1
 755 0 l 1,1,-1
 755 409 l 1,2,3
 707 341 707 341 626.5 297.5 c 128,-1,4
 546 254 546 254 450 254 c 0,5,6
 322 254 322 254 239 316.5 c 128,-1,7
 156 379 156 379 116.5 481 c 128,-1,8
 77 583 77 583 77 702 c 2,9,-1
 77 1039 l 1,10,-1
 295 1039 l 1,11,-1
 295 706 l 2,12,13
 295 592 295 592 335.5 522.5 c 128,-1,14
 376 453 376 453 476 453 c 0,15,16
 555 453 555 453 618 493.5 c 128,-1,17
 681 534 681 534 718 597.5 c 128,-1,18
 755 661 755 661 755 730 c 2,19,-1
 755 1039 l 1,20,-1
 972 1039 l 1,21,-1
 972 0 l 1,0,-1
EndSplineSet
EndChar

StartChar: uni0448
Encoding: 1096 1096 479
Width: 1673
GlyphClass: 2
Flags: W
LayerCount: 2
Fore
SplineSet
1528 0 m 1,0,-1
 159 0 l 1,1,-1
 159 1039 l 1,2,-1
 376 1039 l 1,3,-1
 376 163 l 1,4,-1
 734 163 l 1,5,-1
 734 1039 l 1,6,-1
 951 1039 l 1,7,-1
 951 163 l 1,8,-1
 1311 163 l 1,9,-1
 1311 1039 l 1,10,-1
 1528 1039 l 1,11,-1
 1528 0 l 1,0,-1
EndSplineSet
Substitution2: "'ss02' Style Set 2 lookup 18 subtable" uni0448.1
Substitution2: "'ss03' Style Set 3 lookup 17 subtable" uni0448.loclSRB
Substitution2: "'locl' Localized Forms in Cyrillic lookup 10 subtable" uni0448.1
Substitution2: "'locl' Localized Forms in Cyrillic lookup 9 subtable" uni0448.loclSRB
Substitution2: "'locl' Localized Forms in Cyrillic lookup 8 subtable" uni0448.loclSRB
EndChar

StartChar: uni0449
Encoding: 1097 1097 480
Width: 1722
GlyphClass: 2
Flags: W
LayerCount: 2
Fore
SplineSet
1699 -307 m 1,0,-1
 1482 -307 l 1,1,-1
 1482 0 l 1,2,-1
 159 0 l 1,3,-1
 159 1039 l 1,4,-1
 376 1039 l 1,5,-1
 376 163 l 1,6,-1
 734 163 l 1,7,-1
 734 1039 l 1,8,-1
 951 1039 l 1,9,-1
 951 163 l 1,10,-1
 1311 163 l 1,11,-1
 1311 1039 l 1,12,-1
 1528 1039 l 1,13,-1
 1528 163 l 1,14,-1
 1699 163 l 1,15,-1
 1699 -307 l 1,0,-1
EndSplineSet
Substitution2: "'ss02' Style Set 2 lookup 18 subtable" uni0449.1
Substitution2: "'ss03' Style Set 3 lookup 17 subtable" uni0449.loclSRB
Substitution2: "'locl' Localized Forms in Cyrillic lookup 10 subtable" uni0449.1
Substitution2: "'locl' Localized Forms in Cyrillic lookup 9 subtable" uni0449.loclSRB
Substitution2: "'locl' Localized Forms in Cyrillic lookup 8 subtable" uni0449.loclSRB
EndChar

StartChar: uni044A
Encoding: 1098 1098 481
Width: 1211
GlyphClass: 2
Flags: W
LayerCount: 2
Fore
SplineSet
698 0 m 2,0,-1
 313 0 l 1,1,-1
 313 877 l 1,2,-1
 6 877 l 1,3,-1
 6 1039 l 1,4,-1
 530 1039 l 1,5,-1
 530 720 l 1,6,-1
 693 720 l 2,7,8
 850 720 850 720 945.5 684 c 128,-1,9
 1041 648 1041 648 1088 573 c 0,10,11
 1138 495 1138 495 1138 365 c 0,12,13
 1138 179 1138 179 1022.5 89.5 c 128,-1,14
 907 0 907 0 698 0 c 2,0,-1
695 183 m 2,15,16
 791 183 791 183 845.5 223.5 c 128,-1,17
 900 264 900 264 900 365 c 0,18,19
 900 459 900 459 845 498 c 128,-1,20
 790 537 790 537 695 537 c 2,21,-1
 530 537 l 1,22,-1
 530 183 l 1,23,-1
 695 183 l 2,15,16
EndSplineSet
Substitution2: "'ss02' Style Set 2 lookup 18 subtable" uni044A.1
Substitution2: "'locl' Localized Forms in Cyrillic lookup 10 subtable" uni044A.1
EndChar

StartChar: uni044B
Encoding: 1099 1099 482
Width: 1455
GlyphClass: 2
Flags: W
LayerCount: 2
Fore
SplineSet
544 0 m 2,0,-1
 159 0 l 1,1,-1
 159 1039 l 1,2,-1
 376 1039 l 1,3,-1
 376 713 l 1,4,-1
 539 713 l 2,5,6
 696 713 696 713 791.5 677.5 c 128,-1,7
 887 642 887 642 934 567 c 0,8,9
 983 490 983 490 983 361 c 0,10,11
 983 176 983 176 867 88 c 128,-1,12
 751 0 751 0 544 0 c 2,0,-1
1308 0 m 1,13,-1
 1107 0 l 1,14,-1
 1107 1039 l 1,15,-1
 1308 1039 l 1,16,-1
 1308 0 l 1,13,-1
541 183 m 2,17,18
 637 183 637 183 691.5 223 c 128,-1,19
 746 263 746 263 746 362 c 0,20,21
 746 454 746 454 691 492 c 128,-1,22
 636 530 636 530 541 530 c 2,23,-1
 376 530 l 1,24,-1
 376 183 l 1,25,-1
 541 183 l 2,17,18
EndSplineSet
Substitution2: "'ss02' Style Set 2 lookup 18 subtable" uni044B.1
Substitution2: "'locl' Localized Forms in Cyrillic lookup 10 subtable" uni044B.1
EndChar

StartChar: uni044C
Encoding: 1100 1100 483
Width: 1051
GlyphClass: 2
Flags: W
LayerCount: 2
Fore
SplineSet
544 0 m 2,0,-1
 159 0 l 1,1,-1
 159 1039 l 1,2,-1
 376 1039 l 1,3,-1
 376 713 l 1,4,-1
 539 713 l 2,5,6
 696 713 696 713 791.5 677.5 c 128,-1,7
 887 642 887 642 934 567 c 0,8,9
 983 490 983 490 983 361 c 0,10,11
 983 176 983 176 867 88 c 128,-1,12
 751 0 751 0 544 0 c 2,0,-1
541 183 m 2,13,14
 637 183 637 183 691.5 223 c 128,-1,15
 746 263 746 263 746 362 c 0,16,17
 746 454 746 454 691 492 c 128,-1,18
 636 530 636 530 541 530 c 2,19,-1
 376 530 l 1,20,-1
 376 183 l 1,21,-1
 541 183 l 2,13,14
EndSplineSet
Substitution2: "'ss02' Style Set 2 lookup 18 subtable" uni044C.1
Substitution2: "'locl' Localized Forms in Cyrillic lookup 10 subtable" uni044C.1
EndChar

StartChar: uni044D
Encoding: 1101 1101 484
Width: 1001
GlyphClass: 1
Flags: W
LayerCount: 2
Fore
SplineSet
465 -20 m 0,0,1
 316 -20 316 -20 210 57.5 c 128,-1,2
 104 135 104 135 54 274 c 1,3,-1
 255 356 l 1,4,5
 277 273 277 273 335 225 c 128,-1,6
 393 177 393 177 472 177 c 0,7,8
 578 177 578 177 637.5 248 c 128,-1,9
 697 319 697 319 713 430 c 1,10,-1
 348 430 l 1,11,-1
 348 590 l 1,12,-1
 715 590 l 1,13,14
 700 706 700 706 639.5 782 c 128,-1,15
 579 858 579 858 471 858 c 0,16,17
 392 858 392 858 335 812.5 c 128,-1,18
 278 767 278 767 255 679 c 1,19,-1
 43 767 l 1,20,21
 99 898 99 898 207 977 c 128,-1,22
 315 1056 315 1056 467 1056 c 0,23,24
 585 1056 585 1056 673.5 1012.5 c 128,-1,25
 762 969 762 969 821.5 893.5 c 128,-1,26
 881 818 881 818 910 721 c 128,-1,27
 939 624 939 624 939 518 c 0,28,29
 939 381 939 381 887.5 258 c 128,-1,30
 836 135 836 135 726 55 c 0,31,32
 618 -20 618 -20 465 -20 c 0,0,1
EndSplineSet
EndChar

StartChar: uni044E
Encoding: 1102 1102 485
Width: 1578
GlyphClass: 2
Flags: W
LayerCount: 2
Fore
SplineSet
1003 -20 m 0,0,1
 850 -20 850 -20 735.5 51 c 128,-1,2
 621 122 621 122 556 238.5 c 128,-1,3
 491 355 491 355 485 497 c 1,4,-1
 376 497 l 1,5,-1
 376 0 l 1,6,-1
 159 0 l 1,7,-1
 159 1039 l 1,8,-1
 376 1039 l 1,9,-1
 376 659 l 1,10,-1
 502 659 l 1,11,12
 530 770 530 770 598.5 858.5 c 128,-1,13
 667 947 667 947 770 999.5 c 128,-1,14
 873 1052 873 1052 1003 1052 c 0,15,16
 1160 1052 1160 1052 1276 977.5 c 128,-1,17
 1392 903 1392 903 1456 780.5 c 128,-1,18
 1520 658 1520 658 1520 516 c 0,19,20
 1520 367 1520 367 1454 245.5 c 128,-1,21
 1388 124 1388 124 1270.5 52 c 128,-1,22
 1153 -20 1153 -20 1003 -20 c 0,0,1
1003 166 m 256,23,24
 1102 166 1102 166 1165 213 c 128,-1,25
 1228 260 1228 260 1257.5 339 c 128,-1,26
 1287 418 1287 418 1287 516 c 0,27,28
 1287 611 1287 611 1258 691 c 128,-1,29
 1229 771 1229 771 1166 818 c 128,-1,30
 1103 865 1103 865 1003 865 c 0,31,32
 904 865 904 865 841.5 818.5 c 128,-1,33
 779 772 779 772 748.5 692.5 c 128,-1,34
 718 613 718 613 718 516 c 0,35,36
 718 417 718 417 748.5 338 c 128,-1,37
 779 259 779 259 841.5 212.5 c 128,-1,38
 904 166 904 166 1003 166 c 256,23,24
EndSplineSet
Substitution2: "'ss02' Style Set 2 lookup 18 subtable" uni044E.1
Substitution2: "'locl' Localized Forms in Cyrillic lookup 10 subtable" uni044E.1
EndChar

StartChar: uni044F
Encoding: 1103 1103 486
Width: 1062
GlyphClass: 1
Flags: W
LayerCount: 2
Fore
SplineSet
912 0 m 1,0,-1
 697 0 l 1,1,-1
 697 445 l 1,2,-1
 586 445 l 2,3,4
 531 445 531 445 495.5 412 c 128,-1,5
 460 379 460 379 440 316 c 1,6,-1
 317 0 l 1,7,-1
 62 0 l 1,8,-1
 178 324 l 2,9,10
 204 387 204 387 248 439 c 128,-1,11
 292 491 292 491 342 491 c 1,12,13
 272 507 272 507 219.5 537.5 c 128,-1,14
 167 568 167 568 137.5 619.5 c 128,-1,15
 108 671 108 671 108 756 c 0,16,17
 108 828 108 828 143 891.5 c 128,-1,18
 178 955 178 955 265 997 c 128,-1,19
 352 1039 352 1039 498 1039 c 2,20,-1
 912 1039 l 1,21,-1
 912 0 l 1,0,-1
697 609 m 1,22,-1
 697 854 l 1,23,-1
 463 854 l 2,24,25
 399 854 399 854 367 819 c 128,-1,26
 335 784 335 784 335 738 c 0,27,28
 335 681 335 681 370 645 c 128,-1,29
 405 609 405 609 484 609 c 2,30,-1
 697 609 l 1,22,-1
EndSplineSet
EndChar

StartChar: uni0452
Encoding: 1106 1106 489
Width: 1175
GlyphClass: 1
Flags: W
LayerCount: 2
Fore
SplineSet
624 -444 m 0,0,1
 469 -444 469 -444 340 -347 c 1,2,-1
 446 -178 l 1,3,4
 534 -244 534 -244 619 -244 c 0,5,6
 832 -244 832 -244 833 56 c 2,7,-1
 833 610 l 2,8,9
 833 722 833 722 792.5 786.5 c 128,-1,10
 752 851 752 851 650 851 c 0,11,12
 580 851 580 851 518 816.5 c 128,-1,13
 456 782 456 782 417.5 716.5 c 128,-1,14
 379 651 379 651 379 556 c 2,15,-1
 379 9 l 1,16,-1
 161 9 l 1,17,-1
 161 1155 l 1,18,-1
 -4 1155 l 1,19,-1
 -4 1304 l 1,20,-1
 161 1304 l 1,21,-1
 161 1413 l 1,22,-1
 379 1413 l 1,23,-1
 379 1304 l 1,24,-1
 648 1304 l 1,25,-1
 648 1155 l 1,26,-1
 379 1155 l 1,27,-1
 379 916 l 1,28,29
 434 990 434 990 509.5 1025 c 128,-1,30
 585 1060 585 1060 666 1060 c 0,31,32
 799 1060 799 1060 885 999 c 0,33,34
 973 934 973 934 1012 834.5 c 128,-1,35
 1051 735 1051 735 1051 622 c 2,36,-1
 1051 119 l 2,37,38
 1051 -158 1051 -158 950.5 -301 c 128,-1,39
 850 -444 850 -444 624 -444 c 0,0,1
EndSplineSet
EndChar

StartChar: uni0454
Encoding: 1108 1108 491
Width: 999
GlyphClass: 1
Flags: W
LayerCount: 2
Fore
SplineSet
539 -20 m 0,0,1
 421 -20 421 -20 332 23.5 c 128,-1,2
 243 67 243 67 183.5 142.5 c 128,-1,3
 124 218 124 218 94 315 c 128,-1,4
 64 412 64 412 64 518 c 0,5,6
 64 620 64 620 92.5 716.5 c 128,-1,7
 121 813 121 813 179.5 889.5 c 128,-1,8
 238 966 238 966 326.5 1011 c 128,-1,9
 415 1056 415 1056 537 1056 c 0,10,11
 689 1056 689 1056 797.5 977 c 128,-1,12
 906 898 906 898 961 767 c 1,13,-1
 749 679 l 1,14,15
 726 767 726 767 668.5 812.5 c 128,-1,16
 611 858 611 858 532 858 c 0,17,18
 424 858 424 858 364 782 c 128,-1,19
 304 706 304 706 288 590 c 1,20,-1
 655 590 l 1,21,-1
 655 430 l 1,22,-1
 290 430 l 1,23,24
 306 318 306 318 366.5 247.5 c 128,-1,25
 427 177 427 177 532 177 c 0,26,27
 611 177 611 177 669 224.5 c 128,-1,28
 727 272 727 272 749 356 c 1,29,-1
 950 274 l 1,30,31
 900 134 900 134 794 57 c 128,-1,32
 688 -20 688 -20 539 -20 c 0,0,1
EndSplineSet
EndChar

StartChar: uni0459
Encoding: 1113 1113 496
Width: 1704
GlyphClass: 1
Flags: W
LayerCount: 2
Fore
SplineSet
228 -21 m 0,0,1
 134 -21 134 -21 29 31 c 1,2,-1
 92 172 l 1,3,4
 107 162 107 162 130.5 154 c 128,-1,5
 154 146 154 146 172 146 c 0,6,7
 209 146 209 146 232 210 c 128,-1,8
 255 274 255 274 265.5 385 c 128,-1,9
 276 496 276 496 276 636 c 2,10,-1
 276 1039 l 1,11,-1
 1025 1039 l 1,12,-1
 1025 720 l 1,13,-1
 1189 720 l 2,14,15
 1345 720 1345 720 1440.5 684 c 128,-1,16
 1536 648 1536 648 1583 573 c 0,17,18
 1632 495 1632 495 1632 365 c 0,19,20
 1632 178 1632 178 1515.5 89 c 128,-1,21
 1399 0 1399 0 1192 0 c 2,22,-1
 808 0 l 1,23,-1
 808 877 l 1,24,-1
 492 877 l 1,25,-1
 492 647 l 2,26,27
 492 398 492 398 462.5 252 c 128,-1,28
 433 106 433 106 374.5 42.5 c 128,-1,29
 316 -21 316 -21 228 -21 c 0,0,1
1191 183 m 2,30,31
 1286 183 1286 183 1340.5 223.5 c 128,-1,32
 1395 264 1395 264 1395 365 c 0,33,34
 1395 459 1395 459 1340.5 498 c 128,-1,35
 1286 537 1286 537 1191 537 c 2,36,-1
 1025 537 l 1,37,-1
 1025 183 l 1,38,-1
 1191 183 l 2,30,31
EndSplineSet
EndChar

StartChar: uni045A
Encoding: 1114 1114 497
Width: 1727
GlyphClass: 1
Flags: W
LayerCount: 2
Fore
SplineSet
1220 0 m 2,0,-1
 836 0 l 1,1,-1
 836 489 l 1,2,-1
 376 489 l 1,3,-1
 376 0 l 1,4,-1
 159 0 l 1,5,-1
 159 1039 l 1,6,-1
 376 1039 l 1,7,-1
 376 651 l 1,8,-1
 836 651 l 1,9,-1
 836 1039 l 1,10,-1
 1052 1039 l 1,11,-1
 1052 651 l 1,12,-1
 1216 651 l 2,13,14
 1376 651 1376 651 1470.5 620 c 128,-1,15
 1565 589 1565 589 1611 523 c 0,16,17
 1660 452 1660 452 1660 328 c 0,18,19
 1660 163 1660 163 1556 81.5 c 128,-1,20
 1452 0 1452 0 1220 0 c 2,0,-1
1218 183 m 2,21,22
 1284 183 1284 183 1329.5 194.5 c 128,-1,23
 1375 206 1375 206 1399 237.5 c 128,-1,24
 1423 269 1423 269 1423 328 c 0,25,26
 1423 390 1423 390 1397.5 420.5 c 128,-1,27
 1372 451 1372 451 1329.5 459.5 c 128,-1,28
 1287 468 1287 468 1218 468 c 2,29,-1
 1052 468 l 1,30,-1
 1052 183 l 1,31,-1
 1218 183 l 2,21,22
EndSplineSet
EndChar

StartChar: uni045B
Encoding: 1115 1115 498
Width: 1178
GlyphClass: 1
Flags: W
LayerCount: 2
Fore
SplineSet
1054 0 m 1,0,-1
 836 0 l 1,1,-1
 836 605 l 2,2,3
 836 718 836 718 795.5 787 c 128,-1,4
 755 856 755 856 654 856 c 0,5,6
 574 856 574 856 511.5 815 c 128,-1,7
 449 774 449 774 413 709 c 128,-1,8
 377 644 377 644 377 574 c 2,9,-1
 377 0 l 1,10,-1
 161 0 l 1,11,-1
 161 1139 l 1,12,-1
 -2 1139 l 1,13,-1
 -2 1288 l 1,14,-1
 161 1288 l 1,15,-1
 161 1413 l 1,16,-1
 377 1413 l 1,17,-1
 377 1288 l 1,18,-1
 650 1288 l 1,19,-1
 650 1139 l 1,20,-1
 377 1139 l 1,21,-1
 377 908 l 1,22,23
 438 984 438 984 520 1020 c 128,-1,24
 602 1056 602 1056 685 1056 c 0,25,26
 812 1056 812 1056 894 996.5 c 128,-1,27
 976 937 976 937 1015 840 c 128,-1,28
 1054 743 1054 743 1054 629 c 2,29,-1
 1054 0 l 1,0,-1
EndSplineSet
EndChar

StartChar: uni045F
Encoding: 1119 1119 502
Width: 1190
GlyphClass: 1
Flags: W
LayerCount: 2
Fore
SplineSet
709 -307 m 1,0,-1
 493 -307 l 1,1,-1
 493 0 l 1,2,-1
 159 0 l 1,3,-1
 159 1039 l 1,4,-1
 376 1039 l 1,5,-1
 376 163 l 1,6,-1
 827 163 l 1,7,-1
 827 1039 l 1,8,-1
 1043 1039 l 1,9,-1
 1043 0 l 1,10,-1
 709 0 l 1,11,-1
 709 -307 l 1,0,-1
EndSplineSet
EndChar

StartChar: uni0462
Encoding: 1122 1122 503
Width: 1263
GlyphClass: 1
Flags: W
LayerCount: 2
Fore
SplineSet
721 0 m 2,0,-1
 292 0 l 1,1,-1
 292 1069 l 1,2,-1
 45 1069 l 1,3,-1
 45 1272 l 1,4,-1
 292 1272 l 1,5,-1
 292 1412 l 1,6,-1
 515 1412 l 1,7,-1
 515 1272 l 1,8,-1
 825 1272 l 1,9,-1
 825 1069 l 1,10,-1
 515 1069 l 1,11,-1
 515 810 l 1,12,-1
 721 810 l 2,13,14
 857 810 857 810 966.5 765.5 c 128,-1,15
 1076 721 1076 721 1140.5 632 c 128,-1,16
 1205 543 1205 543 1205 408 c 0,17,18
 1205 276 1205 276 1142 185 c 128,-1,19
 1079 94 1079 94 969.5 47 c 128,-1,20
 860 0 860 0 721 0 c 2,0,-1
721 207 m 2,21,22
 858 207 858 207 921 261 c 128,-1,23
 984 315 984 315 984 408 c 0,24,25
 984 603 984 603 721 603 c 2,26,-1
 515 603 l 1,27,-1
 515 207 l 1,28,-1
 721 207 l 2,21,22
EndSplineSet
Position2: "'cpsp' Capital Spacing lookup 0 subtable" dx=5 dy=0 dh=10 dv=0
EndChar

StartChar: uni0463
Encoding: 1123 1123 504
Width: 1060
GlyphClass: 1
Flags: W
LayerCount: 2
Fore
SplineSet
545 0 m 2,0,-1
 161 0 l 1,1,-1
 161 1134 l 1,2,-1
 -35 1134 l 1,3,-1
 -35 1283 l 1,4,-1
 161 1283 l 1,5,-1
 161 1412 l 1,6,-1
 377 1412 l 1,7,-1
 377 1283 l 1,8,-1
 653 1283 l 1,9,-1
 653 1134 l 1,10,-1
 377 1134 l 1,11,-1
 377 692 l 1,12,-1
 541 692 l 2,13,14
 698 692 698 692 793.5 657.5 c 128,-1,15
 889 623 889 623 936 551 c 0,16,17
 985 476 985 476 985 351 c 0,18,19
 985 172 985 172 869.5 86 c 128,-1,20
 754 0 754 0 545 0 c 2,0,-1
544 183 m 2,21,22
 640 183 640 183 694 220.5 c 128,-1,23
 748 258 748 258 748 351 c 0,24,25
 748 438 748 438 693 473.5 c 128,-1,26
 638 509 638 509 544 509 c 2,27,-1
 377 509 l 1,28,-1
 377 183 l 1,29,-1
 544 183 l 2,21,22
EndSplineSet
EndChar

StartChar: uni0464
Encoding: 1124 1124 505
Width: 1899
GlyphClass: 1
Flags: W
LayerCount: 2
Fore
SplineSet
1235 -20 m 0,0,1
 1081 -20 1081 -20 963 28 c 128,-1,2
 845 76 845 76 762 161 c 128,-1,3
 679 246 679 246 631 359 c 128,-1,4
 583 472 583 472 570 605 c 1,5,-1
 415 605 l 1,6,-1
 415 0 l 1,7,-1
 191 0 l 1,8,-1
 191 1412 l 1,9,-1
 415 1412 l 1,10,-1
 415 808 l 1,11,-1
 570 808 l 1,12,13
 586 979 586 979 663.5 1121.5 c 128,-1,14
 741 1264 741 1264 890 1353 c 0,15,16
 1033 1436 1033 1436 1233 1436 c 0,17,18
 1431 1436 1431 1436 1589.5 1338.5 c 128,-1,19
 1748 1241 1748 1241 1837 1039 c 1,20,-1
 1628 956 l 1,21,22
 1589 1094 1589 1094 1484.5 1159 c 128,-1,23
 1380 1224 1380 1224 1231 1224 c 0,24,25
 1095 1224 1095 1224 1003.5 1170 c 128,-1,26
 912 1116 912 1116 860.5 1022.5 c 128,-1,27
 809 929 809 929 795 808 c 1,28,-1
 1381 808 l 1,29,-1
 1381 605 l 1,30,-1
 796 605 l 1,31,32
 819 415 819 415 928.5 303 c 128,-1,33
 1038 191 1038 191 1235 191 c 0,34,35
 1387 191 1387 191 1483 258.5 c 128,-1,36
 1579 326 1579 326 1631 463 c 1,37,-1
 1839 378 l 1,38,39
 1751 176 1751 176 1592 78 c 128,-1,40
 1433 -20 1433 -20 1235 -20 c 0,0,1
EndSplineSet
Position2: "'cpsp' Capital Spacing lookup 0 subtable" dx=5 dy=0 dh=10 dv=0
EndChar

StartChar: uni0465
Encoding: 1125 1125 506
Width: 1478
GlyphClass: 1
Flags: W
LayerCount: 2
Fore
SplineSet
1014 -20 m 0,0,1
 870 -20 870 -20 768 43 c 128,-1,2
 666 106 666 106 608 211.5 c 128,-1,3
 550 317 550 317 536 448 c 1,4,-1
 376 448 l 1,5,-1
 376 0 l 1,6,-1
 159 0 l 1,7,-1
 159 1039 l 1,8,-1
 376 1039 l 1,9,-1
 376 610 l 1,10,-1
 539 610 l 1,11,12
 554 731 554 731 611.5 832 c 128,-1,13
 669 933 669 933 768.5 994.5 c 128,-1,14
 868 1056 868 1056 1012 1056 c 0,15,16
 1167 1056 1167 1056 1277.5 977 c 128,-1,17
 1388 898 1388 898 1444 767 c 1,18,-1
 1233 679 l 1,19,20
 1209 765 1209 765 1150 811.5 c 128,-1,21
 1091 858 1091 858 1008 858 c 0,22,23
 932 858 932 858 879 821.5 c 128,-1,24
 826 785 826 785 795.5 729 c 128,-1,25
 765 673 765 673 756 610 c 1,26,-1
 1138 610 l 1,27,-1
 1138 450 l 1,28,-1
 758 450 l 1,29,30
 766 371 766 371 796 309 c 128,-1,31
 826 247 826 247 878 212 c 128,-1,32
 930 177 930 177 1008 177 c 0,33,34
 1090 177 1090 177 1149.5 225 c 128,-1,35
 1209 273 1209 273 1233 356 c 1,36,-1
 1432 274 l 1,37,38
 1382 132 1382 132 1272 56 c 128,-1,39
 1162 -20 1162 -20 1014 -20 c 0,0,1
EndSplineSet
EndChar

StartChar: uni0466
Encoding: 1126 1126 507
Width: 1331
GlyphClass: 1
Flags: W
LayerCount: 2
Fore
SplineSet
1303 0 m 1,0,-1
 1061 0 l 1,1,-1
 920 400 l 1,2,-1
 779 400 l 1,3,-1
 779 0 l 1,4,-1
 556 0 l 1,5,-1
 556 400 l 1,6,-1
 415 400 l 1,7,-1
 272 0 l 1,8,-1
 28 0 l 1,9,-1
 582 1412 l 1,10,-1
 751 1412 l 1,11,-1
 1303 0 l 1,0,-1
846 591 m 1,12,-1
 668 1083 l 1,13,-1
 489 591 l 1,14,-1
 846 591 l 1,12,-1
EndSplineSet
Position2: "'cpsp' Capital Spacing lookup 0 subtable" dx=5 dy=0 dh=10 dv=0
EndChar

StartChar: uni0467
Encoding: 1127 1127 508
Width: 1015
GlyphClass: 1
Flags: W
LayerCount: 2
Fore
SplineSet
989 0 m 1,0,-1
 768 0 l 1,1,-1
 697 236 l 1,2,-1
 591 236 l 1,3,-1
 591 0 l 1,4,-1
 431 0 l 1,5,-1
 431 236 l 1,6,-1
 326 236 l 1,7,-1
 246 0 l 1,8,-1
 29 0 l 1,9,-1
 425 1039 l 1,10,-1
 595 1039 l 1,11,-1
 989 0 l 1,0,-1
646 393 m 1,12,-1
 512 769 l 1,13,-1
 379 393 l 1,14,-1
 646 393 l 1,12,-1
EndSplineSet
EndChar

StartChar: uni0468
Encoding: 1128 1128 509
Width: 1793
GlyphClass: 1
Flags: W
LayerCount: 2
Fore
SplineSet
1764 0 m 1,0,-1
 1523 0 l 1,1,-1
 1381 400 l 1,2,-1
 1240 400 l 1,3,-1
 1240 0 l 1,4,-1
 1017 0 l 1,5,-1
 1017 400 l 1,6,-1
 876 400 l 1,7,-1
 733 0 l 1,8,-1
 489 0 l 1,9,-1
 726 605 l 1,10,-1
 415 605 l 1,11,-1
 415 0 l 1,12,-1
 191 0 l 1,13,-1
 191 1412 l 1,14,-1
 415 1412 l 1,15,-1
 415 808 l 1,16,-1
 807 808 l 1,17,-1
 1043 1412 l 1,18,-1
 1212 1412 l 1,19,-1
 1764 0 l 1,0,-1
1307 591 m 1,20,-1
 1129 1083 l 1,21,-1
 950 591 l 1,22,-1
 1307 591 l 1,20,-1
EndSplineSet
Position2: "'cpsp' Capital Spacing lookup 0 subtable" dx=5 dy=0 dh=10 dv=0
EndChar

StartChar: uni0469
Encoding: 1129 1129 510
Width: 1441
GlyphClass: 1
Flags: W
LayerCount: 2
Fore
SplineSet
1420 0 m 1,0,-1
 1199 0 l 1,1,-1
 1128 238 l 1,2,-1
 1022 238 l 1,3,-1
 1022 0 l 1,4,-1
 861 0 l 1,5,-1
 861 238 l 1,6,-1
 757 238 l 1,7,-1
 677 0 l 1,8,-1
 460 0 l 1,9,-1
 617 413 l 1,10,-1
 376 413 l 1,11,-1
 376 0 l 1,12,-1
 159 0 l 1,13,-1
 159 1039 l 1,14,-1
 376 1039 l 1,15,-1
 376 575 l 1,16,-1
 682 575 l 1,17,-1
 856 1039 l 1,18,-1
 1026 1039 l 1,19,-1
 1420 0 l 1,0,-1
1077 395 m 1,20,-1
 943 766 l 1,21,-1
 809 395 l 1,22,-1
 1077 395 l 1,20,-1
EndSplineSet
EndChar

StartChar: uni046A
Encoding: 1130 1130 511
Width: 1574
GlyphClass: 1
Flags: W
LayerCount: 2
Fore
SplineSet
1535 0 m 1,0,-1
 1282 0 l 1,1,-1
 1104 482 l 2,2,3
 1080 551 1080 551 1038 604 c 128,-1,4
 996 657 996 657 927 657 c 2,5,-1
 887 657 l 1,6,-1
 887 0 l 1,7,-1
 664 0 l 1,8,-1
 664 657 l 1,9,-1
 625 657 l 2,10,11
 506 657 506 657 447 482 c 1,12,-1
 270 0 l 1,13,-1
 38 0 l 1,14,-1
 250 586 l 2,15,16
 270 640 270 640 307 691.5 c 128,-1,17
 344 743 344 743 395 778 c 128,-1,18
 446 813 446 813 507 813 c 1,19,-1
 218 1209 l 1,20,-1
 218 1412 l 1,21,-1
 1331 1412 l 1,22,-1
 1331 1209 l 1,23,-1
 1043 813 l 1,24,25
 1103 813 1103 813 1154 778 c 128,-1,26
 1205 743 1205 743 1243 691.5 c 128,-1,27
 1281 640 1281 640 1302 586 c 2,28,-1
 1535 0 l 1,0,-1
777 828 m 1,29,-1
 1052 1209 l 1,30,-1
 497 1209 l 1,31,-1
 777 828 l 1,29,-1
EndSplineSet
Position2: "'cpsp' Capital Spacing lookup 0 subtable" dx=5 dy=0 dh=10 dv=0
EndChar

